{
.appVersion = "1349";
DisplayStrings = (
"/foursuperior/ellipsis/nbspace \015/divisionslash/minus ¨´"
);
date = "2020-12-04 07:15:07 +0000";
disablesAutomaticAlignment = 1;
familyName = "Hentaigana Shared";
features = (
{

glyphs = (
{
color = 3;
glyphname = A;
lastChange = "2020-12-24 23:28:07 +0000";
layers = (
{
hints = (
{
horizontal = 1;
place = "{235, 52}";
type = Stem;
},
{
horizontal = 1;
place = "{672, -20}";
target = down;
type = TopGhost;
},
{
place = "{42, 652}";
type = Stem;
},
{
horizontal = 1;
place = "{668, -20}";
target = down;
type = TopGhost;
}
);
layerId = "38E14F89-90D8-48C8-A96B-0BF2B2C9AEC9";
paths = (
{
closed = 1;
nodes = (
"170 -42 OFFCURVE",
"170 -5 OFFCURVE",
"170 25 CURVE SMOOTH",
"170 34 OFFCURVE",
"170 42 OFFCURVE",
"171 49 CURVE SMOOTH",
"179 170 OFFCURVE",
"227 306 OFFCURVE",
"283 375 CURVE",
"306 375 OFFCURVE",
"331 376 OFFCURVE",
"357 377 CURVE SMOOTH",
"451 381 OFFCURVE",
"566 375 OFFCURVE",
"630 368 CURVE",
"625 256 OFFCURVE",
"633 142 OFFCURVE",
"651 62 CURVE SMOOTH",
"652 56 OFFCURVE",
"653 50 OFFCURVE",
"654 43 CURVE SMOOTH",
"661 7 OFFCURVE",
"670 -44 OFFCURVE",
"717 -29 CURVE",
"728 -14 OFFCURVE",
"728 6 OFFCURVE",
"712 66 CURVE SMOOTH",
"708 80 OFFCURVE",
"705 94 OFFCURVE",
"702 108 CURVE SMOOTH",
"684 210 OFFCURVE",
"681 302 OFFCURVE",
"693 377 CURVE",
"707 381 OFFCURVE",
"728 380 OFFCURVE",
"751 378 CURVE SMOOTH",
"790 376 OFFCURVE",
"837 373 OFFCURVE",
"830 409 CURVE SMOOTH",
"825 435 OFFCURVE",
"790 433 OFFCURVE",
"759 430 CURVE SMOOTH",
"723 427 OFFCURVE",
"708 428 OFFCURVE",
"698 435 CURVE",
"693 490 OFFCURVE",
"703 552 OFFCURVE",
"712 607 CURVE SMOOTH",
"720 650 OFFCURVE",
"727 692 OFFCURVE",
"727 731 CURVE",
"717 744 OFFCURVE",
"694 749 OFFCURVE",
"684 745 CURVE SMOOTH",
"545 689 OFFCURVE",
"429 632 OFFCURVE",
"331 534 CURVE SMOOTH",
"324 526 OFFCURVE",
"317 519 OFFCURVE",
"302 501 CURVE SMOOTH",
"279 474 OFFCURVE",
"254 440 OFFCURVE",
"239 434 CURVE SMOOTH",
"206 421 OFFCURVE",
"164 431 OFFCURVE",
"130 437 CURVE",
"132 470 OFFCURVE",
"114 485 OFFCURVE",
"97 485 CURVE SMOOTH",
"77 485 OFFCURVE",
"58 465 OFFCURVE",
"66 428 CURVE SMOOTH",
"75 388 OFFCURVE",
"121 383 OFFCURVE",
"161 379 CURVE SMOOTH",
"175 377 OFFCURVE",
"188 376 OFFCURVE",
"201 373 CURVE",
"164 284 OFFCURVE",
"128 196 OFFCURVE",
"115 79 CURVE SMOOTH",
"112 52 OFFCURVE",
"97 -25 OFFCURVE",
"133 -33 CURVE SMOOTH"
);
},
{
closed = 1;
nodes = (
"404 537 OFFCURVE",
"510 618 OFFCURVE",
"655 670 CURVE",
"656 622 OFFCURVE",
"649 569 OFFCURVE",
"641 516 CURVE SMOOTH",
"637 492 OFFCURVE",
"633 461 OFFCURVE",
"631 438 CURVE",
"546 426 OFFCURVE",
"417 425 OFFCURVE",
"331 437 CURVE"
);
}
);
vertWidth = 1000;
width = 880;
}
);
note = cid00034;
unicode = 0041;
},
{
glyphname = AE;
lastChange = "2020-12-28 10:19:12 +0000";
layers = (
{
components = (
{
name = E;
transform = "{1, 0, 0, 1, 575, 0}";
}
);
hints = (
{
horizontal = 1;
place = "{3, 73}";
type = Stem;
},
{
horizontal = 1;
place = "{335, 73}";
type = Stem;
},
{
horizontal = 1;
place = "{648, 74}";
type = Stem;
},
{
place = "{567, 84}";
type = Stem;
},
{
place = "{567, 81.5}";
type = Stem;
},
{
horizontal = 1;
place = "{237, 75}";
type = Stem;
},
{
horizontal = 1;
place = "{4, 58}";
type = Stem;
},
{
horizontal = 1;
place = "{314, 54}";
type = Stem;
},
{
horizontal = 1;
place = "{431, 10}";
type = Stem;
},
{
horizontal = 1;
place = "{593, 54}";
type = Stem;
},
{
place = "{725, 78}";
type = Stem;
},
{
place = "{1067.91, 51.09}";
type = Stem;
},
{
place = "{1048, 57.5}";
type = Stem;
},
{
horizontal = 1;
place = "{636, 17}";
type = Stem;
},
{
horizontal = 1;
place = "{235, 52}";
type = Stem;
},
{
horizontal = 1;
place = "{672, -20}";
target = down;
type = TopGhost;
},
{
place = "{42, 652}";
type = Stem;
},
{
horizontal = 1;
place = "{668, -20}";
target = down;
type = TopGhost;
}
);
layerId = "38E14F89-90D8-48C8-A96B-0BF2B2C9AEC9";
paths = (
{
closed = 1;
nodes = (
"170 -42 OFFCURVE",
"170 -5 OFFCURVE",
"170 25 CURVE SMOOTH",
"170 34 OFFCURVE",
"170 42 OFFCURVE",
"171 49 CURVE SMOOTH",
"179 170 OFFCURVE",
"227 306 OFFCURVE",
"283 375 CURVE",
"306 375 OFFCURVE",
"331 376 OFFCURVE",
"357 377 CURVE SMOOTH",
"451 381 OFFCURVE",
"566 375 OFFCURVE",
"630 368 CURVE",
"625 256 OFFCURVE",
"633 142 OFFCURVE",
"651 62 CURVE SMOOTH",
"652 56 OFFCURVE",
"653 50 OFFCURVE",
"654 43 CURVE SMOOTH",
"661 7 OFFCURVE",
"670 -44 OFFCURVE",
"717 -29 CURVE",
"728 -14 OFFCURVE",
"728 6 OFFCURVE",
"712 66 CURVE SMOOTH",
"708 80 OFFCURVE",
"705 94 OFFCURVE",
"702 108 CURVE SMOOTH",
"675 259 OFFCURVE",
"693 492 OFFCURVE",
"712 607 CURVE SMOOTH",
"720 650 OFFCURVE",
"727 692 OFFCURVE",
"727 731 CURVE",
"717 744 OFFCURVE",
"694 749 OFFCURVE",
"684 745 CURVE SMOOTH",
"545 689 OFFCURVE",
"429 632 OFFCURVE",
"331 534 CURVE SMOOTH",
"324 526 OFFCURVE",
"317 519 OFFCURVE",
"302 501 CURVE SMOOTH",
"279 474 OFFCURVE",
"254 440 OFFCURVE",
"239 434 CURVE SMOOTH",
"206 421 OFFCURVE",
"164 431 OFFCURVE",
"130 437 CURVE",
"132 470 OFFCURVE",
"114 485 OFFCURVE",
"97 485 CURVE SMOOTH",
"77 485 OFFCURVE",
"58 465 OFFCURVE",
"66 428 CURVE SMOOTH",
"75 388 OFFCURVE",
"121 383 OFFCURVE",
"161 379 CURVE SMOOTH",
"175 377 OFFCURVE",
"188 376 OFFCURVE",
"201 373 CURVE",
"164 284 OFFCURVE",
"128 196 OFFCURVE",
"115 79 CURVE SMOOTH",
"112 52 OFFCURVE",
"97 -25 OFFCURVE",
"133 -33 CURVE SMOOTH"
);
},
{
closed = 1;
nodes = (
"404 537 OFFCURVE",
"510 618 OFFCURVE",
"655 670 CURVE",
"656 622 OFFCURVE",
"649 569 OFFCURVE",
"641 516 CURVE SMOOTH",
"637 492 OFFCURVE",
"633 461 OFFCURVE",
"631 438 CURVE",
"546 426 OFFCURVE",
"417 425 OFFCURVE",
"331 437 CURVE"
);
}
);
vertWidth = 1000;
width = 1326;
},
{
associatedMasterId = "38E14F89-90D8-48C8-A96B-0BF2B2C9AEC9";
components = (
{
name = A;
}
);
hints = (
{
horizontal = 1;
place = "{3, 73}";
type = Stem;
},
{
horizontal = 1;
place = "{335, 73}";
type = Stem;
},
{
horizontal = 1;
place = "{648, 74}";
type = Stem;
},
{
place = "{567, 84}";
type = Stem;
},
{
place = "{567, 81.5}";
type = Stem;
},
{
horizontal = 1;
place = "{237, 75}";
type = Stem;
},
{
horizontal = 1;
place = "{4, 58}";
type = Stem;
},
{
horizontal = 1;
place = "{314, 54}";
type = Stem;
},
{
horizontal = 1;
place = "{431, 10}";
type = Stem;
},
{
horizontal = 1;
place = "{593, 54}";
type = Stem;
},
{
place = "{725, 78}";
type = Stem;
},
{
place = "{1067.91, 51.09}";
type = Stem;
},
{
place = "{1048, 57.5}";
type = Stem;
},
{
horizontal = 1;
place = "{636, 17}";
type = Stem;
}
);
layerId = "16F9D036-5A45-4CD7-8DA6-D526387F21EA";
name = "Dec 28 20, 19:18";
paths = (
{
closed = 1;
nodes = (
"1165 496 LINE",
"1243 510 OFFCURVE",
"1205 601 OFFCURVE",
"1173 634 CURVE SMOOTH",
"1116 694 OFFCURVE",
"984 738 OFFCURVE",
"874 734 CURVE SMOOTH",
"752 729 OFFCURVE",
"642 642 OFFCURVE",
"652 537 CURVE SMOOTH",
"659 462 OFFCURVE",
"679 449 OFFCURVE",
"703 399 CURVE",
"665 344 OFFCURVE",
"629 277 OFFCURVE",
"635 199 CURVE SMOOTH",
"646 55 OFFCURVE",
"790 -19 OFFCURVE",
"940 -25 CURVE SMOOTH",
"1048 -29 OFFCURVE",
"1160 2 OFFCURVE",
"1226 68 CURVE SMOOTH",
"1243 85 OFFCURVE",
"1262 111 OFFCURVE",
"1272 131 CURVE SMOOTH",
"1297 180 OFFCURVE",
"1293 209 OFFCURVE",
"1258 208 CURVE SMOOTH",
"1242 207 OFFCURVE",
"1231 192 OFFCURVE",
"1212 150 CURVE SMOOTH",
"1205 132 OFFCURVE",
"1201 126 OFFCURVE",
"1200 124 CURVE",
"1150 62 OFFCURVE",
"1045 27 OFFCURVE",
"943 28 CURVE SMOOTH",
"813 29 OFFCURVE",
"687 89 OFFCURVE",
"692 223 CURVE SMOOTH",
"695 323 OFFCURVE",
"737 370 OFFCURVE",
"804 372 CURVE SMOOTH",
"867 374 OFFCURVE",
"884 371 OFFCURVE",
"902 369 CURVE SMOOTH",
"991 356 OFFCURVE",
"1022 363 OFFCURVE",
"1029 411 CURVE",
"1008 428 OFFCURVE",
"981 425 OFFCURVE",
"957 422 CURVE SMOOTH",
"946 421 OFFCURVE",
"934 419 OFFCURVE",
"923 420 CURVE SMOOTH",
"803 426 OFFCURVE",
"705 432 OFFCURVE",
"705 550 CURVE SMOOTH",
"705 616 OFFCURVE",
"787 679 OFFCURVE",
"891 679 CURVE SMOOTH",
"980 679 OFFCURVE",
"1135 632 OFFCURVE",
"1149 565 CURVE SMOOTH",
"1151 557 OFFCURVE",
"1150 550 OFFCURVE",
"1147 538 CURVE SMOOTH",
"1141 518 OFFCURVE",
"1143 510 OFFCURVE",
"1160 497 CURVE"
);
}
);
vertWidth = 1000;
width = 1308;
}
);
leftMetricsKey = A;
note = cid00139;
rightMetricsKey = E;
unicode = 00C6;
},
{
color = 3;
glyphname = B;
lastChange = "2021-01-02 15:09:44 +0000";
layers = (
{
hints = (
{
horizontal = 1;
place = "{13, 40}";
type = Stem;
},
{
horizontal = 1;
place = "{327, 44}";
type = Stem;
},
{
horizontal = 1;
place = "{600, 52}";
type = Stem;
},
{
place = "{172, 78}";
type = Stem;
},
{
place = "{508, 93}";
type = Stem;
},
{
place = "{487, 91}";
type = Stem;
},
{
horizontal = 1;
place = "{609, 48}";
type = Stem;
}
);
layerId = "38E14F89-90D8-48C8-A96B-0BF2B2C9AEC9";
paths = (
{
closed = 1;
nodes = (
"313 -34 OFFCURVE",
"522 -13 OFFCURVE",
"616 46 CURVE SMOOTH",
"664 78 OFFCURVE",
"727 158 OFFCURVE",
"734 224 CURVE SMOOTH",
"747 345 OFFCURVE",
"665 389 OFFCURVE",
"579 436 CURVE",
"591 453 OFFCURVE",
"607 485 OFFCURVE",
"611 507 CURVE SMOOTH",
"635 657 OFFCURVE",
"486 730 OFFCURVE",
"339 737 CURVE SMOOTH",
"214 742 OFFCURVE",
"90 699 OFFCURVE",
"73 612 CURVE SMOOTH",
"59 538 OFFCURVE",
"102 508 OFFCURVE",
"141 481 CURVE SMOOTH",
"151 475 OFFCURVE",
"155 472 OFFCURVE",
"160 469 CURVE",
"164 427 OFFCURVE",
"164 400 OFFCURVE",
"164 261 CURVE SMOOTH",
"164 256 OFFCURVE",
"163 249 OFFCURVE",
"163 239 CURVE SMOOTH",
"157 117 OFFCURVE",
"162 59 OFFCURVE",
"192 59 CURVE SMOOTH",
"217 59 OFFCURVE",
"222 83 OFFCURVE",
"220 154 CURVE SMOOTH",
"219 164 OFFCURVE",
"219 174 OFFCURVE",
"219 183 CURVE SMOOTH",
"219 298 OFFCURVE",
"219 357 OFFCURVE",
"219 463 CURVE SMOOTH",
"219 471 OFFCURVE",
"220 480 OFFCURVE",
"220 490 CURVE SMOOTH",
"223 560 OFFCURVE",
"218 587 OFFCURVE",
"192 588 CURVE SMOOTH",
"167 589 OFFCURVE",
"165 572 OFFCURVE",
"163 559 CURVE SMOOTH",
"162 550 OFFCURVE",
"161 544 OFFCURVE",
"159 541 CURVE",
"81 612 OFFCURVE",
"192 675 OFFCURVE",
"286 681 CURVE SMOOTH",
"360 685 OFFCURVE",
"461 670 OFFCURVE",
"509 636 CURVE SMOOTH",
"615 559 OFFCURVE",
"516 399 OFFCURVE",
"403 410 CURVE SMOOTH",
"392 411 OFFCURVE",
"387 415 OFFCURVE",
"381 420 CURVE SMOOTH",
"363 433 OFFCURVE",
"344 436 OFFCURVE",
"329 424 CURVE",
"316 387 OFFCURVE",
"338 360 OFFCURVE",
"384 355 CURVE SMOOTH",
"416 351 OFFCURVE",
"443 362 OFFCURVE",
"467 372 CURVE SMOOTH",
"486 380 OFFCURVE",
"504 387 OFFCURVE",
"521 388 CURVE SMOOTH",
"575 390 OFFCURVE",
"648 341 OFFCURVE",
"667 292 CURVE SMOOTH",
"685 247 OFFCURVE",
"668 188 OFFCURVE",
"651 160 CURVE SMOOTH",
"583 48 OFFCURVE",
"389 26 OFFCURVE",
"213 39 CURVE SMOOTH",
"136 46 OFFCURVE",
"88 53 OFFCURVE",
"86 23 CURVE SMOOTH",
"83 -8 OFFCURVE",
"103 -6 OFFCURVE",
"146 -12 CURVE SMOOTH"
);
}
);
vertWidth = 1000;
width = 795;
}
);
note = cid00035;
unicode = 0042;
},
{
color = 3;
glyphname = C;
lastChange = "2021-01-02 15:09:44 +0000";
layers = (
{
hints = (
{
horizontal = 1;
place = "{-18, 57}";
type = Stem;
},
{
horizontal = 1;
place = "{615, 55}";
type = Stem;
},
{
place = "{96, 81}";
type = Stem;
},
{
place = "{574, 40}";
type = Stem;
},
{
horizontal = 1;
place = "{615, 5}";
type = Stem;
}
);
layerId = "38E14F89-90D8-48C8-A96B-0BF2B2C9AEC9";
paths = (
{
closed = 1;
nodes = (
"551 -39 OFFCURVE",
"678 61 OFFCURVE",
"739 170 CURVE SMOOTH",
"782 242 OFFCURVE",
"785 263 OFFCURVE",
"747 292 CURVE",
"716 276 OFFCURVE",
"707 249 OFFCURVE",
"699 224 CURVE SMOOTH",
"696 213 OFFCURVE",
"692 201 OFFCURVE",
"687 191 CURVE SMOOTH",
"629 95 OFFCURVE",
"536 38 OFFCURVE",
"424 29 CURVE SMOOTH",
"236 15 OFFCURVE",
"141 154 OFFCURVE",
"131 296 CURVE SMOOTH",
"116 500 OFFCURVE",
"227 658 OFFCURVE",
"396 675 CURVE SMOOTH",
"503 684 OFFCURVE",
"594 639 OFFCURVE",
"603 571 CURVE SMOOTH",
"611 508 OFFCURVE",
"559 449 OFFCURVE",
"509 461 CURVE SMOOTH",
"478 469 OFFCURVE",
"482 492 OFFCURVE",
"487 520 CURVE SMOOTH",
"494 557 OFFCURVE",
"493 571 OFFCURVE",
"478 582 CURVE",
"423 588 OFFCURVE",
"417 521 OFFCURVE",
"421 489 CURVE SMOOTH",
"426 452 OFFCURVE",
"466 412 OFFCURVE",
"502 406 CURVE SMOOTH",
"610 389 OFFCURVE",
"696 507 OFFCURVE",
"654 615 CURVE SMOOTH",
"621 697 OFFCURVE",
"518 742 OFFCURVE",
"391 729 CURVE SMOOTH",
"185 710 OFFCURVE",
"54 529 OFFCURVE",
"72 292 CURVE SMOOTH",
"84 113 OFFCURVE",
"203 -15 OFFCURVE",
"370 -26 CURVE SMOOTH"
);
}
);
vertWidth = 1000;
width = 804;
}
);
note = cid00036;
unicode = 0043;
},
{
color = 3;
glyphname = D;
lastChange = "2021-01-02 15:09:44 +0000";
layers = (
{
hints = (
{
horizontal = 1;
place = "{-12, 21}";
target = up;
type = BottomGhost;
},
{
horizontal = 1;
place = "{609, 50}";
type = Stem;
},
{
place = "{178, 84}";
type = Stem;
},
{
place = "{601, 93}";
type = Stem;
}
);
layerId = "38E14F89-90D8-48C8-A96B-0BF2B2C9AEC9";
paths = (
{
closed = 1;
nodes = (
"451 -73 OFFCURVE",
"810 48 OFFCURVE",
"833 299 CURVE SMOOTH",
"861 602 OFFCURVE",
"604 753 OFFCURVE",
"303 724 CURVE SMOOTH",
"183 713 OFFCURVE",
"90 649 OFFCURVE",
"68 561 CURVE SMOOTH",
"37 432 OFFCURVE",
"160 409 OFFCURVE",
"265 397 CURVE",
"269 363 OFFCURVE",
"269 320 OFFCURVE",
"268 276 CURVE SMOOTH",
"268 251 OFFCURVE",
"267 206 OFFCURVE",
"266 194 CURVE SMOOTH",
"262 121 OFFCURVE",
"267 93 OFFCURVE",
"292 75 CURVE",
"324 94 OFFCURVE",
"329 106 OFFCURVE",
"325 192 CURVE SMOOTH",
"324 200 OFFCURVE",
"323 239 OFFCURVE",
"323 274 CURVE SMOOTH",
"322 322 OFFCURVE",
"321 369 OFFCURVE",
"330 401 CURVE",
"343 405 OFFCURVE",
"361 406 OFFCURVE",
"381 408 CURVE SMOOTH",
"427 411 OFFCURVE",
"486 416 OFFCURVE",
"478 451 CURVE SMOOTH",
"471 483 OFFCURVE",
"432 474 OFFCURVE",
"397 465 CURVE SMOOTH",
"370 459 OFFCURVE",
"344 453 OFFCURVE",
"326 461 CURVE",
"322 473 OFFCURVE",
"322 490 OFFCURVE",
"323 505 CURVE SMOOTH",
"324 530 OFFCURVE",
"326 557 OFFCURVE",
"296 557 CURVE SMOOTH",
"266 557 OFFCURVE",
"267 530 OFFCURVE",
"268 506 CURVE SMOOTH",
"269 480 OFFCURVE",
"268 467 OFFCURVE",
"262 458 CURVE",
"153 439 OFFCURVE",
"86 522 OFFCURVE",
"150 598 CURVE SMOOTH",
"214 673 OFFCURVE",
"350 679 OFFCURVE",
"454 666 CURVE SMOOTH",
"642 640 OFFCURVE",
"803 528 OFFCURVE",
"774 296 CURVE SMOOTH",
"749 92 OFFCURVE",
"444 -6 OFFCURVE",
"232 55 CURVE SMOOTH",
"226 57 OFFCURVE",
"218 61 OFFCURVE",
"211 66 CURVE SMOOTH",
"182 84 OFFCURVE",
"164 85 OFFCURVE",
"144 67 CURVE",
"137 32 OFFCURVE",
"150 27 OFFCURVE",
"204 9 CURVE SMOOTH"
);
}
);
vertWidth = 1000;
width = 905;
}
);
note = cid00037;
unicode = 0044;
},
{
glyphname = Eth;
lastChange = "2020-12-28 14:47:28 +0000";
layers = (
{
components = (
{
name = D;
}
);
hints = (
{
horizontal = 1;
place = "{1, 74}";
type = Stem;
},
{
horizontal = 1;
place = "{352, 52}";
type = Stem;
},
{
horizontal = 1;
place = "{648, 74}";
type = Stem;
},
{
place = "{150, 73}";
type = Stem;
},
{
place = "{626, 75}";
type = Stem;
},
{
place = "{45, 178}";
type = Stem;
},
{
horizontal = 1;
place = "{323, 56}";
type = Stem;
},
{
place = "{59, 463}";
type = Stem;
},
{
horizontal = 1;
place = "{-12, 21}";
target = up;
type = BottomGhost;
},
{
horizontal = 1;
place = "{609, 50}";
type = Stem;
},
{
place = "{178, 84}";
type = Stem;
},
{
place = "{601, 93}";
type = Stem;
}
);
layerId = "38E14F89-90D8-48C8-A96B-0BF2B2C9AEC9";
paths = (
{
closed = 1;
nodes = (
"172 224 OFFCURVE",
"266 240 OFFCURVE",
"352 249 CURVE SMOOTH",
"391 253 OFFCURVE",
"492 249 OFFCURVE",
"481 293 CURVE",
"474 305 OFFCURVE",
"420 306 OFFCURVE",
"393 304 CURVE SMOOTH",
"353 300 OFFCURVE",
"222 291 OFFCURVE",
"151 277 CURVE SMOOTH",
"109 269 OFFCURVE",
"99 248 OFFCURVE",
"98 219 CURVE"
);
}
);
vertWidth = 1000;
width = 905;
}
);
leftMetricsKey = D;
note = cid00179;
rightMetricsKey = D;
unicode = 00D0;
},
{
color = 3;
glyphname = E;
lastChange = "2021-01-02 15:09:44 +0000";
layers = (
{
hints = (
{
horizontal = 1;
place = "{4, 58}";
type = Stem;
},
{
horizontal = 1;
place = "{314, 54}";
type = Stem;
},
{
horizontal = 1;
place = "{431, 10}";
type = Stem;
},
{
horizontal = 1;
place = "{593, 54}";
type = Stem;
},
{
place = "{168, 78}";
type = Stem;
},
{
place = "{510.91, 51.09}";
type = Stem;
},
{
place = "{491, 57.5}";
type = Stem;
},
{
horizontal = 1;
place = "{636, 17}";
type = Stem;
}
);
layerId = "38E14F89-90D8-48C8-A96B-0BF2B2C9AEC9";
paths = (
{
closed = 1;
nodes = (
"491 -29 OFFCURVE",
"603 2 OFFCURVE",
"669 68 CURVE SMOOTH",
"686 85 OFFCURVE",
"705 111 OFFCURVE",
"715 131 CURVE SMOOTH",
"740 180 OFFCURVE",
"736 209 OFFCURVE",
"701 208 CURVE SMOOTH",
"685 207 OFFCURVE",
"674 192 OFFCURVE",
"655 150 CURVE SMOOTH",
"648 132 OFFCURVE",
"644 126 OFFCURVE",
"643 124 CURVE",
"593 62 OFFCURVE",
"488 27 OFFCURVE",
"386 28 CURVE SMOOTH",
"256 29 OFFCURVE",
"132 89 OFFCURVE",
"137 223 CURVE SMOOTH",
"140 307 OFFCURVE",
"208 371 OFFCURVE",
"297 373 CURVE SMOOTH",
"310 374 OFFCURVE",
"327 371 OFFCURVE",
"345 369 CURVE SMOOTH",
"434 356 OFFCURVE",
"465 363 OFFCURVE",
"472 411 CURVE",
"451 428 OFFCURVE",
"424 425 OFFCURVE",
"400 422 CURVE SMOOTH",
"389 421 OFFCURVE",
"377 419 OFFCURVE",
"366 420 CURVE SMOOTH",
"283 424 OFFCURVE",
"196 448 OFFCURVE",
"155 495 CURVE SMOOTH",
"72 594 OFFCURVE",
"222 679 OFFCURVE",
"334 679 CURVE SMOOTH",
"423 679 OFFCURVE",
"578 632 OFFCURVE",
"592 565 CURVE SMOOTH",
"594 557 OFFCURVE",
"593 550 OFFCURVE",
"590 538 CURVE SMOOTH",
"584 518 OFFCURVE",
"586 510 OFFCURVE",
"603 497 CURVE",
"608 496 LINE",
"686 510 OFFCURVE",
"648 601 OFFCURVE",
"616 634 CURVE SMOOTH",
"559 694 OFFCURVE",
"427 738 OFFCURVE",
"317 734 CURVE SMOOTH",
"174 728 OFFCURVE",
"64 641 OFFCURVE",
"74 537 CURVE SMOOTH",
"79 480 OFFCURVE",
"116 452 OFFCURVE",
"154 424 CURVE SMOOTH",
"169 413 OFFCURVE",
"177 406 OFFCURVE",
"186 399 CURVE",
"108 344 OFFCURVE",
"72 277 OFFCURVE",
"78 199 CURVE SMOOTH",
"89 55 OFFCURVE",
"233 -19 OFFCURVE",
"383 -25 CURVE SMOOTH"
);
}
);
vertWidth = 1000;
width = 751;
}
);
note = cid00038;
unicode = 0045;
},
{
color = 3;
glyphname = F;
lastChange = "2021-01-02 15:09:44 +0000";
layers = (
{
hints = (
{
horizontal = 1;
place = "{-3, 21}";
target = up;
type = BottomGhost;
},
{
horizontal = 1;
place = "{302, 51}";
type = Stem;
},
{
horizontal = 1;
place = "{430, 10}";
type = Stem;
},
{
horizontal = 1;
place = "{603, 48}";
type = Stem;
},
{
place = "{179, 75}";
type = Stem;
},
{
horizontal = 1;
place = "{-6, 24}";
type = Stem;
},
{
horizontal = 1;
place = "{-7, 63}";
type = Stem;
},
{
place = "{424, 78}";
type = Stem;
}
);
layerId = "38E14F89-90D8-48C8-A96B-0BF2B2C9AEC9";
paths = (
{
closed = 1;
nodes = (
"501 -46 OFFCURVE",
"523 199 OFFCURVE",
"561 356 CURVE",
"576 363 OFFCURVE",
"601 360 OFFCURVE",
"628 358 CURVE SMOOTH",
"667 354 OFFCURVE",
"713 350 OFFCURVE",
"715 384 CURVE SMOOTH",
"718 421 OFFCURVE",
"669 417 OFFCURVE",
"631 414 CURVE SMOOTH",
"593 410 OFFCURVE",
"580 411 OFFCURVE",
"574 417 CURVE",
"605 512 OFFCURVE",
"672 634 OFFCURVE",
"768 651 CURVE SMOOTH",
"783 654 OFFCURVE",
"797 653 OFFCURVE",
"810 653 CURVE SMOOTH",
"834 652 OFFCURVE",
"858 651 OFFCURVE",
"856 680 CURVE SMOOTH",
"853 711 OFFCURVE",
"789 709 OFFCURVE",
"738 707 CURVE SMOOTH",
"661 704 OFFCURVE",
"498 706 OFFCURVE",
"413 709 CURVE SMOOTH",
"285 714 OFFCURVE",
"142 719 OFFCURVE",
"80 684 CURVE SMOOTH",
"15 648 OFFCURVE",
"12 558 OFFCURVE",
"77 532 CURVE SMOOTH",
"102 523 OFFCURVE",
"175 510 OFFCURVE",
"184 561 CURVE",
"174 579 OFFCURVE",
"161 583 OFFCURVE",
"127 583 CURVE SMOOTH",
"104 582 OFFCURVE",
"88 582 OFFCURVE",
"86 603 CURVE SMOOTH",
"83 631 OFFCURVE",
"137 647 OFFCURVE",
"166 651 CURVE SMOOTH",
"265 662 OFFCURVE",
"438 654 OFFCURVE",
"559 647 CURVE SMOOTH",
"590 646 OFFCURVE",
"618 644 OFFCURVE",
"639 643 CURVE",
"578 584 OFFCURVE",
"539 494 OFFCURVE",
"501 413 CURVE",
"477 414 OFFCURVE",
"451 414 OFFCURVE",
"426 413 CURVE SMOOTH",
"385 412 OFFCURVE",
"345 412 OFFCURVE",
"310 416 CURVE",
"307 421 OFFCURVE",
"305 428 OFFCURVE",
"304 439 CURVE SMOOTH",
"303 450 OFFCURVE",
"302 464 OFFCURVE",
"279 466 CURVE SMOOTH",
"225 472 OFFCURVE",
"237 386 OFFCURVE",
"291 362 CURVE SMOOTH",
"325 349 OFFCURVE",
"363 353 OFFCURVE",
"398 357 CURVE SMOOTH",
"432 361 OFFCURVE",
"464 365 OFFCURVE",
"491 353 CURVE",
"484 214 OFFCURVE",
"435 12 OFFCURVE",
"275 24 CURVE SMOOTH",
"237 27 OFFCURVE",
"209 47 OFFCURVE",
"207 73 CURVE SMOOTH",
"206 84 OFFCURVE",
"208 92 OFFCURVE",
"216 105 CURVE SMOOTH",
"227 123 OFFCURVE",
"229 134 OFFCURVE",
"223 152 CURVE",
"168 168 OFFCURVE",
"135 117 OFFCURVE",
"148 51 CURVE SMOOTH",
"157 10 OFFCURVE",
"214 -26 OFFCURVE",
"273 -31 CURVE SMOOTH"
);
}
);
vertWidth = 1000;
width = 854;
}
);
note = cid00039;
unicode = 0046;
},
{
color = 3;
glyphname = G;
lastChange = "2021-01-02 15:09:44 +0000";
layers = (
{
hints = (
{
horizontal = 1;
place = "{-9, 49}";
type = Stem;
},
{
horizontal = 1;
place = "{264, 55}";
type = Stem;
},
{
horizontal = 1;
place = "{628, 43}";
type = Stem;
},
{
place = "{103, 87}";
type = Stem;
},
{
horizontal = 1;
place = "{628, 21}";
type = Stem;
},
{
horizontal = 1;
place = "{25, 15}";
type = Stem;
}
);
layerId = "38E14F89-90D8-48C8-A96B-0BF2B2C9AEC9";
paths = (
{
closed = 1;
nodes = (
"568 -132 OFFCURVE",
"581 97 OFFCURVE",
"604 253 CURVE SMOOTH",
"613 323 OFFCURVE",
"625 402 OFFCURVE",
"630 463 CURVE SMOOTH",
"632 487 OFFCURVE",
"641 524 OFFCURVE",
"614 531 CURVE SMOOTH",
"579 539 OFFCURVE",
"571 515 OFFCURVE",
"571 459 CURVE SMOOTH",
"570 445 OFFCURVE",
"572 428 OFFCURVE",
"566 407 CURVE SMOOTH",
"543 328 OFFCURVE",
"447 201 OFFCURVE",
"332 195 CURVE SMOOTH",
"214 189 OFFCURVE",
"142 265 OFFCURVE",
"142 390 CURVE SMOOTH",
"142 555 OFFCURVE",
"271 678 OFFCURVE",
"443 676 CURVE SMOOTH",
"502 676 OFFCURVE",
"557 662 OFFCURVE",
"600 634 CURVE SMOOTH",
"610 628 OFFCURVE",
"619 618 OFFCURVE",
"627 607 CURVE SMOOTH",
"645 588 OFFCURVE",
"661 566 OFFCURVE",
"699 565 CURVE",
"710 571 LINE",
"719 613 OFFCURVE",
"686 651 OFFCURVE",
"611 689 CURVE SMOOTH",
"367 818 OFFCURVE",
"102 655 OFFCURVE",
"84 427 CURVE SMOOTH",
"75 322 OFFCURVE",
"108 237 OFFCURVE",
"188 178 CURVE SMOOTH",
"294 98 OFFCURVE",
"444 159 OFFCURVE",
"510 229 CURVE SMOOTH",
"517 233 OFFCURVE",
"531 258 OFFCURVE",
"546 263 CURVE",
"542 243 OFFCURVE",
"540 221 OFFCURVE",
"536 198 CURVE SMOOTH",
"524 89 OFFCURVE",
"509 -32 OFFCURVE",
"413 -56 CURVE SMOOTH",
"358 -69 OFFCURVE",
"311 -53 OFFCURVE",
"299 -14 CURVE SMOOTH",
"295 -4 OFFCURVE",
"296 6 OFFCURVE",
"297 17 CURVE SMOOTH",
"298 34 OFFCURVE",
"299 52 OFFCURVE",
"285 65 CURVE",
"219 51 OFFCURVE",
"218 -31 OFFCURVE",
"275 -79 CURVE SMOOTH",
"287 -90 OFFCURVE",
"325 -107 OFFCURVE",
"359 -110 CURVE SMOOTH"
);
}
);
vertWidth = 1000;
width = 765;
}
);
note = cid00040;
unicode = 0047;
},
{
color = 3;
glyphname = H;
lastChange = "2021-01-02 15:09:44 +0000";
layers = (
{
hints = (
{
horizontal = 1;
place = "{0, 21}";
target = up;
type = BottomGhost;
},
{
horizontal = 1;
place = "{323, 49}";
type = Stem;
},
{
horizontal = 1;
place = "{601, 58}";
type = Stem;
},
{
place = "{173, 70}";
type = Stem;
},
{
place = "{484, 15}";
type = Stem;
},
{
place = "{571, 65}";
type = Stem;
},
{
horizontal = 1;
place = "{659, -20}";
target = down;
type = TopGhost;
},
{
horizontal = 1;
place = "{609, 45}";
type = Stem;
},
{
horizontal = 1;
place = "{10, 55.85}";
type = Stem;
},
{
horizontal = 1;
place = "{0, 71}";
type = Stem;
}
);
layerId = "38E14F89-90D8-48C8-A96B-0BF2B2C9AEC9";
paths = (
{
closed = 1;
nodes = (
"134 -49 OFFCURVE",
"148 -34 OFFCURVE",
"187 28 CURVE SMOOTH",
"251 130 OFFCURVE",
"276 269 OFFCURVE",
"302 393 CURVE",
"406 397 OFFCURVE",
"542 404 OFFCURVE",
"639 390 CURVE",
"640 336 OFFCURVE",
"658 180 OFFCURVE",
"664 132 CURVE SMOOTH",
"680 4 OFFCURVE",
"686 -34 OFFCURVE",
"717 -32 CURVE SMOOTH",
"744 -29 OFFCURVE",
"748 -5 OFFCURVE",
"737 52 CURVE SMOOTH",
"736 58 OFFCURVE",
"736 63 OFFCURVE",
"735 68 CURVE SMOOTH",
"719 174 OFFCURVE",
"697 291 OFFCURVE",
"706 395 CURVE",
"718 399 OFFCURVE",
"741 398 OFFCURVE",
"765 396 CURVE SMOOTH",
"808 394 OFFCURVE",
"860 390 OFFCURVE",
"853 427 CURVE SMOOTH",
"848 454 OFFCURVE",
"811 451 OFFCURVE",
"777 448 CURVE SMOOTH",
"730 444 OFFCURVE",
"712 446 OFFCURVE",
"702 460 CURVE",
"715 553 OFFCURVE",
"726 629 OFFCURVE",
"788 679 CURVE SMOOTH",
"816 702 OFFCURVE",
"856 734 OFFCURVE",
"803 754 CURVE",
"697 723 OFFCURVE",
"668 634 OFFCURVE",
"640 452 CURVE",
"535 448 OFFCURVE",
"400 441 OFFCURVE",
"303 455 CURVE",
"296 559 OFFCURVE",
"283 703 OFFCURVE",
"191 733 CURVE SMOOTH",
"169 741 OFFCURVE",
"61 752 OFFCURVE",
"85 690 CURVE",
"100 680 OFFCURVE",
"113 678 OFFCURVE",
"137 682 CURVE SMOOTH",
"150 684 OFFCURVE",
"156 684 OFFCURVE",
"163 682 CURVE SMOOTH",
"218 668 OFFCURVE",
"246 577 OFFCURVE",
"235 451 CURVE",
"202 446 OFFCURVE",
"161 446 OFFCURVE",
"131 454 CURVE",
"130 554 OFFCURVE",
"31 483 OFFCURVE",
"77 423 CURVE SMOOTH",
"97 399 OFFCURVE",
"134 398 OFFCURVE",
"167 398 CURVE SMOOTH",
"193 398 OFFCURVE",
"217 398 OFFCURVE",
"235 388 CURVE",
"220 260 OFFCURVE",
"195 148 OFFCURVE",
"143 62 CURVE SMOOTH",
"138 54 OFFCURVE",
"133 48 OFFCURVE",
"122 37 CURVE SMOOTH",
"105 19 OFFCURVE",
"85 -1 OFFCURVE",
"93 -32 CURVE"
);
}
);
vertWidth = 1000;
width = 914;
}
);
note = cid00041;
unicode = 0048;
},
{
color = 3;
glyphname = I;
lastChange = "2020-12-24 23:28:07 +0000";
layers = (
{
hints = (
{
horizontal = 1;
place = "{609, 49}";
type = Stem;
},
{
place = "{199, 73}";
type = Stem;
}
);
layerId = "38E14F89-90D8-48C8-A96B-0BF2B2C9AEC9";
paths = (
{
closed = 1;
nodes = (
"427 93 OFFCURVE",
"483 368 OFFCURVE",
"467 578 CURVE SMOOTH",
"459 689 OFFCURVE",
"391 857 OFFCURVE",
"280 762 CURVE SMOOTH",
"124 625 OFFCURVE",
"160 197 OFFCURVE",
"297 78 CURVE",
"241 -9 OFFCURVE",
"149 62 OFFCURVE",
"120 130 CURVE SMOOTH",
"117 138 OFFCURVE",
"114 149 OFFCURVE",
"112 160 CURVE SMOOTH",
"100 211 OFFCURVE",
"90 220 OFFCURVE",
"56 221 CURVE",
"37 197 OFFCURVE",
"39 164 OFFCURVE",
"63 110 CURVE SMOOTH",
"99 22 OFFCURVE",
"216 -66 OFFCURVE",
"318 10 CURVE SMOOTH"
);
},
{
closed = 1;
nodes = (
"216 244 OFFCURVE",
"191 640 OFFCURVE",
"334 725 CURVE SMOOTH",
"382 753 OFFCURVE",
"405 616 OFFCURVE",
"409 574 CURVE SMOOTH",
"420 404 OFFCURVE",
"389 232 OFFCURVE",
"328 130 CURVE"
);
}
);
vertWidth = 1000;
width = 563;
}
);
note = cid00042;
unicode = 0049;
},
{
color = 3;
glyphname = J;
lastChange = "2021-01-02 15:09:44 +0000";
layers = (
{
hints = (
{
horizontal = 1;
place = "{-8, 48}";
type = Stem;
},
{
horizontal = 1;
place = "{608, 52}";
type = Stem;
},
{
place = "{288, 70}";
type = Stem;
}
);
layerId = "38E14F89-90D8-48C8-A96B-0BF2B2C9AEC9";
paths = (
{
closed = 1;
nodes = (
"169 17 OFFCURVE",
"96 66 OFFCURVE",
"92 156 CURVE SMOOTH",
"90 203 OFFCURVE",
"108 248 OFFCURVE",
"143 287 CURVE SMOOTH",
"148 292 OFFCURVE",
"153 295 OFFCURVE",
"166 304 CURVE SMOOTH",
"187 317 OFFCURVE",
"212 332 OFFCURVE",
"206 365 CURVE",
"164 382 OFFCURVE",
"134 368 OFFCURVE",
"83 301 CURVE SMOOTH",
"48 256 OFFCURVE",
"30 203 OFFCURVE",
"33 152 CURVE SMOOTH",
"42 -28 OFFCURVE",
"308 -84 OFFCURVE",
"432 37 CURVE SMOOTH",
"509 112 OFFCURVE",
"514 239 OFFCURVE",
"519 372 CURVE SMOOTH",
"523 475 OFFCURVE",
"527 569 OFFCURVE",
"564 645 CURVE",
"577 650 OFFCURVE",
"603 648 OFFCURVE",
"632 646 CURVE SMOOTH",
"680 644 OFFCURVE",
"739 640 OFFCURVE",
"732 677 CURVE SMOOTH",
"727 702 OFFCURVE",
"678 700 OFFCURVE",
"641 699 CURVE SMOOTH",
"636 699 OFFCURVE",
"590 698 OFFCURVE",
"514 698 CURVE SMOOTH",
"411 697 OFFCURVE",
"304 696 OFFCURVE",
"236 702 CURVE",
"234 704 OFFCURVE",
"232 709 OFFCURVE",
"230 721 CURVE SMOOTH",
"228 736 OFFCURVE",
"224 758 OFFCURVE",
"194 751 CURVE",
"189 749 LINE",
"149 683 OFFCURVE",
"177 648 OFFCURVE",
"273 643 CURVE SMOOTH",
"301 642 OFFCURVE",
"333 643 OFFCURVE",
"363 644 CURVE SMOOTH",
"417 646 OFFCURVE",
"466 648 OFFCURVE",
"493 637 CURVE",
"468 562 OFFCURVE",
"465 479 OFFCURVE",
"462 388 CURVE SMOOTH",
"456 209 OFFCURVE",
"450 48 OFFCURVE",
"284 30 CURVE SMOOTH"
);
}
);
vertWidth = 1000;
width = 736;
}
);
note = cid00043;
unicode = 004A;
},
{
color = 3;
glyphname = K;
lastChange = "2021-01-02 15:09:44 +0000";
layers = (
{
hints = (
{
horizontal = 1;
place = "{0, 21}";
target = up;
type = BottomGhost;
},
{
horizontal = 1;
place = "{604, 53}";
type = Stem;
},
{
place = "{182, 70}";
type = Stem;
},
{
horizontal = 1;
place = "{600, 54}";
type = Stem;
},
{
horizontal = 1;
place = "{12, 42}";
type = Stem;
}
);
layerId = "38E14F89-90D8-48C8-A96B-0BF2B2C9AEC9";
paths = (
{
closed = 1;
nodes = (
"644 -30 OFFCURVE",
"709 -18 OFFCURVE",
"792 8 CURVE SMOOTH",
"820 17 OFFCURVE",
"859 27 OFFCURVE",
"864 64 CURVE",
"844 84 OFFCURVE",
"830 88 OFFCURVE",
"780 66 CURVE SMOOTH",
"738 47 OFFCURVE",
"687 32 OFFCURVE",
"649 38 CURVE SMOOTH",
"573 49 OFFCURVE",
"573 129 OFFCURVE",
"574 219 CURVE SMOOTH",
"575 286 OFFCURVE",
"575 358 OFFCURVE",
"540 407 CURVE SMOOTH",
"524 428 OFFCURVE",
"506 438 OFFCURVE",
"490 447 CURVE SMOOTH",
"477 454 OFFCURVE",
"465 460 OFFCURVE",
"452 473 CURVE",
"515 542 OFFCURVE",
"619 617 OFFCURVE",
"709 656 CURVE",
"714 659 OFFCURVE",
"720 661 OFFCURVE",
"736 666 CURVE SMOOTH",
"818 690 OFFCURVE",
"841 710 OFFCURVE",
"786 735 CURVE",
"611 699 OFFCURVE",
"477 585 OFFCURVE",
"367 474 CURVE",
"318 468 OFFCURVE",
"287 419 OFFCURVE",
"328 387 CURVE SMOOTH",
"355 378 OFFCURVE",
"371 390 OFFCURVE",
"385 401 CURVE SMOOTH",
"415 423 OFFCURVE",
"445 419 OFFCURVE",
"473 396 CURVE SMOOTH",
"515 363 OFFCURVE",
"515 292 OFFCURVE",
"515 217 CURVE SMOOTH",
"515 131 OFFCURVE",
"516 39 OFFCURVE",
"588 0 CURVE SMOOTH"
);
},
{
closed = 1;
nodes = (
"88 -28 OFFCURVE",
"107 -18 OFFCURVE",
"149 46 CURVE SMOOTH",
"169 79 OFFCURVE",
"184 121 OFFCURVE",
"198 157 CURVE SMOOTH",
"251 293 OFFCURVE",
"305 604 OFFCURVE",
"192 710 CURVE SMOOTH",
"162 737 OFFCURVE",
"23 770 OFFCURVE",
"42 693 CURVE",
"55 684 OFFCURVE",
"63 679 OFFCURVE",
"94 684 CURVE SMOOTH",
"105 686 OFFCURVE",
"114 688 OFFCURVE",
"124 685 CURVE SMOOTH",
"162 674 OFFCURVE",
"190 612 OFFCURVE",
"197 530 CURVE SMOOTH",
"211 355 OFFCURVE",
"162 182 OFFCURVE",
"96 77 CURVE SMOOTH",
"92 71 OFFCURVE",
"89 66 OFFCURVE",
"79 55 CURVE SMOOTH",
"50 21 OFFCURVE",
"43 4 OFFCURVE",
"55 -18 CURVE"
);
}
);
vertWidth = 1000;
width = 844;
}
);
note = cid00044;
unicode = 004B;
},
{
color = 3;
glyphname = L;
lastChange = "2021-01-02 15:09:44 +0000";
layers = (
{
hints = (
{
horizontal = 1;
place = "{1, 50}";
type = Stem;
},
{
horizontal = 1;
place = "{607.88, 51.13}";
type = Stem;
},
{
place = "{194, 76}";
type = Stem;
},
{
place = "{565, 14}";
type = Stem;
},
{
horizontal = 1;
place = "{666, -20}";
target = down;
type = TopGhost;
},
{
horizontal = 1;
place = "{611, 44}";
type = Stem;
}
);
layerId = "38E14F89-90D8-48C8-A96B-0BF2B2C9AEC9";
paths = (
{
closed = 1;
nodes = (
"574 -20 OFFCURVE",
"694 -24 OFFCURVE",
"746 51 CURVE SMOOTH",
"759 70 OFFCURVE",
"795 176 OFFCURVE",
"735 165 CURVE SMOOTH",
"719 162 OFFCURVE",
"713 149 OFFCURVE",
"707 114 CURVE SMOOTH",
"699 66 OFFCURVE",
"663 43 OFFCURVE",
"600 39 CURVE SMOOTH",
"485 28 OFFCURVE",
"333 39 OFFCURVE",
"222 47 CURVE",
"225 69 OFFCURVE",
"247 89 OFFCURVE",
"256 113 CURVE SMOOTH",
"284 181 OFFCURVE",
"297 270 OFFCURVE",
"309 358 CURVE SMOOTH",
"323 462 OFFCURVE",
"337 564 OFFCURVE",
"375 626 CURVE SMOOTH",
"417 696 OFFCURVE",
"541 701 OFFCURVE",
"545 601 CURVE SMOOTH",
"549 523 OFFCURVE",
"476 462 OFFCURVE",
"430 433 CURVE SMOOTH",
"424 430 OFFCURVE",
"418 427 OFFCURVE",
"405 423 CURVE SMOOTH",
"379 414 OFFCURVE",
"350 394 OFFCURVE",
"353 367 CURVE",
"381 346 OFFCURVE",
"399 353 OFFCURVE",
"458 389 CURVE SMOOTH",
"529 431 OFFCURVE",
"610 495 OFFCURVE",
"604 605 CURVE SMOOTH",
"597 729 OFFCURVE",
"444 765 OFFCURVE",
"369 707 CURVE SMOOTH",
"288 646 OFFCURVE",
"268 503 OFFCURVE",
"250 366 CURVE SMOOTH",
"231 227 OFFCURVE",
"212 94 OFFCURVE",
"137 54 CURVE SMOOTH",
"128 50 OFFCURVE",
"114 48 OFFCURVE",
"78 44 CURVE SMOOTH",
"39 40 OFFCURVE",
"-10 35 OFFCURVE",
"-10 13 CURVE SMOOTH",
"-10 -14 OFFCURVE",
"25 -13 OFFCURVE",
"50 -12 CURVE SMOOTH",
"122 -9 OFFCURVE",
"234 -12 OFFCURVE",
"246 -12 CURVE SMOOTH",
"306 -12 OFFCURVE",
"379 -13 OFFCURVE",
"437 -15 CURVE SMOOTH"
);
}
);
vertWidth = 1000;
width = 799;
}
);
note = cid00045;
unicode = 004C;
},
{
glyphname = Lslash;
lastChange = "2020-12-28 09:24:40 +0000";
layers = (
{
components = (
{
name = L;
}
);
hints = (
{
horizontal = 1;
place = "{1, 72}";
type = Stem;
},
{
place = "{163, 75}";
type = Stem;
}
);
layerId = "38E14F89-90D8-48C8-A96B-0BF2B2C9AEC9";
paths = (
{
closed = 1;
nodes = (
"74 167 OFFCURVE",
"99 176 OFFCURVE",
"121 181 CURVE",
"172 200 OFFCURVE",
"224 214 OFFCURVE",
"281 231 CURVE SMOOTH",
"346 251 OFFCURVE",
"398 265 OFFCURVE",
"445 277 CURVE",
"492 278 OFFCURVE",
"513 294 OFFCURVE",
"513 315 CURVE",
"505 323 OFFCURVE",
"484 332 OFFCURVE",
"448 323 CURVE SMOOTH",
"367 302 OFFCURVE",
"237 265 OFFCURVE",
"143 238 CURVE SMOOTH",
"118 231 OFFCURVE",
"76 217 OFFCURVE",
"57 203 CURVE SMOOTH",
"43 191 OFFCURVE",
"39 180 OFFCURVE",
"53 164 CURVE"
);
}
);
vertWidth = 1000;
width = 799;
}
);
leftMetricsKey = L;
note = cid00141;
rightMetricsKey = L;
unicode = 0141;
},
{
color = 3;
glyphname = M;
lastChange = "2021-01-02 15:09:44 +0000";
layers = (
{
hints = (
{
horizontal = 1;
place = "{2, 55}";
type = Stem;
},
{
horizontal = 1;
place = "{606, 56}";
type = Stem;
},
{
place = "{92, 7}";
type = Stem;
},
{
place = "{175, 56}";
type = Stem;
},
{
place = "{697, 67}";
type = Stem;
},
{
horizontal = 1;
place = "{-1, 59}";
type = Stem;
},
{
horizontal = 1;
place = "{602, 57}";
type = Stem;
},
{
place = "{168, 48}";
type = Stem;
}
);
layerId = "38E14F89-90D8-48C8-A96B-0BF2B2C9AEC9";
paths = (
{
closed = 1;
nodes = (
"79 -117 OFFCURVE",
"116 -54 OFFCURVE",
"144 -13 CURVE SMOOTH",
"244 138 OFFCURVE",
"251 422 OFFCURVE",
"251 645 CURVE",
"369 539 OFFCURVE",
"430 347 OFFCURVE",
"490 176 CURVE SMOOTH",
"492 171 OFFCURVE",
"495 160 OFFCURVE",
"499 147 CURVE SMOOTH",
"528 41 OFFCURVE",
"548 -4 OFFCURVE",
"575 1 CURVE SMOOTH",
"595 5 OFFCURVE",
"604 37 OFFCURVE",
"614 124 CURVE SMOOTH",
"615 136 OFFCURVE",
"617 147 OFFCURVE",
"618 156 CURVE SMOOTH",
"645 319 OFFCURVE",
"677 490 OFFCURVE",
"756 591 CURVE SMOOTH",
"801 648 OFFCURVE",
"847 668 OFFCURVE",
"906 652 CURVE",
"905 617 OFFCURVE",
"901 573 OFFCURVE",
"896 523 CURVE SMOOTH",
"891 467 OFFCURVE",
"885 404 OFFCURVE",
"882 341 CURVE SMOOTH",
"875 176 OFFCURVE",
"865 -44 OFFCURVE",
"1036 -19 CURVE SMOOTH",
"1077 -13 OFFCURVE",
"1180 30 OFFCURVE",
"1161 82 CURVE",
"1155 85 LINE",
"1123 89 OFFCURVE",
"1099 73 OFFCURVE",
"1077 58 CURVE SMOOTH",
"1050 39 OFFCURVE",
"1025 23 OFFCURVE",
"989 36 CURVE SMOOTH",
"954 48 OFFCURVE",
"950 109 OFFCURVE",
"945 166 CURVE SMOOTH",
"933 297 OFFCURVE",
"947 441 OFFCURVE",
"958 559 CURVE SMOOTH",
"963 607 OFFCURVE",
"967 651 OFFCURVE",
"969 688 CURVE",
"966 692 LINE",
"921 726 OFFCURVE",
"828 715 OFFCURVE",
"792 696 CURVE SMOOTH",
"663 632 OFFCURVE",
"617 435 OFFCURVE",
"578 269 CURVE SMOOTH",
"571 237 OFFCURVE",
"564 205 OFFCURVE",
"556 177 CURVE",
"537 219 OFFCURVE",
"520 266 OFFCURVE",
"502 314 CURVE SMOOTH",
"482 369 OFFCURVE",
"461 426 OFFCURVE",
"434 482 CURVE SMOOTH",
"392 570 OFFCURVE",
"322 719 OFFCURVE",
"207 725 CURVE SMOOTH",
"205 725 LINE",
"196 722 OFFCURVE",
"190 716 OFFCURVE",
"188 708 CURVE",
"190 387 OFFCURVE",
"200 104 OFFCURVE",
"43 -43 CURVE SMOOTH",
"16 -69 OFFCURVE",
"-3 -76 OFFCURVE",
"8 -110 CURVE",
"15 -113 LINE"
);
}
);
vertWidth = 1000;
width = 1163;
}
);
note = cid00046;
unicode = 004D;
},
{
color = 3;
glyphname = N;
lastChange = "2021-01-02 15:09:44 +0000";
layers = (
{
hints = (
{
horizontal = 1;
place = "{608, 54}";
type = Stem;
},
{
place = "{106, 12}";
type = Stem;
},
{
place = "{178, 44}";
type = Stem;
},
{
place = "{609, 48}";
type = Stem;
},
{
horizontal = 1;
place = "{602, 53}";
type = Stem;
}
);
layerId = "38E14F89-90D8-48C8-A96B-0BF2B2C9AEC9";
paths = (
{
closed = 1;
nodes = (
"123 -103 OFFCURVE",
"167 -65 OFFCURVE",
"174 -56 CURVE SMOOTH",
"236 18 OFFCURVE",
"227 149 OFFCURVE",
"219 279 CURVE SMOOTH",
"212 373 OFFCURVE",
"206 466 OFFCURVE",
"226 538 CURVE",
"372 384 OFFCURVE",
"519 213 OFFCURVE",
"628 26 CURVE SMOOTH",
"652 -13 OFFCURVE",
"660 -42 OFFCURVE",
"694 -49 CURVE",
"700 -47 LINE",
"717 -29 OFFCURVE",
"720 -7 OFFCURVE",
"713 43 CURVE SMOOTH",
"712 51 OFFCURVE",
"711 59 OFFCURVE",
"710 66 CURVE SMOOTH",
"687 364 OFFCURVE",
"724 611 OFFCURVE",
"811 732 CURVE SMOOTH",
"816 740 OFFCURVE",
"821 745 OFFCURVE",
"833 757 CURVE SMOOTH",
"849 773 OFFCURVE",
"868 791 OFFCURVE",
"869 817 CURVE",
"867 821 LINE",
"853 835 OFFCURVE",
"836 837 OFFCURVE",
"822 825 CURVE SMOOTH",
"696 726 OFFCURVE",
"636 487 OFFCURVE",
"643 129 CURVE",
"606 172 OFFCURVE",
"568 220 OFFCURVE",
"527 270 CURVE SMOOTH",
"501 304 OFFCURVE",
"474 338 OFFCURVE",
"443 375 CURVE SMOOTH",
"431 390 OFFCURVE",
"417 408 OFFCURVE",
"403 426 CURVE SMOOTH",
"383 451 OFFCURVE",
"362 477 OFFCURVE",
"337 505 CURVE SMOOTH",
"330 514 OFFCURVE",
"317 526 OFFCURVE",
"305 538 CURVE SMOOTH",
"272 569 OFFCURVE",
"234 605 OFFCURVE",
"233 633 CURVE SMOOTH",
"232 652 OFFCURVE",
"244 662 OFFCURVE",
"258 674 CURVE SMOOTH",
"287 700 OFFCURVE",
"288 708 OFFCURVE",
"278 728 CURVE",
"238 746 OFFCURVE",
"203 723 OFFCURVE",
"179 663 CURVE SMOOTH",
"146 583 OFFCURVE",
"153 457 OFFCURVE",
"161 331 CURVE SMOOTH",
"169 194 OFFCURVE",
"177 58 OFFCURVE",
"134 -13 CURVE SMOOTH",
"121 -36 OFFCURVE",
"94 -57 OFFCURVE",
"64 -68 CURVE SMOOTH",
"62 -69 OFFCURVE",
"59 -70 OFFCURVE",
"45 -72 CURVE SMOOTH",
"13 -76 OFFCURVE",
"-45 -83 OFFCURVE",
"-42 -110 CURVE SMOOTH",
"-40 -142 OFFCURVE",
"13 -143 OFFCURVE",
"81 -119 CURVE SMOOTH"
);
}
);
vertWidth = 1000;
width = 845;
}
);
note = cid00047;
unicode = 004E;
},
{
color = 3;
glyphname = O;
lastChange = "2020-12-24 23:28:07 +0000";
layers = (
{
hints = (
{
horizontal = 1;
place = "{-13, 49}";
type = Stem;
},
{
horizontal = 1;
place = "{629, 47}";
type = Stem;
},
{
place = "{83, 92}";
type = Stem;
},
{
place = "{602, 83}";
type = Stem;
}
);
layerId = "38E14F89-90D8-48C8-A96B-0BF2B2C9AEC9";
paths = (
{
closed = 1;
nodes = (
"594 -46 OFFCURVE",
"766 107 OFFCURVE",
"782 324 CURVE SMOOTH",
"797 548 OFFCURVE",
"679 722 OFFCURVE",
"498 741 CURVE SMOOTH",
"410 751 OFFCURVE",
"377 730 OFFCURVE",
"327 703 CURVE",
"259 757 OFFCURVE",
"156 634 OFFCURVE",
"128 593 CURVE SMOOTH",
"-27 362 OFFCURVE",
"103 -13 OFFCURVE",
"383 -32 CURVE SMOOTH"
);
},
{
closed = 1;
nodes = (
"100 51 OFFCURVE",
"23 526 OFFCURVE",
"264 644 CURVE",
"230 566 OFFCURVE",
"229 492 OFFCURVE",
"263 436 CURVE SMOOTH",
"279 410 OFFCURVE",
"312 375 OFFCURVE",
"343 357 CURVE SMOOTH",
"372 340 OFFCURVE",
"426 313 OFFCURVE",
"460 341 CURVE",
"463 346 LINE",
"458 379 OFFCURVE",
"428 387 OFFCURVE",
"404 393 CURVE SMOOTH",
"390 397 OFFCURVE",
"385 399 OFFCURVE",
"378 402 CURVE SMOOTH",
"346 420 OFFCURVE",
"305 456 OFFCURVE",
"296 501 CURVE SMOOTH",
"275 611 OFFCURVE",
"370 701 OFFCURVE",
"492 687 CURVE SMOOTH",
"644 668 OFFCURVE",
"740 518 OFFCURVE",
"723 324 CURVE SMOOTH",
"708 160 OFFCURVE",
"581 2 OFFCURVE",
"376 23 CURVE SMOOTH"
);
}
);
vertWidth = 1000;
width = 852;
}
);
note = cid00048;
unicode = 004F;
},
{
glyphname = Oslash;
lastChange = "2020-12-28 09:24:53 +0000";
layers = (
{
components = (
{
name = O;
}
);
hints = (
{
horizontal = 1;
place = "{-9, 77}";
type = Stem;
},
{
horizontal = 1;
place = "{649, 77}";
type = Stem;
},
{
place = "{78, 76}";
type = Stem;
},
{
place = "{616, 76}";
type = Stem;
},
{
horizontal = 1;
place = "{-9, 21}";
target = up;
type = BottomGhost;
}
);
layerId = "38E14F89-90D8-48C8-A96B-0BF2B2C9AEC9";
paths = (
{
closed = 1;
nodes = (
"264 -33 OFFCURVE",
"285 -3 OFFCURVE",
"299 31 CURVE SMOOTH",
"357 172 OFFCURVE",
"559 515 OFFCURVE",
"618 632 CURVE SMOOTH",
"651 696 OFFCURVE",
"643 724 OFFCURVE",
"623 727 CURVE SMOOTH",
"592 732 OFFCURVE",
"580 706 OFFCURVE",
"580 676 CURVE",
"510 542 LINE",
"417 373 OFFCURVE",
"317 190 OFFCURVE",
"252 46 CURVE SMOOTH",
"231 0 OFFCURVE",
"232 -34 OFFCURVE",
"249 -33 CURVE SMOOTH"
);
}
);
vertWidth = 1000;
width = 852;
}
);
leftMetricsKey = O;
note = cid00142;
rightMetricsKey = O;
unicode = 00D8;
},
{
color = 3;
glyphname = P;
lastChange = "2021-01-02 15:09:44 +0000";
layers = (
{
hints = (
{
horizontal = 1;
place = "{3, 44}";
type = Stem;
},
{
horizontal = 1;
place = "{607, 53}";
type = Stem;
},
{
place = "{179, 71}";
type = Stem;
},
{
place = "{492, 83}";
type = Stem;
},
{
horizontal = 1;
place = "{272, 49}";
type = Stem;
},
{
horizontal = 1;
place = "{607, 47}";
type = Stem;
}
);
layerId = "38E14F89-90D8-48C8-A96B-0BF2B2C9AEC9";
paths = (
{
closed = 1;
nodes = (
"347 -54 OFFCURVE",
"354 -13 OFFCURVE",
"349 89 CURVE SMOOTH",
"348 107 OFFCURVE",
"348 169 OFFCURVE",
"347 267 CURVE SMOOTH",
"347 413 OFFCURVE",
"346 558 OFFCURVE",
"352 687 CURVE",
"550 699 OFFCURVE",
"677 651 OFFCURVE",
"722 547 CURVE SMOOTH",
"780 412 OFFCURVE",
"662 259 OFFCURVE",
"513 276 CURVE SMOOTH",
"500 278 OFFCURVE",
"487 284 OFFCURVE",
"475 291 CURVE SMOOTH",
"455 302 OFFCURVE",
"432 315 OFFCURVE",
"406 296 CURVE",
"403 291 LINE",
"417 244 OFFCURVE",
"462 221 OFFCURVE",
"536 221 CURVE SMOOTH",
"681 222 OFFCURVE",
"801 343 OFFCURVE",
"796 483 CURVE SMOOTH",
"791 652 OFFCURVE",
"619 736 OFFCURVE",
"444 744 CURVE SMOOTH",
"326 750 OFFCURVE",
"206 722 OFFCURVE",
"133 663 CURVE SMOOTH",
"83 623 OFFCURVE",
"17 559 OFFCURVE",
"32 474 CURVE SMOOTH",
"38 435 OFFCURVE",
"97 369 OFFCURVE",
"145 402 CURVE",
"155 417 OFFCURVE",
"144 433 OFFCURVE",
"115 454 CURVE SMOOTH",
"99 466 OFFCURVE",
"93 474 OFFCURVE",
"91 493 CURVE SMOOTH",
"82 583 OFFCURVE",
"196 655 OFFCURVE",
"282 673 CURVE",
"292 549 OFFCURVE",
"291 396 OFFCURVE",
"290 251 CURVE SMOOTH",
"289 166 OFFCURVE",
"289 108 OFFCURVE",
"288 91 CURVE SMOOTH",
"283 -9 OFFCURVE",
"288 -50 OFFCURVE",
"316 -52 CURVE SMOOTH"
);
}
);
vertWidth = 1000;
width = 846;
}
);
note = cid00049;
unicode = 0050;
},
{
glyphname = Thorn;
lastChange = "2020-12-28 14:50:32 +0000";
layers = (
{
hints = (
{
horizontal = 1;
place = "{0, 21}";
target = up;
type = BottomGhost;
},
{
horizontal = 1;
place = "{180, 70}";
type = Stem;
},
{
horizontal = 1;
place = "{501, 70}";
type = Stem;
},
{
horizontal = 1;
place = "{721, -20}";
target = down;
type = TopGhost;
},
{
place = "{111, 72}";
type = Stem;
},
{
place = "{473, 71}";
type = Stem;
}
);
layerId = "38E14F89-90D8-48C8-A96B-0BF2B2C9AEC9";
paths = (
{
closed = 1;
nodes = (
"362 3 OFFCURVE",
"422 -6 OFFCURVE",
"429 23 CURVE",
"411 51 OFFCURVE",
"349 54 OFFCURVE",
"316 63 CURVE SMOOTH",
"285 71 OFFCURVE",
"286 100 OFFCURVE",
"284 128 CURVE SMOOTH",
"275 262 OFFCURVE",
"273 444 OFFCURVE",
"279 578 CURVE SMOOTH",
"282 638 OFFCURVE",
"292 652 OFFCURVE",
"324 659 CURVE SMOOTH",
"354 666 OFFCURVE",
"411 675 OFFCURVE",
"411 704 CURVE",
"388 725 OFFCURVE",
"261 712 OFFCURVE",
"200 712 CURVE SMOOTH",
"165 712 OFFCURVE",
"118 713 OFFCURVE",
"117 681 CURVE",
"133 653 OFFCURVE",
"166 666 OFFCURVE",
"195 654 CURVE SMOOTH",
"221 643 OFFCURVE",
"223 598 OFFCURVE",
"223 526 CURVE SMOOTH",
"223 405 OFFCURVE",
"226 182 OFFCURVE",
"226 123 CURVE SMOOTH",
"226 85 OFFCURVE",
"208 69 OFFCURVE",
"187 62 CURVE SMOOTH",
"151 50 OFFCURVE",
"109 45 OFFCURVE",
"110 8 CURVE",
"133 1 OFFCURVE",
"163 5 OFFCURVE",
"202 8 CURVE SMOOTH",
"236 11 OFFCURVE",
"284 11 OFFCURVE",
"322 7 CURVE SMOOTH"
);
},
{
closed = 1;
nodes = (
"477 178 OFFCURVE",
"656 207 OFFCURVE",
"670 382 CURVE SMOOTH",
"682 537 OFFCURVE",
"528 619 OFFCURVE",
"341 560 CURVE SMOOTH",
"287 543 OFFCURVE",
"271 515 OFFCURVE",
"281 490 CURVE",
"304 490 OFFCURVE",
"319 509 OFFCURVE",
"337 515 CURVE SMOOTH",
"505 571 OFFCURVE",
"613 514 OFFCURVE",
"609 394 CURVE SMOOTH",
"604 232 OFFCURVE",
"454 226 OFFCURVE",
"318 236 CURVE SMOOTH",
"284 238 OFFCURVE",
"256 199 OFFCURVE",
"328 192 CURVE SMOOTH"
);
}
);
vertWidth = 1000;
width = 761;
}
);
note = cid00192;
unicode = 00DE;
},
{
color = 3;
glyphname = Q;
lastChange = "2020-12-24 23:28:07 +0000";
layers = (
{
hints = (
{
horizontal = 1;
place = "{-67, 66}";
type = Stem;
},
{
horizontal = 1;
place = "{154, 57}";
type = Stem;
},
{
horizontal = 1;
place = "{638, 44}";
type = Stem;
},
{
place = "{89, 89}";
type = Stem;
},
{
place = "{599, 95}";
type = Stem;
},
{
horizontal = 1;
place = "{-6, 37}";
type = Stem;
}
);
layerId = "38E14F89-90D8-48C8-A96B-0BF2B2C9AEC9";
paths = (
{
closed = 1;
nodes = (
"257 -65 OFFCURVE",
"307 -48 OFFCURVE",
"351 -34 CURVE SMOOTH",
"380 -24 OFFCURVE",
"406 -16 OFFCURVE",
"428 -15 CURVE SMOOTH",
"442 -14 OFFCURVE",
"464 -21 OFFCURVE",
"488 -28 CURVE SMOOTH",
"501 -33 OFFCURVE",
"515 -37 OFFCURVE",
"528 -40 CURVE SMOOTH",
"592 -54 OFFCURVE",
"668 -67 OFFCURVE",
"747 -60 CURVE SMOOTH",
"786 -57 OFFCURVE",
"849 -53 OFFCURVE",
"851 -6 CURVE",
"849 -2 LINE",
"829 17 OFFCURVE",
"801 10 OFFCURVE",
"775 3 CURVE SMOOTH",
"762 -1 OFFCURVE",
"750 -4 OFFCURVE",
"737 -5 CURVE SMOOTH",
"659 -12 OFFCURVE",
"571 0 OFFCURVE",
"516 24 CURVE",
"631 107 OFFCURVE",
"738 220 OFFCURVE",
"737 410 CURVE SMOOTH",
"736 608 OFFCURVE",
"608 790 OFFCURVE",
"370 766 CURVE SMOOTH",
"189 747 OFFCURVE",
"69 607 OFFCURVE",
"70 418 CURVE SMOOTH",
"70 255 OFFCURVE",
"177 126 OFFCURVE",
"321 116 CURVE SMOOTH",
"389 110 OFFCURVE",
"453 130 OFFCURVE",
"494 170 CURVE SMOOTH",
"537 210 OFFCURVE",
"554 254 OFFCURVE",
"536 286 CURVE",
"501 303 OFFCURVE",
"493 279 OFFCURVE",
"469 238 CURVE SMOOTH",
"447 203 OFFCURVE",
"406 176 OFFCURVE",
"370 170 CURVE SMOOTH",
"205 149 OFFCURVE",
"121 306 OFFCURVE",
"129 443 CURVE SMOOTH",
"136 570 OFFCURVE",
"226 697 OFFCURVE",
"380 711 CURVE SMOOTH",
"666 737 OFFCURVE",
"758 375 OFFCURVE",
"601 177 CURVE SMOOTH",
"571 138 OFFCURVE",
"483 51 OFFCURVE",
"424 48 CURVE SMOOTH",
"400 47 OFFCURVE",
"374 57 OFFCURVE",
"344 68 CURVE SMOOTH",
"304 83 OFFCURVE",
"258 101 OFFCURVE",
"202 97 CURVE SMOOTH",
"72 88 OFFCURVE",
"73 -49 OFFCURVE",
"202 -60 CURVE SMOOTH"
);
},
{
closed = 1;
nodes = (
"184 63 OFFCURVE",
"277 38 OFFCURVE",
"320 18 CURVE",
"286 -10 OFFCURVE",
"191 -17 OFFCURVE",
"163 15 CURVE"
);
}
);
vertWidth = 1000;
width = 861;
}
);
note = cid00050;
unicode = 0051;
},
{
color = 3;
glyphname = R;
lastChange = "2021-01-02 15:09:44 +0000";
layers = (
{
hints = (
{
horizontal = 1;
place = "{304, 38}";
type = Stem;
},
{
horizontal = 1;
place = "{611, 45}";
type = Stem;
},
{
place = "{177, 71}";
type = Stem;
},
{
place = "{485, 91}";
type = Stem;
}
);
layerId = "38E14F89-90D8-48C8-A96B-0BF2B2C9AEC9";
paths = (
{
closed = 1;
nodes = (
"802 -78 OFFCURVE",
"880 -102 OFFCURVE",
"869 -50 CURVE SMOOTH",
"866 -33 OFFCURVE",
"824 -24 OFFCURVE",
"795 -17 CURVE SMOOTH",
"610 30 OFFCURVE",
"487 133 OFFCURVE",
"387 252 CURVE",
"549 293 OFFCURVE",
"714 354 OFFCURVE",
"710 541 CURVE SMOOTH",
"707 704 OFFCURVE",
"495 766 OFFCURVE",
"331 754 CURVE SMOOTH",
"177 743 OFFCURVE",
"65 653 OFFCURVE",
"52 530 CURVE SMOOTH",
"40 421 OFFCURVE",
"79 341 OFFCURVE",
"145 348 CURVE",
"158 360 OFFCURVE",
"151 377 OFFCURVE",
"128 420 CURVE SMOOTH",
"116 441 OFFCURVE",
"105 460 OFFCURVE",
"106 496 CURVE SMOOTH",
"107 547 OFFCURVE",
"131 602 OFFCURVE",
"166 635 CURVE SMOOTH",
"278 745 OFFCURVE",
"587 711 OFFCURVE",
"640 584 CURVE SMOOTH",
"705 424 OFFCURVE",
"509 334 OFFCURVE",
"392 314 CURVE SMOOTH",
"382 312 OFFCURVE",
"373 312 OFFCURVE",
"362 311 CURVE SMOOTH",
"319 309 OFFCURVE",
"301 306 OFFCURVE",
"292 287 CURVE",
"301 230 OFFCURVE",
"356 191 OFFCURVE",
"396 154 CURVE SMOOTH",
"502 57 OFFCURVE",
"618 -30 OFFCURVE",
"779 -72 CURVE SMOOTH"
);
},
{
closed = 1;
nodes = (
"273 -23 OFFCURVE",
"278 9 OFFCURVE",
"275 92 CURVE SMOOTH",
"274 106 OFFCURVE",
"274 278 OFFCURVE",
"274 431 CURVE SMOOTH",
"274 442 OFFCURVE",
"275 454 OFFCURVE",
"275 466 CURVE SMOOTH",
"279 548 OFFCURVE",
"276 579 OFFCURVE",
"244 583 CURVE",
"236 579 OFFCURVE",
"232 578 OFFCURVE",
"227 571 CURVE",
"216 522 OFFCURVE",
"217 438 OFFCURVE",
"218 349 CURVE SMOOTH",
"219 322 OFFCURVE",
"219 295 OFFCURVE",
"219 268 CURVE SMOOTH",
"219 200 OFFCURVE",
"219 113 OFFCURVE",
"218 93 CURVE SMOOTH",
"213 11 OFFCURVE",
"218 -23 OFFCURVE",
"246 -23 CURVE SMOOTH"
);
}
);
vertWidth = 1000;
width = 813;
}
);
note = cid00051;
unicode = 0052;
},
{
color = 3;
glyphname = S;
lastChange = "2021-01-02 15:09:44 +0000";
layers = (
{
hints = (
{
horizontal = 1;
place = "{-6, 39}";
type = Stem;
},
{
horizontal = 1;
place = "{627, 42}";
type = Stem;
},
{
place = "{118, 65}";
type = Stem;
},
{
place = "{447, 75}";
type = Stem;
},
{
place = "{439, 57}";
type = Stem;
},
{
horizontal = 1;
place = "{674, -20}";
target = down;
type = TopGhost;
},
{
place = "{107, 22}";
type = Stem;
}
);
layerId = "38E14F89-90D8-48C8-A96B-0BF2B2C9AEC9";
paths = (
{
closed = 1;
nodes = (
"496 -28 OFFCURVE",
"606 34 OFFCURVE",
"643 113 CURVE SMOOTH",
"681 191 OFFCURVE",
"671 250 OFFCURVE",
"637 294 CURVE SMOOTH",
"580 366 OFFCURVE",
"457 402 OFFCURVE",
"365 426 CURVE SMOOTH",
"293 445 OFFCURVE",
"165 470 OFFCURVE",
"154 532 CURVE SMOOTH",
"134 638 OFFCURVE",
"261 685 OFFCURVE",
"359 685 CURVE SMOOTH",
"433 685 OFFCURVE",
"531 651 OFFCURVE",
"532 600 CURVE SMOOTH",
"532 583 OFFCURVE",
"521 573 OFFCURVE",
"507 560 CURVE SMOOTH",
"476 532 OFFCURVE",
"470 515 OFFCURVE",
"484 488 CURVE",
"506 479 OFFCURVE",
"518 479 OFFCURVE",
"542 513 CURVE SMOOTH",
"550 526 OFFCURVE",
"556 533 OFFCURVE",
"567 544 CURVE SMOOTH",
"582 560 OFFCURVE",
"598 577 OFFCURVE",
"599 596 CURVE SMOOTH",
"599 621 OFFCURVE",
"565 669 OFFCURVE",
"530 694 CURVE SMOOTH",
"450 753 OFFCURVE",
"303 752 OFFCURVE",
"201 703 CURVE SMOOTH",
"124 665 OFFCURVE",
"73 599 OFFCURVE",
"99 510 CURVE SMOOTH",
"124 424 OFFCURVE",
"241 398 OFFCURVE",
"353 372 CURVE SMOOTH",
"419 357 OFFCURVE",
"484 342 OFFCURVE",
"531 315 CURVE SMOOTH",
"595 277 OFFCURVE",
"619 213 OFFCURVE",
"593 145 CURVE SMOOTH",
"542 11 OFFCURVE",
"257 -28 OFFCURVE",
"160 85 CURVE SMOOTH",
"130 123 OFFCURVE",
"121 182 OFFCURVE",
"141 214 CURVE SMOOTH",
"147 225 OFFCURVE",
"154 229 OFFCURVE",
"170 235 CURVE SMOOTH",
"208 250 OFFCURVE",
"223 257 OFFCURVE",
"215 291 CURVE",
"133 325 OFFCURVE",
"76 233 OFFCURVE",
"71 181 CURVE SMOOTH",
"57 45 OFFCURVE",
"197 -51 OFFCURVE",
"385 -37 CURVE SMOOTH"
);
}
);
vertWidth = 1000;
width = 729;
}
);
note = cid00052;
unicode = 0053;
},
{
color = 3;
glyphname = T;
lastChange = "2021-01-02 15:09:44 +0000";
layers = (
{
hints = (
{
horizontal = 1;
place = "{3, 65}";
type = Stem;
},
{
horizontal = 1;
place = "{476, -20}";
target = down;
type = TopGhost;
},
{
horizontal = 1;
place = "{598, 57}";
type = Stem;
},
{
place = "{310, 79}";
type = Stem;
},
{
place = "{611, 15}";
type = Stem;
},
{
horizontal = 1;
place = "{601, 48}";
type = Stem;
}
);
layerId = "38E14F89-90D8-48C8-A96B-0BF2B2C9AEC9";
paths = (
{
closed = 1;
nodes = (
"431 -55 OFFCURVE",
"517 11 OFFCURVE",
"555 71 CURVE SMOOTH",
"608 155 OFFCURVE",
"610 264 OFFCURVE",
"613 384 CURVE SMOOTH",
"614 422 OFFCURVE",
"615 460 OFFCURVE",
"617 499 CURVE SMOOTH",
"621 557 OFFCURVE",
"627 641 OFFCURVE",
"673 653 CURVE SMOOTH",
"693 658 OFFCURVE",
"723 657 OFFCURVE",
"756 655 CURVE SMOOTH",
"774 654 OFFCURVE",
"824 653 OFFCURVE",
"831 652 CURVE SMOOTH",
"869 650 OFFCURVE",
"935 647 OFFCURVE",
"931 682 CURVE SMOOTH",
"929 711 OFFCURVE",
"889 707 OFFCURVE",
"859 708 CURVE SMOOTH",
"661 713 OFFCURVE",
"411 721 OFFCURVE",
"238 708 CURVE SMOOTH",
"121 699 OFFCURVE",
"-8 623 OFFCURVE",
"58 489 CURVE SMOOTH",
"86 429 OFFCURVE",
"185 385 OFFCURVE",
"273 392 CURVE SMOOTH",
"308 395 OFFCURVE",
"387 406 OFFCURVE",
"385 466 CURVE",
"372 475 OFFCURVE",
"357 478 OFFCURVE",
"313 462 CURVE SMOOTH",
"296 455 OFFCURVE",
"278 448 OFFCURVE",
"259 447 CURVE SMOOTH",
"178 442 OFFCURVE",
"110 482 OFFCURVE",
"103 540 CURVE SMOOTH",
"88 676 OFFCURVE",
"311 661 OFFCURVE",
"483 650 CURVE SMOOTH",
"521 648 OFFCURVE",
"556 645 OFFCURVE",
"585 645 CURVE",
"560 561 OFFCURVE",
"558 468 OFFCURVE",
"556 380 CURVE SMOOTH",
"553 272 OFFCURVE",
"551 171 OFFCURVE",
"506 102 CURVE SMOOTH",
"475 53 OFFCURVE",
"417 16 OFFCURVE",
"360 10 CURVE SMOOTH",
"269 -1 OFFCURVE",
"204 50 OFFCURVE",
"213 126 CURVE SMOOTH",
"214 138 OFFCURVE",
"225 152 OFFCURVE",
"238 169 CURVE SMOOTH",
"267 209 OFFCURVE",
"273 224 OFFCURVE",
"260 237 CURVE SMOOTH",
"225 272 OFFCURVE",
"186 204 OFFCURVE",
"180 196 CURVE",
"115 90 OFFCURVE",
"185 -35 OFFCURVE",
"311 -45 CURVE SMOOTH"
);
}
);
vertWidth = 1000;
width = 911;
}
);
note = cid00053;
unicode = 0054;
},
{
color = 3;
glyphname = U;
lastChange = "2021-01-02 15:09:44 +0000";
layers = (
{
hints = (
{
horizontal = 1;
place = "{-13, 52}";
type = Stem;
},
{
horizontal = 1;
place = "{641, 19}";
type = Stem;
},
{
place = "{153, 77}";
type = Stem;
},
{
place = "{580, 49}";
type = Stem;
},
{
horizontal = 1;
place = "{602, 53}";
type = Stem;
},
{
place = "{584, 42}";
type = Stem;
}
);
layerId = "38E14F89-90D8-48C8-A96B-0BF2B2C9AEC9";
paths = (
{
closed = 1;
nodes = (
"720 -9 OFFCURVE",
"829 -44 OFFCURVE",
"827 10 CURVE SMOOTH",
"825 34 OFFCURVE",
"799 35 OFFCURVE",
"780 35 CURVE SMOOTH",
"766 36 OFFCURVE",
"760 36 OFFCURVE",
"754 39 CURVE SMOOTH",
"696 62 OFFCURVE",
"689 208 OFFCURVE",
"689 336 CURVE SMOOTH",
"689 363 OFFCURVE",
"691 394 OFFCURVE",
"694 430 CURVE SMOOTH",
"697 460 OFFCURVE",
"699 493 OFFCURVE",
"701 532 CURVE SMOOTH",
"711 665 OFFCURVE",
"711 718 OFFCURVE",
"684 725 CURVE SMOOTH",
"630 737 OFFCURVE",
"642 611 OFFCURVE",
"642 597 CURVE SMOOTH",
"640 564 OFFCURVE",
"638 530 OFFCURVE",
"635 497 CURVE SMOOTH",
"633 467 OFFCURVE",
"630 438 OFFCURVE",
"629 410 CURVE SMOOTH",
"629 395 OFFCURVE",
"629 380 OFFCURVE",
"630 366 CURVE SMOOTH",
"631 344 OFFCURVE",
"632 323 OFFCURVE",
"629 305 CURVE SMOOTH",
"620 244 OFFCURVE",
"577 170 OFFCURVE",
"542 127 CURVE SMOOTH",
"463 35 OFFCURVE",
"297 -3 OFFCURVE",
"222 103 CURVE SMOOTH",
"166 180 OFFCURVE",
"187 301 OFFCURVE",
"206 419 CURVE SMOOTH",
"219 495 OFFCURVE",
"232 570 OFFCURVE",
"223 631 CURVE SMOOTH",
"211 708 OFFCURVE",
"138 749 OFFCURVE",
"67 721 CURVE",
"49 720 OFFCURVE",
"45 695 OFFCURVE",
"55 685 CURVE SMOOTH",
"62 669 OFFCURVE",
"82 671 OFFCURVE",
"98 673 CURVE SMOOTH",
"116 675 OFFCURVE",
"123 675 OFFCURVE",
"130 671 CURVE SMOOTH",
"146 660 OFFCURVE",
"156 639 OFFCURVE",
"160 613 CURVE SMOOTH",
"169 553 OFFCURVE",
"157 484 OFFCURVE",
"144 412 CURVE SMOOTH",
"133 352 OFFCURVE",
"123 290 OFFCURVE",
"123 230 CURVE SMOOTH",
"125 -35 OFFCURVE",
"414 -84 OFFCURVE",
"568 72 CURVE SMOOTH",
"577 81 OFFCURVE",
"583 89 OFFCURVE",
"595 108 CURVE SMOOTH",
"606 125 OFFCURVE",
"618 143 OFFCURVE",
"635 155 CURVE",
"649 99 OFFCURVE",
"664 35 OFFCURVE",
"702 6 CURVE SMOOTH"
);
}
);
vertWidth = 1000;
width = 853;
}
);
note = cid00054;
unicode = 0055;
},
{
color = 3;
glyphname = V;
lastChange = "2021-01-02 15:09:44 +0000";
layers = (
{
hints = (
{
horizontal = 1;
place = "{-8, 21}";
target = up;
type = BottomGhost;
},
{
horizontal = 1;
place = "{625, 33}";
type = Stem;
},
{
place = "{69, 14}";
type = Stem;
},
{
horizontal = 1;
place = "{596, 63}";
type = Stem;
}
);
layerId = "38E14F89-90D8-48C8-A96B-0BF2B2C9AEC9";
paths = (
{
closed = 1;
nodes = (
"553 -33 OFFCURVE",
"571 -9 OFFCURVE",
"630 79 CURVE SMOOTH",
"689 167 OFFCURVE",
"733 235 OFFCURVE",
"789 324 CURVE SMOOTH",
"798 340 OFFCURVE",
"808 355 OFFCURVE",
"818 370 CURVE SMOOTH",
"837 398 OFFCURVE",
"857 427 OFFCURVE",
"866 451 CURVE SMOOTH",
"897 523 OFFCURVE",
"889 604 OFFCURVE",
"827 668 CURVE SMOOTH",
"767 733 OFFCURVE",
"705 736 OFFCURVE",
"683 721 CURVE",
"688 697 OFFCURVE",
"693 688 OFFCURVE",
"737 661 CURVE SMOOTH",
"757 649 OFFCURVE",
"765 643 OFFCURVE",
"774 634 CURVE SMOOTH",
"794 612 OFFCURVE",
"816 578 OFFCURVE",
"821 542 CURVE SMOOTH",
"828 484 OFFCURVE",
"809 466 OFFCURVE",
"756 383 CURVE SMOOTH",
"689 275 OFFCURVE",
"603 137 OFFCURVE",
"535 56 CURVE",
"498 116 OFFCURVE",
"461 204 OFFCURVE",
"435 307 CURVE SMOOTH",
"423 353 OFFCURVE",
"417 402 OFFCURVE",
"410 448 CURVE SMOOTH",
"392 587 OFFCURVE",
"374 715 OFFCURVE",
"229 732 CURVE SMOOTH",
"39 754 OFFCURVE",
"-58 532 OFFCURVE",
"93 429 CURVE SMOOTH",
"139 398 OFFCURVE",
"172 395 OFFCURVE",
"181 423 CURVE SMOOTH",
"177 444 OFFCURVE",
"173 453 OFFCURVE",
"135 475 CURVE SMOOTH",
"115 487 OFFCURVE",
"107 494 OFFCURVE",
"99 505 CURVE SMOOTH",
"21 612 OFFCURVE",
"158 715 OFFCURVE",
"262 664 CURVE SMOOTH",
"327 633 OFFCURVE",
"337 559 OFFCURVE",
"348 465 CURVE SMOOTH",
"350 448 OFFCURVE",
"352 430 OFFCURVE",
"355 411 CURVE SMOOTH",
"375 284 OFFCURVE",
"404 201 OFFCURVE",
"450 96 CURVE SMOOTH",
"453 90 OFFCURVE",
"456 79 OFFCURVE",
"461 69 CURVE",
"489 -5 OFFCURVE",
"508 -33 OFFCURVE",
"534 -33 CURVE SMOOTH"
);
}
);
vertWidth = 1000;
width = 956;
}
);
note = cid00055;
unicode = 0056;
},
{
color = 3;
glyphname = W;
lastChange = "2021-01-02 15:09:44 +0000";
layers = (
{
hints = (
{
horizontal = 1;
place = "{-2, 21}";
target = up;
type = BottomGhost;
},
{
place = "{60, 15}";
type = Stem;
}
);
layerId = "38E14F89-90D8-48C8-A96B-0BF2B2C9AEC9";
paths = (
{
closed = 1;
nodes = (
"890 -35 LINE",
"920 36 OFFCURVE",
"940 128 OFFCURVE",
"962 225 CURVE SMOOTH",
"1017 472 OFFCURVE",
"1079 747 OFFCURVE",
"1301 770 CURVE SMOOTH",
"1352 775 OFFCURVE",
"1378 773 OFFCURVE",
"1419 749 CURVE SMOOTH",
"1438 737 OFFCURVE",
"1458 726 OFFCURVE",
"1489 729 CURVE",
"1495 734 LINE",
"1499 808 OFFCURVE",
"1375 833 OFFCURVE",
"1291 825 CURVE SMOOTH",
"1037 799 OFFCURVE",
"970 515 OFFCURVE",
"909 260 CURVE SMOOTH",
"891 183 OFFCURVE",
"874 109 OFFCURVE",
"852 45 CURVE",
"790 82 OFFCURVE",
"752 171 OFFCURVE",
"744 297 CURVE SMOOTH",
"740 367 OFFCURVE",
"748 433 OFFCURVE",
"755 493 CURVE SMOOTH",
"761 542 OFFCURVE",
"767 588 OFFCURVE",
"765 628 CURVE",
"731 639 OFFCURVE",
"725 638 OFFCURVE",
"668 595 CURVE SMOOTH",
"571 524 OFFCURVE",
"491 421 OFFCURVE",
"433 325 CURVE SMOOTH",
"416 297 OFFCURVE",
"411 276 OFFCURVE",
"394 268 CURVE",
"422 485 OFFCURVE",
"399 743 OFFCURVE",
"169 719 CURVE SMOOTH",
"69 708 OFFCURVE",
"-27 604 OFFCURVE",
"25 487 CURVE SMOOTH",
"37 462 OFFCURVE",
"152 344 OFFCURVE",
"177 410 CURVE SMOOTH",
"182 425 OFFCURVE",
"173 436 OFFCURVE",
"141 455 CURVE SMOOTH",
"115 470 OFFCURVE",
"89 491 OFFCURVE",
"79 520 CURVE SMOOTH",
"45 614 OFFCURVE",
"147 696 OFFCURVE",
"249 656 CURVE SMOOTH",
"406 594 OFFCURVE",
"336 219 OFFCURVE",
"290 83 CURVE SMOOTH",
"288 75 OFFCURVE",
"285 68 OFFCURVE",
"278 55 CURVE SMOOTH",
"257 14 OFFCURVE",
"254 -5 OFFCURVE",
"266 -27 CURVE",
"271 -30 LINE",
"309 -36 OFFCURVE",
"322 0 OFFCURVE",
"330 23 CURVE",
"404 180 OFFCURVE",
"478 304 OFFCURVE",
"575 425 CURVE SMOOTH",
"610 468 OFFCURVE",
"646 515 OFFCURVE",
"697 537 CURVE",
"657 210 OFFCURVE",
"719 9 OFFCURVE",
"882 -38 CURVE"
);
}
);
vertWidth = 1000;
width = 1295;
}
);
note = cid00056;
unicode = 0057;
},
{
color = 3;
glyphname = X;
lastChange = "2020-12-24 23:28:07 +0000";
layers = (
{
hints = (
{
horizontal = 1;
place = "{-3, 21}";
target = up;
type = BottomGhost;
},
{
horizontal = 1;
place = "{661, -20}";
target = down;
type = TopGhost;
},
{
place = "{74, 614}";
type = Stem;
},
{
horizontal = 1;
place = "{662, -20}";
target = down;
type = TopGhost;
},
{
horizontal = 1;
place = "{4, 69}";
type = Stem;
},
{
horizontal = 1;
place = "{606, 51}";
type = Stem;
},
{
horizontal = 1;
place = "{-10, 21}";
target = up;
type = BottomGhost;
}
);
layerId = "38E14F89-90D8-48C8-A96B-0BF2B2C9AEC9";
paths = (
{
closed = 1;
nodes = (
"264 17 OFFCURVE",
"319 102 OFFCURVE",
"371 181 CURVE SMOOTH",
"403 230 OFFCURVE",
"434 278 OFFCURVE",
"473 307 CURVE",
"490 165 OFFCURVE",
"589 11 OFFCURVE",
"720 6 CURVE SMOOTH",
"763 4 OFFCURVE",
"810 19 OFFCURVE",
"859 57 CURVE SMOOTH",
"886 78 OFFCURVE",
"948 114 OFFCURVE",
"904 155 CURVE",
"886 158 OFFCURVE",
"859 134 OFFCURVE",
"835 111 CURVE SMOOTH",
"800 77 OFFCURVE",
"765 50 OFFCURVE",
"705 58 CURVE SMOOTH",
"646 66 OFFCURVE",
"597 119 OFFCURVE",
"564 210 CURVE SMOOTH",
"545 260 OFFCURVE",
"519 335 OFFCURVE",
"527 378 CURVE SMOOTH",
"532 405 OFFCURVE",
"586 459 OFFCURVE",
"611 487 CURVE SMOOTH",
"699 583 OFFCURVE",
"831 712 OFFCURVE",
"953 738 CURVE SMOOTH",
"986 745 OFFCURVE",
"1027 742 OFFCURVE",
"1037 776 CURVE",
"1032 794 OFFCURVE",
"1007 801 OFFCURVE",
"968 796 CURVE SMOOTH",
"822 783 OFFCURVE",
"681 641 OFFCURVE",
"605 558 CURVE SMOOTH",
"589 541 OFFCURVE",
"546 486 OFFCURVE",
"513 466 CURVE",
"509 484 OFFCURVE",
"505 502 OFFCURVE",
"501 521 CURVE SMOOTH",
"478 629 OFFCURVE",
"454 740 OFFCURVE",
"326 748 CURVE SMOOTH",
"277 751 OFFCURVE",
"215 726 OFFCURVE",
"178 689 CURVE SMOOTH",
"171 681 OFFCURVE",
"78 556 OFFCURVE",
"141 542 CURVE SMOOTH",
"168 536 OFFCURVE",
"175 559 OFFCURVE",
"181 581 CURVE SMOOTH",
"185 592 OFFCURVE",
"189 604 OFFCURVE",
"194 614 CURVE SMOOTH",
"235 689 OFFCURVE",
"346 723 OFFCURVE",
"398 646 CURVE SMOOTH",
"425 607 OFFCURVE",
"470 443 OFFCURVE",
"460 397 CURVE SMOOTH",
"455 373 OFFCURVE",
"427 342 OFFCURVE",
"396 306 CURVE SMOOTH",
"355 260 OFFCURVE",
"339 240 OFFCURVE",
"305 189 CURVE SMOOTH",
"264 127 OFFCURVE",
"226 68 OFFCURVE",
"160 58 CURVE SMOOTH",
"123 52 OFFCURVE",
"101 68 OFFCURVE",
"80 76 CURVE SMOOTH",
"44 90 OFFCURVE",
"18 89 OFFCURVE",
"7 77 CURVE",
"13 0 OFFCURVE",
"107 -4 OFFCURVE",
"162 3 CURVE SMOOTH"
);
}
);
vertWidth = 1000;
width = 957;
}
);
note = cid00057;
unicode = 0058;
},
{
color = 3;
glyphname = Y;
lastChange = "2020-12-24 23:28:07 +0000";
layers = (
{
hints = (
{
horizontal = 1;
place = "{9, 56}";
type = Stem;
},
{
horizontal = 1;
place = "{611, 49}";
type = Stem;
},
{
place = "{476, 12}";
type = Stem;
}
);
layerId = "38E14F89-90D8-48C8-A96B-0BF2B2C9AEC9";
paths = (
{
closed = 1;
nodes = (
"668 -170 OFFCURVE",
"682 -11 OFFCURVE",
"705 137 CURVE SMOOTH",
"717 221 OFFCURVE",
"730 293 OFFCURVE",
"742 365 CURVE SMOOTH",
"752 421 OFFCURVE",
"761 478 OFFCURVE",
"771 538 CURVE SMOOTH",
"774 559 OFFCURVE",
"778 580 OFFCURVE",
"782 600 CURVE SMOOTH",
"794 656 OFFCURVE",
"806 711 OFFCURVE",
"786 757 CURVE SMOOTH",
"780 770 OFFCURVE",
"749 762 OFFCURVE",
"744 740 CURVE SMOOTH",
"730 683 OFFCURVE",
"723 627 OFFCURVE",
"717 573 CURVE SMOOTH",
"708 505 OFFCURVE",
"700 439 OFFCURVE",
"679 375 CURVE SMOOTH",
"641 255 OFFCURVE",
"554 176 OFFCURVE",
"444 164 CURVE SMOOTH",
"341 152 OFFCURVE",
"289 209 OFFCURVE",
"301 319 CURVE SMOOTH",
"305 358 OFFCURVE",
"319 403 OFFCURVE",
"333 449 CURVE SMOOTH",
"365 554 OFFCURVE",
"400 667 OFFCURVE",
"323 727 CURVE SMOOTH",
"235 795 OFFCURVE",
"139 756 OFFCURVE",
"78 682 CURVE SMOOTH",
"19 610 OFFCURVE",
"-6 504 OFFCURVE",
"48 434 CURVE SMOOTH",
"95 375 OFFCURVE",
"169 353 OFFCURVE",
"196 408 CURVE",
"179 420 OFFCURVE",
"160 429 OFFCURVE",
"145 437 CURVE SMOOTH",
"113 453 OFFCURVE",
"91 464 OFFCURVE",
"81 499 CURVE SMOOTH",
"61 567 OFFCURVE",
"113 670 OFFCURVE",
"178 693 CURVE SMOOTH",
"222 709 OFFCURVE",
"271 710 OFFCURVE",
"297 671 CURVE SMOOTH",
"325 628 OFFCURVE",
"300 547 OFFCURVE",
"286 489 CURVE SMOOTH",
"281 466 OFFCURVE",
"275 445 OFFCURVE",
"269 424 CURVE SMOOTH",
"257 383 OFFCURVE",
"246 343 OFFCURVE",
"243 304 CURVE SMOOTH",
"226 97 OFFCURVE",
"442 70 OFFCURVE",
"576 155 CURVE SMOOTH",
"596 168 OFFCURVE",
"627 204 OFFCURVE",
"653 215 CURVE",
"646 183 OFFCURVE",
"642 148 OFFCURVE",
"638 114 CURVE SMOOTH",
"631 55 OFFCURVE",
"624 -3 OFFCURVE",
"604 -44 CURVE",
"569 -130 OFFCURVE",
"416 -158 OFFCURVE",
"395 -63 CURVE SMOOTH",
"392 -50 OFFCURVE",
"395 -35 OFFCURVE",
"398 -20 CURVE SMOOTH",
"402 2 OFFCURVE",
"406 25 OFFCURVE",
"382 31 CURVE SMOOTH",
"330 43 OFFCURVE",
"323 -53 OFFCURVE",
"336 -80 CURVE SMOOTH",
"365 -142 OFFCURVE",
"414 -171 OFFCURVE",
"486 -171 CURVE SMOOTH"
);
}
);
vertWidth = 1000;
width = 857;
}
);
note = cid00058;
unicode = 0059;
},
{
color = 3;
glyphname = Z;
lastChange = "2021-01-02 15:09:44 +0000";
layers = (
{
hints = (
{
horizontal = 1;
place = "{12, 54}";
type = Stem;
},
{
horizontal = 1;
place = "{614, 49}";
type = Stem;
},
{
place = "{118, 52}";
type = Stem;
},
{
horizontal = 1;
place = "{0, 21}";
target = up;
type = BottomGhost;
},
{
place = "{555, 14}";
type = Stem;
}
);
layerId = "38E14F89-90D8-48C8-A96B-0BF2B2C9AEC9";
paths = (
{
closed = 1;
nodes = (
"716 -3 OFFCURVE",
"763 -6 OFFCURVE",
"806 1 CURVE SMOOTH",
"949 23 OFFCURVE",
"999 239 OFFCURVE",
"831 264 CURVE SMOOTH",
"773 272 OFFCURVE",
"657 261 OFFCURVE",
"668 217 CURVE SMOOTH",
"673 196 OFFCURVE",
"733 200 OFFCURVE",
"780 204 CURVE SMOOTH",
"808 206 OFFCURVE",
"831 208 OFFCURVE",
"840 205 CURVE SMOOTH",
"929 176 OFFCURVE",
"868 64 OFFCURVE",
"796 56 CURVE SMOOTH",
"710 46 OFFCURVE",
"607 50 OFFCURVE",
"503 55 CURVE SMOOTH",
"430 59 OFFCURVE",
"356 62 OFFCURVE",
"288 60 CURVE",
"357 143 OFFCURVE",
"416 234 OFFCURVE",
"476 327 CURVE SMOOTH",
"520 394 OFFCURVE",
"564 463 OFFCURVE",
"611 525 CURVE SMOOTH",
"615 531 OFFCURVE",
"618 535 OFFCURVE",
"626 546 CURVE SMOOTH",
"654 586 OFFCURVE",
"695 645 OFFCURVE",
"742 658 CURVE SMOOTH",
"748 660 OFFCURVE",
"764 660 OFFCURVE",
"785 659 CURVE SMOOTH",
"834 658 OFFCURVE",
"909 656 OFFCURVE",
"906 691 CURVE SMOOTH",
"904 722 OFFCURVE",
"862 717 OFFCURVE",
"813 717 CURVE SMOOTH",
"781 717 OFFCURVE",
"744 717 OFFCURVE",
"706 718 CURVE SMOOTH",
"627 719 OFFCURVE",
"542 720 OFFCURVE",
"487 717 CURVE SMOOTH",
"455 715 OFFCURVE",
"420 716 OFFCURVE",
"383 717 CURVE SMOOTH",
"254 719 OFFCURVE",
"104 721 OFFCURVE",
"88 627 CURVE SMOOTH",
"78 569 OFFCURVE",
"116 521 OFFCURVE",
"179 507 CURVE SMOOTH",
"212 499 OFFCURVE",
"321 497 OFFCURVE",
"318 536 CURVE SMOOTH",
"316 566 OFFCURVE",
"276 562 OFFCURVE",
"248 559 CURVE SMOOTH",
"236 558 OFFCURVE",
"226 557 OFFCURVE",
"219 558 CURVE SMOOTH",
"124 565 OFFCURVE",
"127 652 OFFCURVE",
"223 662 CURVE SMOOTH",
"315 671 OFFCURVE",
"435 665 OFFCURVE",
"546 659 CURVE SMOOTH",
"578 657 OFFCURVE",
"609 656 OFFCURVE",
"638 654 CURVE",
"577 581 OFFCURVE",
"522 496 OFFCURVE",
"467 410 CURVE SMOOTH",
"417 334 OFFCURVE",
"367 257 OFFCURVE",
"314 188 CURVE SMOOTH",
"279 143 OFFCURVE",
"226 73 OFFCURVE",
"179 60 CURVE SMOOTH",
"166 56 OFFCURVE",
"148 57 OFFCURVE",
"127 58 CURVE SMOOTH",
"86 60 OFFCURVE",
"36 62 OFFCURVE",
"23 24 CURVE",
"35 3 OFFCURVE",
"46 -4 OFFCURVE",
"94 0 CURVE SMOOTH",
"100 0 OFFCURVE",
"106 1 OFFCURVE",
"112 1 CURVE SMOOTH",
"275 1 OFFCURVE",
"441 1 OFFCURVE",
"601 1 CURVE SMOOTH",
"623 1 OFFCURVE",
"647 0 OFFCURVE",
"670 -1 CURVE SMOOTH"
);
}
);
vertWidth = 1000;
width = 981;
}
);
note = cid00059;
unicode = 005A;
},
{
color = 3;
glyphname = a;
lastChange = "2020-12-24 23:28:07 +0000";
layers = (
{
hints = (
{
horizontal = 1;
place = "{-5, 21}";
target = up;
type = BottomGhost;
},
{
horizontal = 1;
place = "{444, 35}";
type = Stem;
},
{
place = "{135, 75}";
type = Stem;
},
{
place = "{380, 72}";
type = Stem;
},
{
place = "{105, 76}";
type = Stem;
},
{
horizontal = 1;
place = "{-6, 21}";
target = up;
type = BottomGhost;
},
{
horizontal = 1;
place = "{-5, 58}";
type = Stem;
}
);
layerId = "38E14F89-90D8-48C8-A96B-0BF2B2C9AEC9";
paths = (
{
closed = 1;
nodes = (
"127 -31 OFFCURVE",
"127 4 OFFCURVE",
"127 29 CURVE SMOOTH",
"127 39 OFFCURVE",
"127 43 OFFCURVE",
"128 49 CURVE SMOOTH",
"135 147 OFFCURVE",
"174 257 OFFCURVE",
"219 315 CURVE",
"238 315 OFFCURVE",
"259 316 OFFCURVE",
"281 317 CURVE SMOOTH",
"358 320 OFFCURVE",
"452 315 OFFCURVE",
"505 309 CURVE",
"501 217 OFFCURVE",
"508 124 OFFCURVE",
"523 59 CURVE",
"523 53 OFFCURVE",
"524 48 OFFCURVE",
"525 43 CURVE SMOOTH",
"531 13 OFFCURVE",
"539 -33 OFFCURVE",
"580 -20 CURVE",
"581 -19 LINE SMOOTH",
"593 -7 OFFCURVE",
"591 15 OFFCURVE",
"577 64 CURVE SMOOTH",
"574 75 OFFCURVE",
"571 87 OFFCURVE",
"569 98 CURVE SMOOTH",
"554 181 OFFCURVE",
"552 255 OFFCURVE",
"561 317 CURVE",
"572 320 OFFCURVE",
"589 319 OFFCURVE",
"608 318 CURVE SMOOTH",
"640 316 OFFCURVE",
"682 313 OFFCURVE",
"675 348 CURVE SMOOTH",
"671 368 OFFCURVE",
"656 372 OFFCURVE",
"614 369 CURVE SMOOTH",
"585 366 OFFCURVE",
"572 367 OFFCURVE",
"566 372 CURVE",
"561 417 OFFCURVE",
"573 480 OFFCURVE",
"580 525 CURVE SMOOTH",
"587 560 OFFCURVE",
"593 595 OFFCURVE",
"593 629 CURVE",
"581 645 OFFCURVE",
"565 648 OFFCURVE",
"554 644 CURVE SMOOTH",
"422 598 OFFCURVE",
"316 525 OFFCURVE",
"265 468 CURVE SMOOTH",
"227 425 OFFCURVE",
"196 378 OFFCURVE",
"182 372 CURVE SMOOTH",
"156 361 OFFCURVE",
"122 370 OFFCURVE",
"94 375 CURVE",
"94 397 OFFCURVE",
"83 414 OFFCURVE",
"65 414 CURVE SMOOTH",
"44 414 OFFCURVE",
"31 391 OFFCURVE",
"37 362 CURVE SMOOTH",
"46 326 OFFCURVE",
"85 322 OFFCURVE",
"118 318 CURVE SMOOTH",
"129 317 OFFCURVE",
"138 316 OFFCURVE",
"147 314 CURVE",
"117 243 OFFCURVE",
"89 170 OFFCURVE",
"78 73 CURVE SMOOTH",
"75 52 OFFCURVE",
"62 -16 OFFCURVE",
"95 -24 CURVE SMOOTH"
);
},
{
closed = 1;
nodes = (
"327 456 OFFCURVE",
"418 533 OFFCURVE",
"529 573 CURVE",
"530 535 OFFCURVE",
"524 493 OFFCURVE",
"517 451 CURVE SMOOTH",
"512 421 OFFCURVE",
"509 398 OFFCURVE",
"506 375 CURVE",
"437 365 OFFCURVE",
"335 365 OFFCURVE",
"265 374 CURVE"
);
}
);
vertWidth = 1000;
width = 717;
}
);
note = cid00066;
unicode = 0061;
},
{
glyphname = ae;
lastChange = "2021-01-02 15:09:44 +0000";
layers = (
{
hints = (
{
horizontal = 1;
place = "{1, 62}";
type = Stem;
},
{
horizontal = 1;
place = "{235, 68}";
type = Stem;
},
{
horizontal = 1;
place = "{435, 68}";
type = Stem;
},
{
place = "{72, 67}";
type = Stem;
},
{
place = "{389, 82}";
type = Stem;
},
{
place = "{774, 72}";
type = Stem;
},
{
horizontal = 1;
place = "{245, 62}";
type = Stem;
},
{
horizontal = 1;
place = "{437, 68}";
type = Stem;
},
{
horizontal = 1;
place = "{1, 69}";
type = Stem;
},
{
place = "{393, 78}";
type = Stem;
},
{
horizontal = 1;
place = "{-5, 21}";
target = up;
type = BottomGhost;
},
{
horizontal = 1;
place = "{444, 35}";
type = Stem;
},
{
place = "{135, 75}";
type = Stem;
},
{
place = "{380, 72}";
type = Stem;
},
{
place = "{105, 76}";
type = Stem;
},
{
horizontal = 1;
place = "{-6, 21}";
target = up;
type = BottomGhost;
},
{
horizontal = 1;
place = "{-5, 58}";
type = Stem;
},
{
horizontal = 1;
place = "{-15, 60}";
type = Stem;
},
{
horizontal = 1;
place = "{239, 45}";
type = Stem;
},
{
horizontal = 1;
place = "{425, 49}";
type = Stem;
},
{
place = "{492, 81}";
type = Stem;
},
{
place = "{802, 74}";
type = Stem;
},
{
horizontal = 1;
place = "{-15, 60}";
type = Stem;
},
{
horizontal = 1;
place = "{239, 45}";
type = Stem;
},
{
horizontal = 1;
place = "{425, 49}";
type = Stem;
},
{
place = "{563, 81}";
type = Stem;
},
{
place = "{873, 74}";
type = Stem;
},
{
horizontal = 1;
place = "{-5, 21}";
target = up;
type = BottomGhost;
},
{
horizontal = 1;
place = "{444, 35}";
type = Stem;
},
{
place = "{135, 75}";
type = Stem;
},
{
place = "{380, 72}";
type = Stem;
},
{
place = "{105, 76}";
type = Stem;
},
{
horizontal = 1;
place = "{-6, 21}";
target = up;
type = BottomGhost;
},
{
horizontal = 1;
place = "{-5, 58}";
type = Stem;
}
);
layerId = "38E14F89-90D8-48C8-A96B-0BF2B2C9AEC9";
paths = (
{
closed = 1;
nodes = (
"127 -31 OFFCURVE",
"127 4 OFFCURVE",
"127 29 CURVE SMOOTH",
"127 39 OFFCURVE",
"127 43 OFFCURVE",
"128 49 CURVE SMOOTH",
"135 147 OFFCURVE",
"174 257 OFFCURVE",
"219 315 CURVE",
"238 315 OFFCURVE",
"259 316 OFFCURVE",
"281 317 CURVE SMOOTH",
"358 320 OFFCURVE",
"452 315 OFFCURVE",
"505 309 CURVE",
"501 217 OFFCURVE",
"508 124 OFFCURVE",
"523 59 CURVE",
"523 53 OFFCURVE",
"524 48 OFFCURVE",
"525 43 CURVE SMOOTH",
"531 13 OFFCURVE",
"539 -33 OFFCURVE",
"580 -20 CURVE",
"581 -19 LINE SMOOTH",
"593 -7 OFFCURVE",
"591 15 OFFCURVE",
"577 64 CURVE SMOOTH",
"574 75 OFFCURVE",
"571 87 OFFCURVE",
"569 98 CURVE SMOOTH",
"551 197 OFFCURVE",
"557 375 OFFCURVE",
"580 525 CURVE SMOOTH",
"587 560 OFFCURVE",
"593 595 OFFCURVE",
"593 629 CURVE",
"581 645 OFFCURVE",
"565 648 OFFCURVE",
"554 644 CURVE SMOOTH",
"422 598 OFFCURVE",
"316 525 OFFCURVE",
"265 468 CURVE SMOOTH",
"227 425 OFFCURVE",
"196 378 OFFCURVE",
"182 372 CURVE SMOOTH",
"156 361 OFFCURVE",
"122 370 OFFCURVE",
"94 375 CURVE",
"94 397 OFFCURVE",
"83 414 OFFCURVE",
"65 414 CURVE SMOOTH",
"44 414 OFFCURVE",
"31 391 OFFCURVE",
"37 362 CURVE SMOOTH",
"46 326 OFFCURVE",
"85 322 OFFCURVE",
"118 318 CURVE SMOOTH",
"129 317 OFFCURVE",
"138 316 OFFCURVE",
"147 314 CURVE",
"117 243 OFFCURVE",
"89 170 OFFCURVE",
"78 73 CURVE SMOOTH",
"75 52 OFFCURVE",
"62 -16 OFFCURVE",
"95 -24 CURVE SMOOTH"
);
},
{
closed = 1;
nodes = (
"327 456 OFFCURVE",
"418 533 OFFCURVE",
"529 573 CURVE",
"530 535 OFFCURVE",
"524 493 OFFCURVE",
"517 451 CURVE SMOOTH",
"512 421 OFFCURVE",
"509 398 OFFCURVE",
"506 375 CURVE",
"437 365 OFFCURVE",
"335 365 OFFCURVE",
"265 374 CURVE"
);
},
{
closed = 1;
nodes = (
"880 -24 OFFCURVE",
"970 5 OFFCURVE",
"1022 57 CURVE SMOOTH",
"1035 70 OFFCURVE",
"1051 92 OFFCURVE",
"1060 111 CURVE SMOOTH",
"1082 155 OFFCURVE",
"1077 181 OFFCURVE",
"1046 180 CURVE SMOOTH",
"1032 180 OFFCURVE",
"1022 167 OFFCURVE",
"1006 130 CURVE SMOOTH",
"999 115 OFFCURVE",
"997 111 OFFCURVE",
"996 110 CURVE SMOOTH",
"957 61 OFFCURVE",
"872 30 OFFCURVE",
"785 31 CURVE SMOOTH",
"677 32 OFFCURVE",
"577 81 OFFCURVE",
"581 189 CURVE SMOOTH",
"583 256 OFFCURVE",
"638 308 OFFCURVE",
"711 310 CURVE SMOOTH",
"722 310 OFFCURVE",
"736 308 OFFCURVE",
"751 306 CURVE SMOOTH",
"828 295 OFFCURVE",
"853 303 OFFCURVE",
"859 344 CURVE",
"858 348 LINE",
"844 360 OFFCURVE",
"826 363 OFFCURVE",
"796 358 CURVE SMOOTH",
"787 357 OFFCURVE",
"777 356 OFFCURVE",
"768 357 CURVE SMOOTH",
"689 361 OFFCURVE",
"624 384 OFFCURVE",
"595 418 CURVE SMOOTH",
"529 496 OFFCURVE",
"650 563 OFFCURVE",
"742 563 CURVE SMOOTH",
"815 563 OFFCURVE",
"942 525 OFFCURVE",
"953 472 CURVE SMOOTH",
"954 466 OFFCURVE",
"953 461 OFFCURVE",
"951 451 CURVE SMOOTH",
"946 433 OFFCURVE",
"948 424 OFFCURVE",
"964 412 CURVE",
"969 412 LINE",
"1039 424 OFFCURVE",
"1004 506 OFFCURVE",
"978 533 CURVE SMOOTH",
"929 584 OFFCURVE",
"820 620 OFFCURVE",
"727 617 CURVE SMOOTH",
"605 612 OFFCURVE",
"514 537 OFFCURVE",
"522 450 CURVE SMOOTH",
"527 400 OFFCURVE",
"559 376 OFFCURVE",
"590 353 CURVE SMOOTH",
"599 347 OFFCURVE",
"604 343 OFFCURVE",
"609 339 CURVE SMOOTH",
"610 338 OFFCURVE",
"611 336 OFFCURVE",
"613 335 CURVE",
"550 289 OFFCURVE",
"521 233 OFFCURVE",
"526 169 CURVE SMOOTH",
"535 46 OFFCURVE",
"657 -16 OFFCURVE",
"782 -20 CURVE SMOOTH"
);
}
);
vertWidth = 1000;
width = 1121;
}
);
leftMetricsKey = a;
note = cid00145;
rightMetricsKey = e;
unicode = 00E6;
},
{
color = 3;
glyphname = b;
lastChange = "2021-01-02 15:09:44 +0000";
layers = (
{
hints = (
{
horizontal = 1;
place = "{-9, 39}";
type = Stem;
},
{
horizontal = 1;
place = "{417, 42}";
type = Stem;
},
{
place = "{151, 57}";
type = Stem;
},
{
place = "{451, 73}";
type = Stem;
},
{
horizontal = 1;
place = "{-1, 21}";
target = up;
type = BottomGhost;
}
);
layerId = "38E14F89-90D8-48C8-A96B-0BF2B2C9AEC9";
paths = (
{
closed = 1;
nodes = (
"261 -10 OFFCURVE",
"435 7 OFFCURVE",
"514 57 CURVE SMOOTH",
"553 83 OFFCURVE",
"607 151 OFFCURVE",
"613 208 CURVE SMOOTH",
"623 309 OFFCURVE",
"556 347 OFFCURVE",
"486 386 CURVE",
"496 400 OFFCURVE",
"507 424 OFFCURVE",
"510 442 CURVE SMOOTH",
"531 570 OFFCURVE",
"405 632 OFFCURVE",
"283 638 CURVE SMOOTH",
"165 643 OFFCURVE",
"73 599 OFFCURVE",
"60 531 CURVE SMOOTH",
"47 466 OFFCURVE",
"85 440 OFFCURVE",
"117 418 CURVE SMOOTH",
"126 412 OFFCURVE",
"129 410 OFFCURVE",
"132 408 CURVE",
"135 375 OFFCURVE",
"135 351 OFFCURVE",
"135 238 CURVE SMOOTH",
"135 235 OFFCURVE",
"135 228 OFFCURVE",
"135 220 CURVE SMOOTH",
"130 119 OFFCURVE",
"134 67 OFFCURVE",
"161 67 CURVE SMOOTH",
"182 67 OFFCURVE",
"188 89 OFFCURVE",
"186 150 CURVE SMOOTH",
"185 158 OFFCURVE",
"185 166 OFFCURVE",
"185 174 CURVE SMOOTH",
"185 270 OFFCURVE",
"185 319 OFFCURVE",
"185 406 CURVE SMOOTH",
"185 409 OFFCURVE",
"185 412 OFFCURVE",
"185 416 CURVE SMOOTH",
"186 420 OFFCURVE",
"186 424 OFFCURVE",
"186 429 CURVE SMOOTH",
"188 487 OFFCURVE",
"183 513 OFFCURVE",
"161 514 CURVE SMOOTH",
"139 515 OFFCURVE",
"136 498 OFFCURVE",
"135 486 CURVE SMOOTH",
"134 480 OFFCURVE",
"134 477 OFFCURVE",
"133 475 CURVE",
"76 530 OFFCURVE",
"162 578 OFFCURVE",
"239 583 CURVE SMOOTH",
"309 586 OFFCURVE",
"388 571 OFFCURVE",
"423 547 CURVE SMOOTH",
"508 485 OFFCURVE",
"429 357 OFFCURVE",
"336 366 CURVE SMOOTH",
"327 367 OFFCURVE",
"323 370 OFFCURVE",
"319 373 CURVE SMOOTH",
"301 386 OFFCURVE",
"286 388 OFFCURVE",
"273 377 CURVE",
"272 375 LINE SMOOTH",
"262 343 OFFCURVE",
"280 317 OFFCURVE",
"320 312 CURVE SMOOTH",
"347 309 OFFCURVE",
"369 318 OFFCURVE",
"390 327 CURVE SMOOTH",
"405 333 OFFCURVE",
"420 339 OFFCURVE",
"434 340 CURVE SMOOTH",
"478 342 OFFCURVE",
"538 302 OFFCURVE",
"553 263 CURVE SMOOTH",
"568 227 OFFCURVE",
"554 180 OFFCURVE",
"540 157 CURVE SMOOTH",
"493 80 OFFCURVE",
"360 44 OFFCURVE",
"178 58 CURVE SMOOTH",
"114 64 OFFCURVE",
"72 70 OFFCURVE",
"71 41 CURVE",
"67 11 OFFCURVE",
"87 13 OFFCURVE",
"122 8 CURVE SMOOTH"
);
}
);
vertWidth = 1000;
width = 662;
}
);
note = cid00067;
unicode = 0062;
},
{
color = 3;
glyphname = c;
lastChange = "2021-01-02 15:09:44 +0000";
layers = (
{
hints = (
{
horizontal = 1;
place = "{-15, 51}";
type = Stem;
},
{
horizontal = 1;
place = "{425, 49}";
type = Stem;
},
{
place = "{104, 83}";
type = Stem;
},
{
place = "{399, 90}";
type = Stem;
},
{
horizontal = 1;
place = "{-11, 21}";
target = up;
type = BottomGhost;
}
);
layerId = "38E14F89-90D8-48C8-A96B-0BF2B2C9AEC9";
paths = (
{
closed = 1;
nodes = (
"460 -25 OFFCURVE",
"566 59 OFFCURVE",
"618 151 CURVE SMOOTH",
"653 211 OFFCURVE",
"656 232 OFFCURVE",
"623 257 CURVE",
"620 258 LINE",
"594 244 OFFCURVE",
"585 221 OFFCURVE",
"578 199 CURVE SMOOTH",
"576 190 OFFCURVE",
"573 181 OFFCURVE",
"569 172 CURVE",
"521 94 OFFCURVE",
"444 47 OFFCURVE",
"353 40 CURVE SMOOTH",
"198 28 OFFCURVE",
"121 142 OFFCURVE",
"113 258 CURVE SMOOTH",
"101 426 OFFCURVE",
"192 554 OFFCURVE",
"330 568 CURVE SMOOTH",
"417 576 OFFCURVE",
"491 539 OFFCURVE",
"499 485 CURVE SMOOTH",
"505 436 OFFCURVE",
"464 389 OFFCURVE",
"425 398 CURVE SMOOTH",
"402 404 OFFCURVE",
"404 419 OFFCURVE",
"409 442 CURVE SMOOTH",
"414 475 OFFCURVE",
"413 489 OFFCURVE",
"400 498 CURVE SMOOTH",
"398 499 LINE",
"349 504 OFFCURVE",
"344 444 OFFCURVE",
"348 417 CURVE SMOOTH",
"352 385 OFFCURVE",
"386 350 OFFCURVE",
"418 345 CURVE SMOOTH",
"510 331 OFFCURVE",
"583 432 OFFCURVE",
"547 523 CURVE SMOOTH",
"519 594 OFFCURVE",
"431 632 OFFCURVE",
"326 621 CURVE SMOOTH",
"153 605 OFFCURVE",
"43 453 OFFCURVE",
"58 254 CURVE SMOOTH",
"68 104 OFFCURVE",
"169 -5 OFFCURVE",
"308 -14 CURVE SMOOTH"
);
}
);
vertWidth = 1000;
width = 653;
}
);
note = cid00068;
unicode = 0063;
},
{
color = 3;
glyphname = d;
lastChange = "2021-01-02 15:09:44 +0000";
layers = (
{
hints = (
{
horizontal = 1;
place = "{-6, 21}";
target = up;
type = BottomGhost;
},
{
horizontal = 1;
place = "{597, 65}";
type = Stem;
},
{
place = "{98, 72}";
type = Stem;
},
{
place = "{406, 66}";
type = Stem;
},
{
horizontal = 1;
place = "{1, 48}";
type = Stem;
},
{
place = "{399, 72.5}";
type = Stem;
},
{
horizontal = 1;
place = "{602, 60}";
type = Stem;
}
);
layerId = "38E14F89-90D8-48C8-A96B-0BF2B2C9AEC9";
paths = (
{
closed = 1;
nodes = (
"382 -55 OFFCURVE",
"683 47 OFFCURVE",
"702 258 CURVE SMOOTH",
"725 511 OFFCURVE",
"509 639 OFFCURVE",
"259 615 CURVE SMOOTH",
"157 606 OFFCURVE",
"80 552 OFFCURVE",
"61 476 CURVE SMOOTH",
"34 366 OFFCURVE",
"138 345 OFFCURVE",
"224 335 CURVE",
"228 308 OFFCURVE",
"228 274 OFFCURVE",
"227 239 CURVE SMOOTH",
"227 218 OFFCURVE",
"226 181 OFFCURVE",
"225 171 CURVE SMOOTH",
"222 110 OFFCURVE",
"226 84 OFFCURVE",
"248 69 CURVE",
"252 69 LINE",
"280 86 OFFCURVE",
"283 99 OFFCURVE",
"280 169 CURVE SMOOTH",
"279 176 OFFCURVE",
"278 208 OFFCURVE",
"278 237 CURVE SMOOTH",
"278 276 OFFCURVE",
"277 313 OFFCURVE",
"283 340 CURVE",
"294 342 OFFCURVE",
"308 343 OFFCURVE",
"324 344 CURVE SMOOTH",
"362 347 OFFCURVE",
"415 351 OFFCURVE",
"407 385 CURVE SMOOTH",
"400 416 OFFCURVE",
"365 407 OFFCURVE",
"336 400 CURVE SMOOTH",
"314 395 OFFCURVE",
"294 390 OFFCURVE",
"280 395 CURVE",
"278 405 OFFCURVE",
"278 418 OFFCURVE",
"278 429 CURVE SMOOTH",
"279 450 OFFCURVE",
"281 476 OFFCURVE",
"253 476 CURVE SMOOTH",
"225 476 OFFCURVE",
"226 450 OFFCURVE",
"227 430 CURVE SMOOTH",
"228 410 OFFCURVE",
"227 400 OFFCURVE",
"223 394 CURVE",
"136 379 OFFCURVE",
"83 443 OFFCURVE",
"134 503 CURVE SMOOTH",
"176 552 OFFCURVE",
"268 572 OFFCURVE",
"384 559 CURVE SMOOTH",
"539 537 OFFCURVE",
"671 446 OFFCURVE",
"647 256 CURVE SMOOTH",
"626 89 OFFCURVE",
"376 9 OFFCURVE",
"201 59 CURVE SMOOTH",
"196 61 OFFCURVE",
"189 64 OFFCURVE",
"184 68 CURVE SMOOTH",
"159 84 OFFCURVE",
"143 84 OFFCURVE",
"125 68 CURVE",
"124 66 LINE",
"117 33 OFFCURVE",
"131 28 OFFCURVE",
"176 13 CURVE SMOOTH"
);
}
);
vertWidth = 1000;
width = 761;
}
);
note = cid00069;
unicode = 0064;
},
{
glyphname = eth;
lastChange = "2020-12-28 14:54:03 +0000";
layers = (
{
components = (
{
name = six;
transform = "{-0.99027, 0.13917, 0.13917, 0.99027, 652, -46}";
}
);
hints = (
{
horizontal = 1;
place = "{-5, 69}";
type = Stem;
},
{
horizontal = 1;
place = "{418, 70}";
type = Stem;
},
{
place = "{65, 71}";
type = Stem;
},
{
place = "{492, 74}";
type = Stem;
},
{
horizontal = 1;
place = "{-11, 56}";
type = Stem;
},
{
horizontal = 1;
place = "{381, 50}";
type = Stem;
},
{
horizontal = 1;
place = "{626, 48}";
type = Stem;
},
{
place = "{567, 85}";
type = Stem;
},
{
place = "{201, 81}";
type = Stem;
},
{
place = "{230, 98}";
type = Stem;
},
{
horizontal = 1;
place = "{523, 151}";
type = Stem;
}
);
layerId = "38E14F89-90D8-48C8-A96B-0BF2B2C9AEC9";
paths = (
{
closed = 1;
nodes = (
"344 514 OFFCURVE",
"365 519 OFFCURVE",
"388 542 CURVE SMOOTH",
"414 568 OFFCURVE",
"476 622 OFFCURVE",
"530 671 CURVE SMOOTH",
"585 720 OFFCURVE",
"587 750 OFFCURVE",
"569 758 CURVE SMOOTH",
"547 767 OFFCURVE",
"529 752 OFFCURVE",
"510 726 CURVE",
"477 687 OFFCURVE",
"397 617 OFFCURVE",
"349 573 CURVE SMOOTH",
"321 547 OFFCURVE",
"315 524 OFFCURVE",
"330 519 CURVE SMOOTH"
);
}
);
vertWidth = 1000;
width = 697;
}
);
note = cid00208;
unicode = 00F0;
},
{
color = 3;
glyphname = e;
lastChange = "2021-01-02 15:09:44 +0000";
layers = (
{
hints = (
{
horizontal = 1;
place = "{-15, 60}";
type = Stem;
},
{
horizontal = 1;
place = "{239, 45}";
type = Stem;
},
{
horizontal = 1;
place = "{425, 49}";
type = Stem;
},
{
place = "{109, 81}";
type = Stem;
},
{
place = "{419, 74}";
type = Stem;
}
);
layerId = "38E14F89-90D8-48C8-A96B-0BF2B2C9AEC9";
paths = (
{
closed = 1;
nodes = (
"424 -24 OFFCURVE",
"514 5 OFFCURVE",
"566 57 CURVE SMOOTH",
"579 70 OFFCURVE",
"595 92 OFFCURVE",
"605 111 CURVE SMOOTH",
"626 155 OFFCURVE",
"621 181 OFFCURVE",
"590 180 CURVE SMOOTH",
"576 180 OFFCURVE",
"566 167 OFFCURVE",
"549 130 CURVE SMOOTH",
"543 115 OFFCURVE",
"541 111 OFFCURVE",
"540 110 CURVE SMOOTH",
"501 61 OFFCURVE",
"416 30 OFFCURVE",
"329 31 CURVE SMOOTH",
"221 32 OFFCURVE",
"121 81 OFFCURVE",
"125 189 CURVE SMOOTH",
"127 256 OFFCURVE",
"182 308 OFFCURVE",
"255 309 CURVE SMOOTH",
"266 310 OFFCURVE",
"280 308 OFFCURVE",
"295 306 CURVE SMOOTH",
"372 295 OFFCURVE",
"397 303 OFFCURVE",
"403 344 CURVE",
"402 348 LINE",
"388 360 OFFCURVE",
"370 363 OFFCURVE",
"340 358 CURVE SMOOTH",
"331 357 OFFCURVE",
"321 356 OFFCURVE",
"312 356 CURVE SMOOTH",
"233 361 OFFCURVE",
"168 384 OFFCURVE",
"139 418 CURVE SMOOTH",
"73 496 OFFCURVE",
"194 563 OFFCURVE",
"286 563 CURVE SMOOTH",
"359 563 OFFCURVE",
"486 525 OFFCURVE",
"497 472 CURVE SMOOTH",
"498 466 OFFCURVE",
"497 461 OFFCURVE",
"495 451 CURVE SMOOTH",
"490 433 OFFCURVE",
"492 424 OFFCURVE",
"508 412 CURVE",
"513 412 LINE",
"583 424 OFFCURVE",
"548 506 OFFCURVE",
"522 533 CURVE SMOOTH",
"473 584 OFFCURVE",
"364 620 OFFCURVE",
"271 617 CURVE SMOOTH",
"149 612 OFFCURVE",
"58 537 OFFCURVE",
"67 450 CURVE SMOOTH",
"71 400 OFFCURVE",
"103 376 OFFCURVE",
"134 353 CURVE SMOOTH",
"143 347 OFFCURVE",
"148 343 OFFCURVE",
"153 339 CURVE SMOOTH",
"154 338 OFFCURVE",
"155 336 OFFCURVE",
"157 335 CURVE",
"94 289 OFFCURVE",
"65 233 OFFCURVE",
"70 169 CURVE SMOOTH",
"79 46 OFFCURVE",
"201 -16 OFFCURVE",
"326 -21 CURVE SMOOTH"
);
}
);
vertWidth = 1000;
width = 665;
}
);
note = cid00070;
unicode = 0065;
},
{
color = 3;
glyphname = f;
lastChange = "2021-01-02 15:09:44 +0000";
layers = (
{
hints = (
{
horizontal = 1;
place = "{-7, 21}";
target = up;
type = BottomGhost;
},
{
horizontal = 1;
place = "{414, 51}";
type = Stem;
},
{
horizontal = 1;
place = "{609, 43}";
type = Stem;
},
{
place = "{211, 66}";
type = Stem;
},
{
place = "{364, 81}";
type = Stem;
},
{
horizontal = 1;
place = "{-7, 75}";
type = Stem;
}
);
layerId = "38E14F89-90D8-48C8-A96B-0BF2B2C9AEC9";
paths = (
{
closed = 1;
nodes = (
"435 -40 OFFCURVE",
"454 164 OFFCURVE",
"485 294 CURVE",
"497 299 OFFCURVE",
"516 297 OFFCURVE",
"539 295 CURVE SMOOTH",
"571 292 OFFCURVE",
"612 288 OFFCURVE",
"614 321 CURVE SMOOTH",
"616 355 OFFCURVE",
"573 352 OFFCURVE",
"541 349 CURVE SMOOTH",
"514 347 OFFCURVE",
"503 347 OFFCURVE",
"498 350 CURVE",
"523 427 OFFCURVE",
"578 526 OFFCURVE",
"656 540 CURVE SMOOTH",
"665 542 OFFCURVE",
"674 542 OFFCURVE",
"683 542 CURVE SMOOTH",
"686 542 OFFCURVE",
"688 542 OFFCURVE",
"690 542 CURVE SMOOTH",
"710 541 OFFCURVE",
"732 538 OFFCURVE",
"731 566 CURVE SMOOTH",
"728 596 OFFCURVE",
"672 594 OFFCURVE",
"630 593 CURVE SMOOTH",
"566 590 OFFCURVE",
"431 592 OFFCURVE",
"360 594 CURVE SMOOTH",
"254 598 OFFCURVE",
"134 603 OFFCURVE",
"83 573 CURVE SMOOTH",
"26 542 OFFCURVE",
"24 462 OFFCURVE",
"80 439 CURVE SMOOTH",
"101 432 OFFCURVE",
"165 421 OFFCURVE",
"173 466 CURVE",
"173 469 LINE",
"164 486 OFFCURVE",
"152 484 OFFCURVE",
"123 484 CURVE SMOOTH",
"104 483 OFFCURVE",
"93 489 OFFCURVE",
"92 502 CURVE SMOOTH",
"90 518 OFFCURVE",
"119 535 OFFCURVE",
"155 540 CURVE SMOOTH",
"237 549 OFFCURVE",
"381 543 OFFCURVE",
"481 537 CURVE SMOOTH",
"491 537 OFFCURVE",
"534 534 OFFCURVE",
"546 534 CURVE",
"499 486 OFFCURVE",
"469 413 OFFCURVE",
"438 349 CURVE",
"419 349 OFFCURVE",
"398 349 OFFCURVE",
"371 349 CURVE SMOOTH",
"337 349 OFFCURVE",
"305 348 OFFCURVE",
"276 351 CURVE",
"274 354 OFFCURVE",
"273 359 OFFCURVE",
"273 366 CURVE SMOOTH",
"272 375 OFFCURVE",
"271 391 OFFCURVE",
"249 393 CURVE SMOOTH",
"201 398 OFFCURVE",
"209 320 OFFCURVE",
"258 298 CURVE",
"287 288 OFFCURVE",
"319 291 OFFCURVE",
"348 294 CURVE SMOOTH",
"375 297 OFFCURVE",
"404 301 OFFCURVE",
"426 292 CURVE",
"409 177 OFFCURVE",
"375 16 OFFCURVE",
"246 26 CURVE SMOOTH",
"216 28 OFFCURVE",
"194 43 OFFCURVE",
"192 62 CURVE SMOOTH",
"191 71 OFFCURVE",
"193 76 OFFCURVE",
"200 87 CURVE SMOOTH",
"209 103 OFFCURVE",
"210 113 OFFCURVE",
"205 129 CURVE",
"203 132 LINE",
"156 145 OFFCURVE",
"125 102 OFFCURVE",
"137 43 CURVE SMOOTH",
"145 7 OFFCURVE",
"193 -24 OFFCURVE",
"244 -28 CURVE SMOOTH"
);
}
);
vertWidth = 1000;
width = 728;
}
);
note = cid00071;
unicode = 0066;
},
{
color = 3;
glyphname = g;
lastChange = "2021-01-02 15:09:44 +0000";
layers = (
{
hints = (
{
horizontal = 1;
place = "{-151, 40}";
type = Stem;
},
{
horizontal = 1;
place = "{39, 58}";
type = Stem;
},
{
horizontal = 1;
place = "{162, 34}";
type = Stem;
},
{
horizontal = 1;
place = "{430, 34}";
type = Stem;
},
{
place = "{128, 68}";
type = Stem;
},
{
place = "{392, 63}";
type = Stem;
},
{
place = "{119, 54}";
type = Stem;
},
{
place = "{444, 65}";
type = Stem;
}
);
layerId = "38E14F89-90D8-48C8-A96B-0BF2B2C9AEC9";
paths = (
{
closed = 1;
nodes = (
"466 -104 OFFCURVE",
"477 89 OFFCURVE",
"496 219 CURVE SMOOTH",
"498 239 OFFCURVE",
"501 259 OFFCURVE",
"504 279 CURVE SMOOTH",
"509 319 OFFCURVE",
"514 359 OFFCURVE",
"517 394 CURVE SMOOTH",
"519 413 OFFCURVE",
"527 448 OFFCURVE",
"502 455 CURVE SMOOTH",
"472 461 OFFCURVE",
"462 443 OFFCURVE",
"462 391 CURVE SMOOTH",
"462 388 OFFCURVE",
"462 384 OFFCURVE",
"462 380 CURVE SMOOTH",
"462 370 OFFCURVE",
"461 361 OFFCURVE",
"458 349 CURVE SMOOTH",
"439 284 OFFCURVE",
"361 181 OFFCURVE",
"267 176 CURVE SMOOTH",
"171 171 OFFCURVE",
"112 232 OFFCURVE",
"112 334 CURVE SMOOTH",
"112 468 OFFCURVE",
"218 569 OFFCURVE",
"359 567 CURVE SMOOTH",
"408 567 OFFCURVE",
"453 555 OFFCURVE",
"487 533 CURVE SMOOTH",
"495 528 OFFCURVE",
"502 522 OFFCURVE",
"510 511 CURVE",
"525 495 OFFCURVE",
"539 476 OFFCURVE",
"571 475 CURVE",
"583 481 LINE",
"592 519 OFFCURVE",
"565 552 OFFCURVE",
"499 586 CURVE SMOOTH",
"399 639 OFFCURVE",
"293 632 OFFCURVE",
"211 589 CURVE SMOOTH",
"126 544 OFFCURVE",
"66 461 OFFCURVE",
"58 364 CURVE SMOOTH",
"51 273 OFFCURVE",
"80 203 OFFCURVE",
"145 155 CURVE SMOOTH",
"235 87 OFFCURVE",
"361 138 OFFCURVE",
"417 197 CURVE SMOOTH",
"418 198 OFFCURVE",
"422 202 OFFCURVE",
"425 206 CURVE SMOOTH",
"429 211 OFFCURVE",
"434 218 OFFCURVE",
"440 221 CURVE",
"439 214 OFFCURVE",
"437 206 OFFCURVE",
"436 198 CURVE SMOOTH",
"435 190 OFFCURVE",
"434 183 OFFCURVE",
"433 175 CURVE SMOOTH",
"423 85 OFFCURVE",
"411 -14 OFFCURVE",
"333 -33 CURVE SMOOTH",
"288 -43 OFFCURVE",
"251 -30 OFFCURVE",
"242 -1 CURVE SMOOTH",
"239 7 OFFCURVE",
"240 14 OFFCURVE",
"241 24 CURVE SMOOTH",
"242 38 OFFCURVE",
"242 55 OFFCURVE",
"230 67 CURVE",
"227 68 LINE",
"171 56 OFFCURVE",
"167 -16 OFFCURVE",
"218 -59 CURVE SMOOTH",
"231 -71 OFFCURVE",
"264 -83 OFFCURVE",
"289 -85 CURVE SMOOTH"
);
}
);
vertWidth = 1000;
width = 612;
}
);
note = cid00072;
unicode = 0067;
},
{
color = 3;
glyphname = h;
lastChange = "2021-01-02 15:09:44 +0000";
layers = (
{
hints = (
{
horizontal = 1;
place = "{0, 21}";
target = up;
type = BottomGhost;
},
{
horizontal = 1;
place = "{422, 45}";
type = Stem;
},
{
horizontal = 1;
place = "{607, 36}";
type = Stem;
},
{
place = "{108, 11}";
type = Stem;
},
{
place = "{175, 65}";
type = Stem;
},
{
place = "{457, 74}";
type = Stem;
},
{
horizontal = 1;
place = "{9, 34}";
type = Stem;
},
{
horizontal = 1;
place = "{6, 9}";
type = Stem;
}
);
layerId = "38E14F89-90D8-48C8-A96B-0BF2B2C9AEC9";
paths = (
{
closed = 1;
nodes = (
"639 -27 OFFCURVE",
"638 14 OFFCURVE",
"627 57 CURVE SMOOTH",
"614 144 OFFCURVE",
"596 239 OFFCURVE",
"603 325 CURVE",
"613 327 OFFCURVE",
"630 326 OFFCURVE",
"649 325 CURVE SMOOTH",
"685 323 OFFCURVE",
"732 320 OFFCURVE",
"725 355 CURVE SMOOTH",
"720 381 OFFCURVE",
"687 378 OFFCURVE",
"659 376 CURVE SMOOTH",
"621 372 OFFCURVE",
"607 374 OFFCURVE",
"600 383 CURVE",
"611 459 OFFCURVE",
"620 520 OFFCURVE",
"670 560 CURVE SMOOTH",
"716 597 OFFCURVE",
"717 616 OFFCURVE",
"680 630 CURVE",
"592 604 OFFCURVE",
"566 528 OFFCURVE",
"543 379 CURVE",
"457 376 OFFCURVE",
"348 370 OFFCURVE",
"269 381 CURVE",
"263 468 OFFCURVE",
"251 587 OFFCURVE",
"174 612 CURVE SMOOTH",
"155 619 OFFCURVE",
"60 629 OFFCURVE",
"82 572 CURVE SMOOTH",
"93 563 OFFCURVE",
"100 558 OFFCURVE",
"128 562 CURVE SMOOTH",
"138 564 OFFCURVE",
"144 564 OFFCURVE",
"149 562 CURVE",
"192 551 OFFCURVE",
"214 480 OFFCURVE",
"206 378 CURVE",
"177 374 OFFCURVE",
"147 375 OFFCURVE",
"126 380 CURVE",
"125 420 OFFCURVE",
"105 428 OFFCURVE",
"88 419 CURVE SMOOTH",
"69 409 OFFCURVE",
"54 377 OFFCURVE",
"76 348 CURVE",
"94 327 OFFCURVE",
"126 326 OFFCURVE",
"153 326 CURVE SMOOTH",
"173 326 OFFCURVE",
"192 326 OFFCURVE",
"206 319 CURVE",
"194 215 OFFCURVE",
"173 124 OFFCURVE",
"130 53 CURVE SMOOTH",
"127 48 OFFCURVE",
"123 43 OFFCURVE",
"114 34 CURVE SMOOTH",
"99 19 OFFCURVE",
"82 0 OFFCURVE",
"88 -28 CURVE",
"125 -45 OFFCURVE",
"135 -37 OFFCURVE",
"173 21 CURVE SMOOTH",
"225 105 OFFCURVE",
"246 220 OFFCURVE",
"267 322 CURVE",
"352 325 OFFCURVE",
"462 331 OFFCURVE",
"542 320 CURVE",
"543 272 OFFCURVE",
"557 147 OFFCURVE",
"562 108 CURVE SMOOTH",
"576 2 OFFCURVE",
"582 -32 OFFCURVE",
"609 -31 CURVE SMOOTH"
);
}
);
vertWidth = 1000;
width = 793;
}
);
note = cid00073;
unicode = 0068;
},
{
color = 3;
glyphname = i;
lastChange = "2020-12-24 23:28:07 +0000";
layers = (
{
hints = (
{
horizontal = 1;
place = "{0, 21}";
target = up;
type = BottomGhost;
},
{
horizontal = 1;
place = "{405, 54}";
type = Stem;
},
{
horizontal = 1;
place = "{533, 99}";
type = Stem;
},
{
place = "{174, 97}";
type = Stem;
},
{
place = "{188, 77}";
type = Stem;
},
{
horizontal = 1;
place = "{0, 82}";
type = Stem;
}
);
layerId = "38E14F89-90D8-48C8-A96B-0BF2B2C9AEC9";
paths = (
{
closed = 1;
nodes = (
"352 61 OFFCURVE",
"398 292 OFFCURVE",
"385 467 CURVE SMOOTH",
"378 560 OFFCURVE",
"320 704 OFFCURVE",
"225 622 CURVE SMOOTH",
"95 509 OFFCURVE",
"126 150 OFFCURVE",
"239 48 CURVE",
"193 -17 OFFCURVE",
"120 42 OFFCURVE",
"97 97 CURVE SMOOTH",
"94 103 OFFCURVE",
"92 112 OFFCURVE",
"90 121 CURVE SMOOTH",
"80 163 OFFCURVE",
"72 173 OFFCURVE",
"41 174 CURVE",
"39 172 LINE SMOOTH",
"20 153 OFFCURVE",
"24 122 OFFCURVE",
"44 76 CURVE SMOOTH",
"74 2 OFFCURVE",
"174 -73 OFFCURVE",
"260 -8 CURVE SMOOTH"
);
},
{
closed = 1;
nodes = (
"178 194 OFFCURVE",
"157 516 OFFCURVE",
"274 586 CURVE SMOOTH",
"309 606 OFFCURVE",
"328 497 OFFCURVE",
"332 463 CURVE SMOOTH",
"341 324 OFFCURVE",
"317 181 OFFCURVE",
"268 98 CURVE"
);
}
);
vertWidth = 1000;
width = 459;
}
);
note = cid00074;
unicode = 0069;
},
{
color = 3;
glyphname = j;
lastChange = "2021-01-02 15:09:44 +0000";
layers = (
{
hints = (
{
horizontal = 1;
place = "{-159, 43}";
type = Stem;
},
{
horizontal = 1;
place = "{444, 16}";
type = Stem;
},
{
horizontal = 1;
place = "{534, 99}";
type = Stem;
},
{
place = "{211, 102}";
type = Stem;
},
{
place = "{245, 62}";
type = Stem;
}
);
layerId = "38E14F89-90D8-48C8-A96B-0BF2B2C9AEC9";
paths = (
{
closed = 1;
nodes = (
"441 73 OFFCURVE",
"445 180 OFFCURVE",
"449 291 CURVE SMOOTH",
"452 375 OFFCURVE",
"456 451 OFFCURVE",
"485 514 CURVE",
"494 516 OFFCURVE",
"511 516 OFFCURVE",
"540 514 CURVE SMOOTH",
"580 512 OFFCURVE",
"633 509 OFFCURVE",
"626 545 CURVE SMOOTH",
"622 563 OFFCURVE",
"601 568 OFFCURVE",
"547 566 CURVE SMOOTH",
"546 566 OFFCURVE",
"544 566 OFFCURVE",
"540 566 CURVE SMOOTH",
"527 566 OFFCURVE",
"492 565 OFFCURVE",
"442 565 CURVE SMOOTH",
"357 564 OFFCURVE",
"270 564 OFFCURVE",
"213 568 CURVE",
"212 570 OFFCURVE",
"210 574 OFFCURVE",
"209 581 CURVE SMOOTH",
"207 604 OFFCURVE",
"196 613 OFFCURVE",
"175 609 CURVE SMOOTH",
"170 608 LINE",
"135 549 OFFCURVE",
"159 516 OFFCURVE",
"242 512 CURVE SMOOTH",
"257 511 OFFCURVE",
"274 512 OFFCURVE",
"292 512 CURVE SMOOTH",
"300 512 OFFCURVE",
"309 512 OFFCURVE",
"317 512 CURVE SMOOTH",
"359 514 OFFCURVE",
"398 516 OFFCURVE",
"420 508 CURVE",
"401 446 OFFCURVE",
"396 378 OFFCURVE",
"394 304 CURVE SMOOTH",
"389 155 OFFCURVE",
"374 25 OFFCURVE",
"251 11 CURVE SMOOTH",
"158 0 OFFCURVE",
"100 39 OFFCURVE",
"97 111 CURVE SMOOTH",
"95 149 OFFCURVE",
"110 186 OFFCURVE",
"138 217 CURVE SMOOTH",
"142 221 OFFCURVE",
"146 224 OFFCURVE",
"157 231 CURVE SMOOTH",
"188 249 OFFCURVE",
"192 263 OFFCURVE",
"187 289 CURVE",
"150 304 OFFCURVE",
"125 290 OFFCURVE",
"82 234 CURVE SMOOTH",
"52 196 OFFCURVE",
"37 151 OFFCURVE",
"40 108 CURVE SMOOTH",
"47 -44 OFFCURVE",
"272 -92 OFFCURVE",
"376 10 CURVE SMOOTH"
);
}
);
vertWidth = 1000;
width = 606;
}
);
note = cid00075;
unicode = 006A;
},
{
color = 3;
glyphname = k;
lastChange = "2020-12-24 23:28:07 +0000";
layers = (
{
hints = (
{
horizontal = 1;
place = "{-1, 63}";
type = Stem;
},
{
horizontal = 1;
place = "{414, 41}";
type = Stem;
},
{
horizontal = 1;
place = "{602, 52}";
type = Stem;
},
{
place = "{180, 61}";
type = Stem;
},
{
horizontal = 1;
place = "{3, 27}";
type = Stem;
}
);
layerId = "38E14F89-90D8-48C8-A96B-0BF2B2C9AEC9";
paths = (
{
closed = 1;
nodes = (
"542 -37 OFFCURVE",
"596 -27 OFFCURVE",
"666 -6 CURVE SMOOTH",
"708 9 OFFCURVE",
"723 15 OFFCURVE",
"726 48 CURVE",
"707 68 OFFCURVE",
"693 68 OFFCURVE",
"654 51 CURVE SMOOTH",
"612 32 OFFCURVE",
"574 23 OFFCURVE",
"546 27 CURVE SMOOTH",
"486 37 OFFCURVE",
"486 99 OFFCURVE",
"487 174 CURVE SMOOTH",
"488 229 OFFCURVE",
"488 291 OFFCURVE",
"457 332 CURVE SMOOTH",
"436 361 OFFCURVE",
"407 376 OFFCURVE",
"387 384 CURVE",
"440 441 OFFCURVE",
"523 501 OFFCURVE",
"597 533 CURVE SMOOTH",
"599 534 OFFCURVE",
"602 535 OFFCURVE",
"609 537 CURVE",
"612 539 OFFCURVE",
"615 540 OFFCURVE",
"619 541 CURVE SMOOTH",
"687 561 OFFCURVE",
"712 582 OFFCURVE",
"661 606 CURVE",
"542 582 OFFCURVE",
"437 516 OFFCURVE",
"311 389 CURVE",
"264 383 OFFCURVE",
"244 337 OFFCURVE",
"278 310 CURVE SMOOTH",
"293 305 OFFCURVE",
"305 304 OFFCURVE",
"329 322 CURVE SMOOTH",
"351 338 OFFCURVE",
"375 337 OFFCURVE",
"398 318 CURVE SMOOTH",
"432 291 OFFCURVE",
"432 234 OFFCURVE",
"432 172 CURVE SMOOTH",
"432 101 OFFCURVE",
"433 21 OFFCURVE",
"494 -12 CURVE SMOOTH"
);
},
{
closed = 1;
nodes = (
"82 -36 OFFCURVE",
"99 -24 OFFCURVE",
"134 28 CURVE SMOOTH",
"145 46 OFFCURVE",
"154 68 OFFCURVE",
"175 121 CURVE SMOOTH",
"219 234 OFFCURVE",
"263 495 OFFCURVE",
"169 584 CURVE SMOOTH",
"122 627 OFFCURVE",
"26 620 OFFCURVE",
"40 564 CURVE",
"52 556 OFFCURVE",
"59 551 OFFCURVE",
"85 556 CURVE SMOOTH",
"142 562 OFFCURVE",
"162 500 OFFCURVE",
"168 432 CURVE SMOOTH",
"179 286 OFFCURVE",
"139 145 OFFCURVE",
"84 58 CURVE SMOOTH",
"82 54 OFFCURVE",
"79 50 OFFCURVE",
"71 40 CURVE SMOOTH",
"46 10 OFFCURVE",
"40 -6 OFFCURVE",
"50 -25 CURVE",
"52 -27 LINE"
);
}
);
vertWidth = 1000;
width = 724;
}
);
note = cid00076;
unicode = 006B;
},
{
color = 3;
glyphname = l;
lastChange = "2021-01-02 15:09:44 +0000";
layers = (
{
hints = (
{
horizontal = 1;
place = "{-2, 21}";
target = up;
type = BottomGhost;
},
{
horizontal = 1;
place = "{665, -20}";
target = down;
type = TopGhost;
},
{
place = "{121, 11}";
type = Stem;
},
{
place = "{184, 65}";
type = Stem;
},
{
horizontal = 1;
place = "{-2, 67}";
type = Stem;
},
{
horizontal = 1;
place = "{598, 47.1}";
type = Stem;
},
{
horizontal = 1;
place = "{-2, 56}";
type = Stem;
}
);
layerId = "38E14F89-90D8-48C8-A96B-0BF2B2C9AEC9";
paths = (
{
closed = 1;
nodes = (
"490 -21 OFFCURVE",
"590 -24 OFFCURVE",
"634 40 CURVE SMOOTH",
"646 56 OFFCURVE",
"678 151 OFFCURVE",
"622 141 CURVE SMOOTH",
"608 138 OFFCURVE",
"602 125 OFFCURVE",
"597 95 CURVE SMOOTH",
"591 58 OFFCURVE",
"563 39 OFFCURVE",
"511 36 CURVE SMOOTH",
"417 27 OFFCURVE",
"293 36 OFFCURVE",
"201 43 CURVE",
"204 51 OFFCURVE",
"209 59 OFFCURVE",
"215 68 CURVE SMOOTH",
"220 75 OFFCURVE",
"225 83 OFFCURVE",
"229 91 CURVE SMOOTH",
"252 149 OFFCURVE",
"263 223 OFFCURVE",
"273 296 CURVE SMOOTH",
"284 382 OFFCURVE",
"296 466 OFFCURVE",
"327 517 CURVE SMOOTH",
"360 573 OFFCURVE",
"459 578 OFFCURVE",
"462 499 CURVE SMOOTH",
"465 450 OFFCURVE",
"430 401 OFFCURVE",
"365 361 CURVE",
"359 358 OFFCURVE",
"355 357 OFFCURVE",
"348 355 CURVE SMOOTH",
"318 343 OFFCURVE",
"301 324 OFFCURVE",
"303 304 CURVE",
"304 301 LINE",
"328 284 OFFCURVE",
"342 287 OFFCURVE",
"395 320 CURVE SMOOTH",
"453 353 OFFCURVE",
"522 409 OFFCURVE",
"517 502 CURVE SMOOTH",
"512 608 OFFCURVE",
"381 639 OFFCURVE",
"317 590 CURVE SMOOTH",
"249 539 OFFCURVE",
"233 418 OFFCURVE",
"218 304 CURVE SMOOTH",
"202 189 OFFCURVE",
"186 81 OFFCURVE",
"126 49 CURVE SMOOTH",
"118 45 OFFCURVE",
"108 44 OFFCURVE",
"78 40 CURVE SMOOTH",
"24 35 OFFCURVE",
"2 28 OFFCURVE",
"2 10 CURVE SMOOTH",
"2 -16 OFFCURVE",
"34 -15 OFFCURVE",
"55 -14 CURVE SMOOTH",
"103 -12 OFFCURVE",
"174 -13 OFFCURVE",
"204 -14 CURVE SMOOTH",
"210 -14 OFFCURVE",
"215 -14 OFFCURVE",
"217 -14 CURVE SMOOTH",
"267 -14 OFFCURVE",
"328 -15 OFFCURVE",
"376 -17 CURVE SMOOTH"
);
}
);
vertWidth = 1000;
width = 666;
}
);
note = cid00077;
unicode = 006C;
},
{
glyphname = lslash;
lastChange = "2020-12-28 10:19:54 +0000";
layers = (
{
components = (
{
name = l;
}
);
hints = (
{
horizontal = 1;
place = "{-3, 21}";
target = up;
type = BottomGhost;
},
{
place = "{158, 75}";
type = Stem;
}
);
layerId = "38E14F89-90D8-48C8-A96B-0BF2B2C9AEC9";
paths = (
{
closed = 1;
nodes = (
"67 110 OFFCURVE",
"92 120 OFFCURVE",
"113 125 CURVE",
"181 151 OFFCURVE",
"373 210 OFFCURVE",
"423 221 CURVE",
"444 221 OFFCURVE",
"463 234 OFFCURVE",
"460 253 CURVE",
"451 261 OFFCURVE",
"431 267 OFFCURVE",
"412 261 CURVE SMOOTH",
"357 246 OFFCURVE",
"227 207 OFFCURVE",
"134 178 CURVE SMOOTH",
"110 170 OFFCURVE",
"70 159 OFFCURVE",
"50 146 CURVE SMOOTH",
"34 136 OFFCURVE",
"32 123 OFFCURVE",
"47 107 CURVE"
);
}
);
vertWidth = 1000;
width = 666;
}
);
leftMetricsKey = l;
note = cid00147;
rightMetricsKey = l;
unicode = 0142;
},
{
color = 3;
glyphname = m;
lastChange = "2021-01-02 15:09:44 +0000";
layers = (
{
hints = (
{
horizontal = 1;
place = "{7, 45}";
type = Stem;
},
{
horizontal = 1;
place = "{411, 51}";
type = Stem;
},
{
place = "{158, 78}";
type = Stem;
},
{
place = "{422, 66}";
type = Stem;
},
{
place = "{680, 68}";
type = Stem;
},
{
horizontal = 1;
place = "{2, 13}";
type = Stem;
},
{
horizontal = 1;
place = "{418, 35}";
type = Stem;
},
{
horizontal = 1;
place = "{420, 51}";
type = Stem;
}
);
layerId = "38E14F89-90D8-48C8-A96B-0BF2B2C9AEC9";
paths = (
{
closed = 1;
nodes = (
"48 -128 OFFCURVE",
"79 -75 OFFCURVE",
"103 -40 CURVE SMOOTH",
"186 84 OFFCURVE",
"192 317 OFFCURVE",
"192 500 CURVE",
"286 412 OFFCURVE",
"336 257 OFFCURVE",
"385 118 CURVE SMOOTH",
"386 115 OFFCURVE",
"387 109 OFFCURVE",
"392 94 CURVE SMOOTH",
"418 -2 OFFCURVE",
"435 -35 OFFCURVE",
"459 -30 CURVE SMOOTH",
"477 -27 OFFCURVE",
"484 -2 OFFCURVE",
"494 76 CURVE SMOOTH",
"495 85 OFFCURVE",
"496 94 OFFCURVE",
"497 101 CURVE SMOOTH",
"519 236 OFFCURVE",
"546 377 OFFCURVE",
"611 461 CURVE SMOOTH",
"647 507 OFFCURVE",
"684 522 OFFCURVE",
"730 511 CURVE",
"729 482 OFFCURVE",
"726 447 OFFCURVE",
"722 407 CURVE SMOOTH",
"721 397 OFFCURVE",
"720 387 OFFCURVE",
"719 376 CURVE SMOOTH",
"716 338 OFFCURVE",
"712 297 OFFCURVE",
"710 256 CURVE SMOOTH",
"706 165 OFFCURVE",
"701 51 OFFCURVE",
"741 -8 CURVE SMOOTH",
"761 -38 OFFCURVE",
"793 -54 OFFCURVE",
"841 -47 CURVE SMOOTH",
"876 -42 OFFCURVE",
"967 -3 OFFCURVE",
"947 44 CURVE",
"941 47 LINE",
"912 51 OFFCURVE",
"892 37 OFFCURVE",
"873 24 CURVE SMOOTH",
"852 9 OFFCURVE",
"832 -4 OFFCURVE",
"803 7 CURVE SMOOTH",
"776 16 OFFCURVE",
"773 63 OFFCURVE",
"768 110 CURVE SMOOTH",
"758 219 OFFCURVE",
"770 339 OFFCURVE",
"779 437 CURVE SMOOTH",
"783 477 OFFCURVE",
"787 514 OFFCURVE",
"788 545 CURVE",
"785 550 LINE",
"747 579 OFFCURVE",
"667 570 OFFCURVE",
"637 554 CURVE SMOOTH",
"529 500 OFFCURVE",
"490 335 OFFCURVE",
"458 197 CURVE SMOOTH",
"452 168 OFFCURVE",
"447 147 OFFCURVE",
"442 129 CURVE",
"428 162 OFFCURVE",
"415 198 OFFCURVE",
"401 234 CURVE SMOOTH",
"384 281 OFFCURVE",
"367 328 OFFCURVE",
"344 375 CURVE SMOOTH",
"309 448 OFFCURVE",
"250 573 OFFCURVE",
"153 578 CURVE SMOOTH",
"151 578 LINE",
"143 576 OFFCURVE",
"137 570 OFFCURVE",
"134 561 CURVE",
"136 294 OFFCURVE",
"144 61 OFFCURVE",
"15 -60 CURVE SMOOTH",
"11 -64 OFFCURVE",
"7 -67 OFFCURVE",
"3 -71 CURVE SMOOTH",
"-13 -85 OFFCURVE",
"-24 -94 OFFCURVE",
"-14 -122 CURVE",
"-7 -125 LINE"
);
}
);
vertWidth = 1000;
width = 922;
}
);
note = cid00078;
unicode = 006D;
},
{
color = 3;
glyphname = n;
lastChange = "2020-12-24 23:28:07 +0000";
layers = (
{
hints = (
{
horizontal = 1;
place = "{406, 55}";
type = Stem;
},
{
place = "{179, 65}";
type = Stem;
},
{
place = "{458, 62}";
type = Stem;
}
);
layerId = "38E14F89-90D8-48C8-A96B-0BF2B2C9AEC9";
paths = (
{
closed = 1;
nodes = (
"101 -97 OFFCURVE",
"139 -64 OFFCURVE",
"145 -57 CURVE SMOOTH",
"197 6 OFFCURVE",
"190 116 OFFCURVE",
"183 224 CURVE SMOOTH",
"177 300 OFFCURVE",
"172 374 OFFCURVE",
"187 432 CURVE",
"326 285 OFFCURVE",
"439 140 OFFCURVE",
"516 12 CURVE SMOOTH",
"519 7 OFFCURVE",
"522 3 OFFCURVE",
"526 -4 CURVE SMOOTH",
"546 -41 OFFCURVE",
"553 -47 OFFCURVE",
"576 -51 CURVE",
"597 -33 OFFCURVE",
"600 -19 OFFCURVE",
"593 29 CURVE SMOOTH",
"592 36 OFFCURVE",
"591 43 OFFCURVE",
"590 48 CURVE",
"574 256 OFFCURVE",
"597 506 OFFCURVE",
"691 618 CURVE SMOOTH",
"723 656 OFFCURVE",
"722 652 OFFCURVE",
"720 677 CURVE",
"707 690 OFFCURVE",
"692 692 OFFCURVE",
"678 680 CURVE SMOOTH",
"575 599 OFFCURVE",
"524 404 OFFCURVE",
"529 110 CURVE",
"464 198 OFFCURVE",
"324 371 OFFCURVE",
"253 442 CURVE SMOOTH",
"226 468 OFFCURVE",
"195 497 OFFCURVE",
"194 518 CURVE SMOOTH",
"194 532 OFFCURVE",
"203 539 OFFCURVE",
"214 549 CURVE SMOOTH",
"241 574 OFFCURVE",
"241 580 OFFCURVE",
"230 601 CURVE",
"195 617 OFFCURVE",
"165 597 OFFCURVE",
"144 545 CURVE SMOOTH",
"116 478 OFFCURVE",
"122 372 OFFCURVE",
"129 267 CURVE SMOOTH",
"135 154 OFFCURVE",
"142 42 OFFCURVE",
"106 -16 CURVE SMOOTH",
"93 -40 OFFCURVE",
"65 -58 OFFCURVE",
"35 -63 CURVE SMOOTH",
"-18 -69 OFFCURVE",
"-42 -79 OFFCURVE",
"-40 -99 CURVE SMOOTH",
"-38 -128 OFFCURVE",
"4 -132 OFFCURVE",
"66 -110 CURVE SMOOTH"
);
}
);
vertWidth = 1000;
width = 721;
}
);
note = cid00079;
unicode = 006E;
},
{
color = 3;
glyphname = o;
lastChange = "2020-12-24 23:28:07 +0000";
layers = (
{
hints = (
{
horizontal = 1;
place = "{-12, 48}";
type = Stem;
},
{
horizontal = 1;
place = "{426, 43}";
type = Stem;
},
{
place = "{95, 81}";
type = Stem;
},
{
place = "{451, 73}";
type = Stem;
}
);
layerId = "38E14F89-90D8-48C8-A96B-0BF2B2C9AEC9";
paths = (
{
closed = 1;
nodes = (
"508 -66 OFFCURVE",
"652 63 OFFCURVE",
"665 245 CURVE SMOOTH",
"678 432 OFFCURVE",
"579 579 OFFCURVE",
"426 595 CURVE SMOOTH",
"353 603 OFFCURVE",
"326 586 OFFCURVE",
"285 563 CURVE",
"226 607 OFFCURVE",
"141 504 OFFCURVE",
"117 470 CURVE SMOOTH",
"54 377 OFFCURVE",
"44 254 OFFCURVE",
"81 151 CURVE SMOOTH",
"120 41 OFFCURVE",
"210 -47 OFFCURVE",
"331 -55 CURVE SMOOTH"
);
},
{
closed = 1;
nodes = (
"232 8 OFFCURVE",
"168 81 OFFCURVE",
"137 169 CURVE SMOOTH",
"94 291 OFFCURVE",
"115 442 OFFCURVE",
"225 502 CURVE",
"200 439 OFFCURVE",
"202 380 OFFCURVE",
"228 336 CURVE SMOOTH",
"245 309 OFFCURVE",
"273 282 OFFCURVE",
"296 269 CURVE SMOOTH",
"342 242 OFFCURVE",
"375 237 OFFCURVE",
"397 256 CURVE",
"400 262 LINE",
"396 293 OFFCURVE",
"369 301 OFFCURVE",
"349 306 CURVE SMOOTH",
"342 308 OFFCURVE",
"339 309 OFFCURVE",
"333 311 CURVE",
"332 311 OFFCURVE",
"330 312 OFFCURVE",
"328 313 CURVE SMOOTH",
"294 332 OFFCURVE",
"268 363 OFFCURVE",
"262 393 CURVE SMOOTH",
"244 481 OFFCURVE",
"322 554 OFFCURVE",
"421 542 CURVE SMOOTH",
"546 526 OFFCURVE",
"621 405 OFFCURVE",
"607 245 CURVE SMOOTH",
"595 110 OFFCURVE",
"494 -19 OFFCURVE",
"325 -1 CURVE SMOOTH"
);
}
);
vertWidth = 1000;
width = 726;
}
);
note = cid00080;
unicode = 006F;
},
{
glyphname = oslash;
lastChange = "2020-12-28 10:20:45 +0000";
layers = (
{
components = (
{
name = o;
}
);
hints = (
{
horizontal = 1;
place = "{-9, 72}";
type = Stem;
},
{
horizontal = 1;
place = "{440, 72}";
type = Stem;
},
{
place = "{65, 73}";
type = Stem;
},
{
place = "{463, 72}";
type = Stem;
},
{
horizontal = 1;
place = "{523, -20}";
target = down;
type = TopGhost;
}
);
layerId = "38E14F89-90D8-48C8-A96B-0BF2B2C9AEC9";
paths = (
{
closed = 1;
nodes = (
"163 -31 OFFCURVE",
"186 -7 OFFCURVE",
"211 24 CURVE SMOOTH",
"311 148 OFFCURVE",
"493 374 OFFCURVE",
"576 475 CURVE SMOOTH",
"622 532 OFFCURVE",
"619 560 OFFCURVE",
"599 568 CURVE SMOOTH",
"570 579 OFFCURVE",
"554 556 OFFCURVE",
"547 526 CURVE",
"490 453 LINE",
"376 305 OFFCURVE",
"262 174 OFFCURVE",
"162 49 CURVE SMOOTH",
"129 8 OFFCURVE",
"132 -26 OFFCURVE",
"149 -29 CURVE SMOOTH"
);
}
);
vertWidth = 1000;
width = 726;
}
);
leftMetricsKey = o;
note = cid00148;
rightMetricsKey = o;
unicode = 00F8;
},
{
color = 3;
glyphname = p;
lastChange = "2021-01-02 15:09:44 +0000";
layers = (
{
hints = (
{
horizontal = 1;
place = "{13, 36}";
type = Stem;
},
{
horizontal = 1;
place = "{420, 42}";
type = Stem;
},
{
place = "{163, 68}";
type = Stem;
},
{
place = "{472, 79}";
type = Stem;
},
{
horizontal = 1;
place = "{446, 20}";
type = Stem;
}
);
layerId = "38E14F89-90D8-48C8-A96B-0BF2B2C9AEC9";
paths = (
{
closed = 1;
nodes = (
"302 -76 OFFCURVE",
"314 -43 OFFCURVE",
"310 47 CURVE SMOOTH",
"308 68 OFFCURVE",
"307 146 OFFCURVE",
"306 194 CURVE SMOOTH",
"306 314 OFFCURVE",
"305 433 OFFCURVE",
"310 539 CURVE",
"472 548 OFFCURVE",
"575 509 OFFCURVE",
"611 425 CURVE SMOOTH",
"658 316 OFFCURVE",
"563 192 OFFCURVE",
"441 206 CURVE SMOOTH",
"431 207 OFFCURVE",
"420 212 OFFCURVE",
"411 217 CURVE SMOOTH",
"394 227 OFFCURVE",
"374 239 OFFCURVE",
"350 221 CURVE",
"347 215 LINE",
"358 173 OFFCURVE",
"396 152 OFFCURVE",
"460 152 CURVE SMOOTH",
"582 153 OFFCURVE",
"683 255 OFFCURVE",
"679 374 CURVE SMOOTH",
"675 517 OFFCURVE",
"530 588 OFFCURVE",
"384 594 CURVE SMOOTH",
"281 599 OFFCURVE",
"183 574 OFFCURVE",
"123 526 CURVE SMOOTH",
"82 493 OFFCURVE",
"26 439 OFFCURVE",
"39 365 CURVE SMOOTH",
"44 332 OFFCURVE",
"96 274 OFFCURVE",
"137 303 CURVE",
"137 304 LINE",
"148 318 OFFCURVE",
"139 334 OFFCURVE",
"113 353 CURVE SMOOTH",
"99 362 OFFCURVE",
"95 368 OFFCURVE",
"94 382 CURVE SMOOTH",
"86 454 OFFCURVE",
"176 510 OFFCURVE",
"246 526 CURVE",
"254 424 OFFCURVE",
"252 299 OFFCURVE",
"251 181 CURVE SMOOTH",
"251 161 OFFCURVE",
"254 91 OFFCURVE",
"249 48 CURVE SMOOTH",
"239 -39 OFFCURVE",
"251 -73 OFFCURVE",
"275 -74 CURVE SMOOTH"
);
}
);
vertWidth = 1000;
width = 726;
}
);
note = cid00081;
unicode = 0070;
},
{
glyphname = thorn;
lastChange = "2020-12-28 14:56:46 +0000";
layers = (
{
hints = (
{
horizontal = 1;
place = "{-29, 74}";
type = Stem;
},
{
horizontal = 1;
place = "{462, 74}";
type = Stem;
},
{
place = "{100, 73}";
type = Stem;
},
{
place = "{495, 78}";
type = Stem;
},
{
place = "{100, 70}";
type = Stem;
},
{
horizontal = 1;
place = "{-9, 39}";
type = Stem;
},
{
horizontal = 1;
place = "{417, 42}";
type = Stem;
},
{
place = "{151, 57}";
type = Stem;
},
{
place = "{451, 73}";
type = Stem;
},
{
horizontal = 1;
place = "{-1, 21}";
target = up;
type = BottomGhost;
},
{
horizontal = 1;
place = "{13, 36}";
type = Stem;
},
{
horizontal = 1;
place = "{420, 42}";
type = Stem;
},
{
place = "{163, 68}";
type = Stem;
},
{
place = "{472, 79}";
type = Stem;
},
{
horizontal = 1;
place = "{446, 20}";
type = Stem;
}
);
layerId = "38E14F89-90D8-48C8-A96B-0BF2B2C9AEC9";
paths = (
{
closed = 1;
nodes = (
"63 -169 OFFCURVE",
"92 -166 OFFCURVE",
"132 -161 CURVE SMOOTH",
"166 -157 OFFCURVE",
"208 -159 OFFCURVE",
"252 -162 CURVE SMOOTH",
"288 -164 OFFCURVE",
"311 -169 OFFCURVE",
"329 -147 CURVE",
"311 -119 OFFCURVE",
"280 -119 OFFCURVE",
"255 -113 CURVE SMOOTH",
"219 -104 OFFCURVE",
"217 -70 OFFCURVE",
"216 -42 CURVE SMOOTH",
"207 207 OFFCURVE",
"203 456 OFFCURVE",
"214 598 CURVE SMOOTH",
"216 626 OFFCURVE",
"195 664 OFFCURVE",
"147 652 CURVE SMOOTH",
"112 643 OFFCURVE",
"82 620 OFFCURVE",
"67 597 CURVE",
"72 584 OFFCURVE",
"88 584 OFFCURVE",
"99 589 CURVE SMOOTH",
"118 598 OFFCURVE",
"138 606 OFFCURVE",
"147 594 CURVE SMOOTH",
"156 582 OFFCURVE",
"159 530 OFFCURVE",
"158 466 CURVE SMOOTH",
"157 370 OFFCURVE",
"155 52 OFFCURVE",
"154 -36 CURVE SMOOTH",
"153 -75 OFFCURVE",
"141 -107 OFFCURVE",
"115 -114 CURVE SMOOTH",
"72 -126 OFFCURVE",
"40 -136 OFFCURVE",
"40 -162 CURVE"
);
},
{
closed = 1;
nodes = (
"337 38 OFFCURVE",
"516 67 OFFCURVE",
"530 242 CURVE SMOOTH",
"542 397 OFFCURVE",
"388 480 OFFCURVE",
"271 420 CURVE SMOOTH",
"221 394 OFFCURVE",
"205 375 OFFCURVE",
"215 350 CURVE",
"238 350 OFFCURVE",
"250 366 OFFCURVE",
"267 375 CURVE SMOOTH",
"366 431 OFFCURVE",
"473 374 OFFCURVE",
"469 254 CURVE SMOOTH",
"464 92 OFFCURVE",
"315 86 OFFCURVE",
"248 96 CURVE SMOOTH",
"211 101 OFFCURVE",
"195 63 OFFCURVE",
"258 52 CURVE SMOOTH"
);
}
);
vertWidth = 1000;
width = 591;
}
);
note = cid00221;
unicode = 00FE;
},
{
color = 3;
glyphname = q;
lastChange = "2020-12-24 23:28:07 +0000";
layers = (
{
hints = (
{
horizontal = 1;
place = "{-169, 68}";
type = Stem;
},
{
horizontal = 1;
place = "{20, 44}";
type = Stem;
},
{
horizontal = 1;
place = "{424, 43}";
type = Stem;
},
{
place = "{109, 86}";
type = Stem;
},
{
place = "{431, 142}";
type = Stem;
}
);
layerId = "38E14F89-90D8-48C8-A96B-0BF2B2C9AEC9";
paths = (
{
closed = 1;
nodes = (
"210 -67 OFFCURVE",
"252 -54 OFFCURVE",
"286 -43 CURVE SMOOTH",
"309 -35 OFFCURVE",
"330 -29 OFFCURVE",
"347 -28 CURVE SMOOTH",
"355 -27 OFFCURVE",
"368 -31 OFFCURVE",
"383 -35 CURVE SMOOTH",
"386 -36 OFFCURVE",
"390 -37 OFFCURVE",
"394 -38 CURVE SMOOTH",
"400 -40 OFFCURVE",
"408 -43 OFFCURVE",
"414 -45 CURVE SMOOTH",
"418 -46 OFFCURVE",
"422 -47 OFFCURVE",
"425 -48 CURVE SMOOTH",
"476 -59 OFFCURVE",
"539 -69 OFFCURVE",
"601 -63 CURVE SMOOTH",
"632 -62 OFFCURVE",
"688 -58 OFFCURVE",
"688 -15 CURVE",
"686 -11 LINE",
"669 7 OFFCURVE",
"644 0 OFFCURVE",
"622 -5 CURVE SMOOTH",
"613 -8 OFFCURVE",
"603 -11 OFFCURVE",
"594 -11 CURVE",
"535 -17 OFFCURVE",
"470 -8 OFFCURVE",
"425 9 CURVE",
"515 75 OFFCURVE",
"599 165 OFFCURVE",
"598 315 CURVE SMOOTH",
"597 474 OFFCURVE",
"493 622 OFFCURVE",
"301 603 CURVE SMOOTH",
"154 588 OFFCURVE",
"56 475 OFFCURVE",
"57 322 CURVE SMOOTH",
"57 189 OFFCURVE",
"144 84 OFFCURVE",
"262 77 CURVE SMOOTH",
"317 72 OFFCURVE",
"369 88 OFFCURVE",
"403 121 CURVE SMOOTH",
"439 155 OFFCURVE",
"452 192 OFFCURVE",
"436 218 CURVE SMOOTH",
"435 220 LINE",
"403 236 OFFCURVE",
"395 212 OFFCURVE",
"376 180 CURVE SMOOTH",
"360 154 OFFCURVE",
"329 133 OFFCURVE",
"300 128 CURVE SMOOTH",
"171 111 OFFCURVE",
"107 234 OFFCURVE",
"112 341 CURVE SMOOTH",
"118 442 OFFCURVE",
"188 540 OFFCURVE",
"308 551 CURVE SMOOTH",
"534 572 OFFCURVE",
"606 288 OFFCURVE",
"482 132 CURVE SMOOTH",
"458 101 OFFCURVE",
"389 33 OFFCURVE",
"344 31 CURVE SMOOTH",
"326 30 OFFCURVE",
"305 38 OFFCURVE",
"281 46 CURVE SMOOTH",
"249 59 OFFCURVE",
"212 73 OFFCURVE",
"167 69 CURVE SMOOTH",
"58 63 OFFCURVE",
"58 -55 OFFCURVE",
"167 -63 CURVE SMOOTH"
);
},
{
closed = 1;
nodes = (
"157 31 OFFCURVE",
"218 16 OFFCURVE",
"253 2 CURVE",
"223 -17 OFFCURVE",
"161 -18 OFFCURVE",
"140 1 CURVE"
);
}
);
vertWidth = 1000;
width = 671;
}
);
note = cid00082;
unicode = 0071;
},
{
color = 3;
glyphname = r;
lastChange = "2021-01-02 15:09:44 +0000";
layers = (
{
hints = (
{
horizontal = 1;
place = "{-7, 21}";
target = up;
type = BottomGhost;
},
{
horizontal = 1;
place = "{407, 44}";
type = Stem;
},
{
place = "{172, 66}";
type = Stem;
},
{
horizontal = 1;
place = "{414, 51}";
type = Stem;
}
);
layerId = "38E14F89-90D8-48C8-A96B-0BF2B2C9AEC9";
paths = (
{
closed = 1;
nodes = (
"674 -86 OFFCURVE",
"743 -107 OFFCURVE",
"733 -58 CURVE SMOOTH",
"731 -46 OFFCURVE",
"715 -38 OFFCURVE",
"670 -27 CURVE SMOOTH",
"519 11 OFFCURVE",
"418 93 OFFCURVE",
"337 190 CURVE",
"470 224 OFFCURVE",
"605 276 OFFCURVE",
"601 432 CURVE SMOOTH",
"599 570 OFFCURVE",
"420 622 OFFCURVE",
"284 613 CURVE SMOOTH",
"154 603 OFFCURVE",
"60 527 OFFCURVE",
"49 423 CURVE SMOOTH",
"39 330 OFFCURVE",
"73 262 OFFCURVE",
"129 268 CURVE",
"143 279 OFFCURVE",
"140 291 OFFCURVE",
"118 333 CURVE SMOOTH",
"107 351 OFFCURVE",
"99 365 OFFCURVE",
"100 394 CURVE SMOOTH",
"101 435 OFFCURVE",
"120 479 OFFCURVE",
"149 507 CURVE SMOOTH",
"240 596 OFFCURVE",
"494 569 OFFCURVE",
"537 465 CURVE SMOOTH",
"590 337 OFFCURVE",
"433 270 OFFCURVE",
"339 243 CURVE SMOOTH",
"332 241 OFFCURVE",
"322 241 OFFCURVE",
"315 241 CURVE SMOOTH",
"267 241 OFFCURVE",
"262 235 OFFCURVE",
"253 216 CURVE",
"260 175 OFFCURVE",
"290 148 OFFCURVE",
"320 122 CURVE SMOOTH",
"326 117 OFFCURVE",
"331 112 OFFCURVE",
"336 108 CURVE SMOOTH",
"424 27 OFFCURVE",
"521 -46 OFFCURVE",
"655 -81 CURVE SMOOTH"
);
},
{
closed = 1;
nodes = (
"237 -40 OFFCURVE",
"243 -15 OFFCURVE",
"240 59 CURVE SMOOTH",
"240 73 OFFCURVE",
"240 359 OFFCURVE",
"240 369 CURVE SMOOTH",
"244 438 OFFCURVE",
"241 467 OFFCURVE",
"212 471 CURVE",
"206 471 OFFCURVE",
"194 467 OFFCURVE",
"192 458 CURVE SMOOTH",
"183 417 OFFCURVE",
"183 346 OFFCURVE",
"184 272 CURVE SMOOTH",
"185 249 OFFCURVE",
"185 77 OFFCURVE",
"184 60 CURVE SMOOTH",
"180 -13 OFFCURVE",
"189 -40 OFFCURVE",
"213 -40 CURVE SMOOTH"
);
}
);
vertWidth = 1000;
width = 682;
}
);
note = cid00083;
unicode = 0072;
},
{
color = 3;
glyphname = s;
lastChange = "2021-01-02 15:09:44 +0000";
layers = (
{
hints = (
{
horizontal = 1;
place = "{-12, 40}";
type = Stem;
},
{
horizontal = 1;
place = "{433, 35}";
type = Stem;
},
{
place = "{134, 56}";
type = Stem;
},
{
place = "{373, 55}";
type = Stem;
},
{
horizontal = 1;
place = "{320, 134}";
type = Stem;
}
);
layerId = "38E14F89-90D8-48C8-A96B-0BF2B2C9AEC9";
paths = (
{
closed = 1;
nodes = (
"419 -47 OFFCURVE",
"510 6 OFFCURVE",
"542 72 CURVE SMOOTH",
"570 132 OFFCURVE",
"569 185 OFFCURVE",
"536 227 CURVE SMOOTH",
"487 288 OFFCURVE",
"385 318 OFFCURVE",
"309 338 CURVE SMOOTH",
"248 354 OFFCURVE",
"144 375 OFFCURVE",
"136 423 CURVE SMOOTH",
"120 507 OFFCURVE",
"222 545 OFFCURVE",
"303 545 CURVE SMOOTH",
"374 545 OFFCURVE",
"443 513 OFFCURVE",
"444 479 CURVE SMOOTH",
"444 467 OFFCURVE",
"436 459 OFFCURVE",
"424 448 CURVE SMOOTH",
"397 424 OFFCURVE",
"392 408 OFFCURVE",
"404 384 CURVE",
"425 374 OFFCURVE",
"434 372 OFFCURVE",
"457 404 CURVE SMOOTH",
"464 414 OFFCURVE",
"469 420 OFFCURVE",
"478 429 CURVE SMOOTH",
"490 442 OFFCURVE",
"504 458 OFFCURVE",
"505 475 CURVE SMOOTH",
"505 498 OFFCURVE",
"477 539 OFFCURVE",
"447 560 CURVE SMOOTH",
"382 608 OFFCURVE",
"261 611 OFFCURVE",
"171 568 CURVE SMOOTH",
"97 532 OFFCURVE",
"65 471 OFFCURVE",
"84 403 CURVE SMOOTH",
"106 329 OFFCURVE",
"204 307 OFFCURVE",
"297 285 CURVE SMOOTH",
"352 273 OFFCURVE",
"406 261 OFFCURVE",
"444 239 CURVE SMOOTH",
"497 208 OFFCURVE",
"515 156 OFFCURVE",
"494 102 CURVE SMOOTH",
"453 -5 OFFCURVE",
"218 -38 OFFCURVE",
"140 54 CURVE SMOOTH",
"117 84 OFFCURVE",
"109 131 OFFCURVE",
"125 156 CURVE SMOOTH",
"129 164 OFFCURVE",
"134 167 OFFCURVE",
"147 172 CURVE SMOOTH",
"188 188 OFFCURVE",
"193 196 OFFCURVE",
"185 226 CURVE",
"114 255 OFFCURVE",
"65 176 OFFCURVE",
"61 131 CURVE SMOOTH",
"49 16 OFFCURVE",
"166 -66 OFFCURVE",
"325 -54 CURVE SMOOTH"
);
}
);
vertWidth = 1000;
width = 616;
}
);
note = cid00084;
unicode = 0073;
},
{
glyphname = germandbls;
lastChange = "2020-12-28 10:23:03 +0000";
layers = (
{
hints = (
{
horizontal = 1;
place = "{0, 71}";
type = Stem;
},
{
horizontal = 1;
place = "{358, 71}";
type = Stem;
},
{
horizontal = 1;
place = "{680, 68}";
type = Stem;
},
{
place = "{89, 72}";
type = Stem;
},
{
place = "{475, 73}";
type = Stem;
},
{
place = "{425, 73}";
type = Stem;
}
);
layerId = "38E14F89-90D8-48C8-A96B-0BF2B2C9AEC9";
paths = (
{
closed = 1;
nodes = (
"576 -29 OFFCURVE",
"661 158 OFFCURVE",
"661 281 CURVE SMOOTH",
"661 316 OFFCURVE",
"651 349 OFFCURVE",
"636 370 CURVE SMOOTH",
"613 401 OFFCURVE",
"579 416 OFFCURVE",
"525 410 CURVE",
"566 440 OFFCURVE",
"584 502 OFFCURVE",
"587 538 CURVE SMOOTH",
"593 611 OFFCURVE",
"512 662 OFFCURVE",
"381 653 CURVE SMOOTH",
"245 642 OFFCURVE",
"165 506 OFFCURVE",
"187 383 CURVE SMOOTH",
"197 325 OFFCURVE",
"204 248 OFFCURVE",
"197 150 CURVE SMOOTH",
"191 66 OFFCURVE",
"139 16 OFFCURVE",
"147 -26 CURVE",
"210 -40 OFFCURVE",
"244 63 OFFCURVE",
"250 126 CURVE SMOOTH",
"259 232 OFFCURVE",
"247 312 OFFCURVE",
"239 374 CURVE SMOOTH",
"222 510 OFFCURVE",
"293 602 OFFCURVE",
"398 608 CURVE SMOOTH",
"436 610 OFFCURVE",
"476 602 OFFCURVE",
"496 588 CURVE SMOOTH",
"576 533 OFFCURVE",
"485 419 OFFCURVE",
"423 391 CURVE SMOOTH",
"395 378 OFFCURVE",
"333 377 OFFCURVE",
"296 339 CURVE",
"320 305 OFFCURVE",
"379 310 OFFCURVE",
"414 331 CURVE SMOOTH",
"460 359 OFFCURVE",
"517 375 OFFCURVE",
"544 370 CURVE SMOOTH",
"584 363 OFFCURVE",
"599 323 OFFCURVE",
"599 282 CURVE SMOOTH",
"599 189 OFFCURVE",
"533 48 OFFCURVE",
"450 48 CURVE SMOOTH",
"442 48 OFFCURVE",
"437 53 OFFCURVE",
"437 65 CURVE SMOOTH",
"437 89 OFFCURVE",
"424 102 OFFCURVE",
"402 95 CURVE SMOOTH",
"378 88 OFFCURVE",
"362 61 OFFCURVE",
"358 14 CURVE SMOOTH",
"356 -15 OFFCURVE",
"377 -29 OFFCURVE",
"404 -29 CURVE SMOOTH"
);
}
);
vertWidth = 1000;
width = 771;
}
);
note = cid00150;
unicode = 00DF;
},
{
color = 3;
glyphname = t;
lastChange = "2021-01-02 15:09:44 +0000";
layers = (
{
hints = (
{
horizontal = 1;
place = "{-7, 54}";
type = Stem;
},
{
horizontal = 1;
place = "{398, 51}";
type = Stem;
},
{
place = "{209, 68}";
type = Stem;
},
{
horizontal = 1;
place = "{399, 54}";
type = Stem;
}
);
layerId = "38E14F89-90D8-48C8-A96B-0BF2B2C9AEC9";
paths = (
{
closed = 1;
nodes = (
"361 -57 OFFCURVE",
"433 -1 OFFCURVE",
"466 50 CURVE SMOOTH",
"510 120 OFFCURVE",
"511 212 OFFCURVE",
"514 311 CURVE SMOOTH",
"514 322 OFFCURVE",
"515 332 OFFCURVE",
"515 343 CURVE SMOOTH",
"516 364 OFFCURVE",
"516 385 OFFCURVE",
"517 407 CURVE SMOOTH",
"521 455 OFFCURVE",
"526 522 OFFCURVE",
"562 531 CURVE SMOOTH",
"577 535 OFFCURVE",
"602 534 OFFCURVE",
"630 532 CURVE SMOOTH",
"645 532 OFFCURVE",
"686 531 OFFCURVE",
"692 530 CURVE SMOOTH",
"752 526 OFFCURVE",
"781 534 OFFCURVE",
"778 559 CURVE SMOOTH",
"776 587 OFFCURVE",
"740 584 OFFCURVE",
"715 584 CURVE SMOOTH",
"551 588 OFFCURVE",
"343 595 OFFCURVE",
"200 584 CURVE SMOOTH",
"102 577 OFFCURVE",
"-9 512 OFFCURVE",
"47 397 CURVE SMOOTH",
"71 346 OFFCURVE",
"155 308 OFFCURVE",
"229 314 CURVE SMOOTH",
"258 317 OFFCURVE",
"326 326 OFFCURVE",
"325 379 CURVE",
"324 382 LINE",
"310 393 OFFCURVE",
"294 392 OFFCURVE",
"261 380 CURVE SMOOTH",
"247 374 OFFCURVE",
"233 369 OFFCURVE",
"217 368 CURVE SMOOTH",
"151 364 OFFCURVE",
"96 397 OFFCURVE",
"91 441 CURVE SMOOTH",
"79 550 OFFCURVE",
"260 537 OFFCURVE",
"403 528 CURVE SMOOTH",
"417 528 OFFCURVE",
"431 527 OFFCURVE",
"444 526 CURVE SMOOTH",
"458 525 OFFCURVE",
"471 524 OFFCURVE",
"484 524 CURVE",
"464 455 OFFCURVE",
"462 379 OFFCURVE",
"461 308 CURVE SMOOTH",
"458 218 OFFCURVE",
"456 136 OFFCURVE",
"419 79 CURVE SMOOTH",
"394 40 OFFCURVE",
"346 10 OFFCURVE",
"301 5 CURVE SMOOTH",
"226 -4 OFFCURVE",
"174 37 OFFCURVE",
"182 97 CURVE SMOOTH",
"183 104 OFFCURVE",
"188 112 OFFCURVE",
"202 131 CURVE SMOOTH",
"227 165 OFFCURVE",
"233 180 OFFCURVE",
"220 192 CURVE SMOOTH",
"188 223 OFFCURVE",
"154 165 OFFCURVE",
"148 157 CURVE",
"95 68 OFFCURVE",
"153 -40 OFFCURVE",
"260 -49 CURVE SMOOTH"
);
}
);
vertWidth = 1000;
width = 745;
}
);
note = cid00085;
unicode = 0074;
},
{
color = 3;
glyphname = u;
lastChange = "2021-01-02 15:09:44 +0000";
layers = (
{
hints = (
{
horizontal = 1;
place = "{-4, 49}";
type = Stem;
},
{
horizontal = 1;
place = "{405, 8}";
type = Stem;
},
{
place = "{157, 64}";
type = Stem;
},
{
place = "{430, 69}";
type = Stem;
},
{
horizontal = 1;
place = "{398, 59}";
type = Stem;
},
{
horizontal = 1;
place = "{16, 29}";
type = Stem;
}
);
layerId = "38E14F89-90D8-48C8-A96B-0BF2B2C9AEC9";
paths = (
{
closed = 1;
nodes = (
"368 -47 OFFCURVE",
"436 -22 OFFCURVE",
"487 29 CURVE SMOOTH",
"494 37 OFFCURVE",
"499 44 OFFCURVE",
"510 60 CURVE SMOOTH",
"518 72 OFFCURVE",
"526 85 OFFCURVE",
"538 95 CURVE",
"550 50 OFFCURVE",
"563 -2 OFFCURVE",
"594 -25 CURVE SMOOTH",
"610 -39 OFFCURVE",
"704 -69 OFFCURVE",
"703 -19 CURVE SMOOTH",
"701 5 OFFCURVE",
"676 6 OFFCURVE",
"660 6 CURVE SMOOTH",
"658 6 OFFCURVE",
"656 6 OFFCURVE",
"654 6 CURVE SMOOTH",
"646 7 OFFCURVE",
"643 8 OFFCURVE",
"640 9 CURVE SMOOTH",
"594 27 OFFCURVE",
"588 145 OFFCURVE",
"588 252 CURVE SMOOTH",
"588 274 OFFCURVE",
"590 300 OFFCURVE",
"592 330 CURVE SMOOTH",
"594 347 OFFCURVE",
"595 368 OFFCURVE",
"597 390 CURVE SMOOTH",
"597 398 OFFCURVE",
"597 405 OFFCURVE",
"598 414 CURVE SMOOTH",
"606 525 OFFCURVE",
"606 572 OFFCURVE",
"582 578 CURVE SMOOTH",
"533 589 OFFCURVE",
"543 480 OFFCURVE",
"543 468 CURVE SMOOTH",
"542 459 OFFCURVE",
"542 449 OFFCURVE",
"541 440 CURVE SMOOTH",
"540 422 OFFCURVE",
"539 404 OFFCURVE",
"537 385 CURVE SMOOTH",
"535 360 OFFCURVE",
"533 336 OFFCURVE",
"532 313 CURVE SMOOTH",
"532 301 OFFCURVE",
"532 288 OFFCURVE",
"533 276 CURVE SMOOTH",
"534 258 OFFCURVE",
"535 241 OFFCURVE",
"532 227 CURVE SMOOTH",
"525 177 OFFCURVE",
"490 117 OFFCURVE",
"461 81 CURVE SMOOTH",
"396 6 OFFCURVE",
"261 -26 OFFCURVE",
"199 60 CURVE SMOOTH",
"154 123 OFFCURVE",
"171 222 OFFCURVE",
"187 319 CURVE SMOOTH",
"198 383 OFFCURVE",
"209 446 OFFCURVE",
"201 497 CURVE SMOOTH",
"191 563 OFFCURVE",
"129 599 OFFCURVE",
"68 575 CURVE",
"52 574 OFFCURVE",
"45 550 OFFCURVE",
"57 538 CURVE",
"64 524 OFFCURVE",
"82 526 OFFCURVE",
"94 527 CURVE SMOOTH",
"124 531 OFFCURVE",
"137 521 OFFCURVE",
"143 480 CURVE SMOOTH",
"150 432 OFFCURVE",
"140 375 OFFCURVE",
"130 316 CURVE SMOOTH",
"120 266 OFFCURVE",
"112 213 OFFCURVE",
"112 164 CURVE SMOOTH",
"113 28 OFFCURVE",
"204 -40 OFFCURVE",
"303 -44 CURVE SMOOTH"
);
}
);
vertWidth = 1000;
width = 733;
}
);
note = cid00086;
unicode = 0075;
},
{
color = 3;
glyphname = v;
lastChange = "2021-01-02 15:09:44 +0000";
layers = (
{
hints = (
{
horizontal = 1;
place = "{-7, 21}";
target = up;
type = BottomGhost;
},
{
horizontal = 1;
place = "{408, 47}";
type = Stem;
},
{
place = "{88, 12}";
type = Stem;
},
{
horizontal = 1;
place = "{405, 45}";
type = Stem;
}
);
layerId = "38E14F89-90D8-48C8-A96B-0BF2B2C9AEC9";
paths = (
{
closed = 1;
nodes = (
"434 -59 OFFCURVE",
"450 -38 OFFCURVE",
"499 36 CURVE SMOOTH",
"548 108 OFFCURVE",
"585 166 OFFCURVE",
"632 240 CURVE",
"644 263 OFFCURVE",
"682 312 OFFCURVE",
"696 345 CURVE SMOOTH",
"724 410 OFFCURVE",
"712 479 OFFCURVE",
"663 530 CURVE SMOOTH",
"612 585 OFFCURVE",
"558 588 OFFCURVE",
"539 574 CURVE",
"542 549 OFFCURVE",
"543 544 OFFCURVE",
"584 518 CURVE SMOOTH",
"619 496 OFFCURVE",
"645 469 OFFCURVE",
"653 422 CURVE SMOOTH",
"658 376 OFFCURVE",
"644 362 OFFCURVE",
"599 293 CURVE SMOOTH",
"545 205 OFFCURVE",
"475 92 OFFCURVE",
"418 25 CURVE",
"388 75 OFFCURVE",
"359 146 OFFCURVE",
"338 229 CURVE SMOOTH",
"333 249 OFFCURVE",
"326 288 OFFCURVE",
"317 346 CURVE SMOOTH",
"302 461 OFFCURVE",
"288 570 OFFCURVE",
"164 584 CURVE SMOOTH",
"97 592 OFFCURVE",
"44 563 OFFCURVE",
"14 521 CURVE SMOOTH",
"-29 462 OFFCURVE",
"-26 377 OFFCURVE",
"49 326 CURVE SMOOTH",
"89 298 OFFCURVE",
"119 296 OFFCURVE",
"127 323 CURVE",
"124 343 OFFCURVE",
"119 353 OFFCURVE",
"88 370 CURVE SMOOTH",
"31 406 OFFCURVE",
"31 460 OFFCURVE",
"61 496 CURVE SMOOTH",
"87 528 OFFCURVE",
"138 546 OFFCURVE",
"191 520 CURVE SMOOTH",
"243 495 OFFCURVE",
"251 436 OFFCURVE",
"260 358 CURVE SMOOTH",
"277 240 OFFCURVE",
"300 136 OFFCURVE",
"354 28 CURVE SMOOTH",
"378 -34 OFFCURVE",
"395 -59 OFFCURVE",
"417 -59 CURVE SMOOTH"
);
}
);
vertWidth = 1000;
width = 758;
}
);
note = cid00087;
unicode = 0076;
},
{
color = 3;
glyphname = w;
lastChange = "2021-01-02 15:09:44 +0000";
layers = (
{
hints = (
{
horizontal = 1;
place = "{-5, 21}";
target = up;
type = BottomGhost;
},
{
horizontal = 1;
place = "{397, 47}";
type = Stem;
},
{
place = "{75, 671}";
type = Stem;
},
{
horizontal = 1;
place = "{400, 51}";
type = Stem;
}
);
layerId = "38E14F89-90D8-48C8-A96B-0BF2B2C9AEC9";
paths = (
{
closed = 1;
nodes = (
"732 -38 LINE",
"757 21 OFFCURVE",
"774 98 OFFCURVE",
"793 179 CURVE SMOOTH",
"838 384 OFFCURVE",
"889 610 OFFCURVE",
"1071 629 CURVE SMOOTH",
"1113 633 OFFCURVE",
"1134 631 OFFCURVE",
"1167 612 CURVE SMOOTH",
"1184 601 OFFCURVE",
"1201 592 OFFCURVE",
"1228 595 CURVE",
"1235 601 LINE",
"1241 667 OFFCURVE",
"1133 689 OFFCURVE",
"1063 682 CURVE SMOOTH",
"850 661 OFFCURVE",
"793 422 OFFCURVE",
"743 210 CURVE SMOOTH",
"728 149 OFFCURVE",
"715 88 OFFCURVE",
"697 36 CURVE",
"648 68 OFFCURVE",
"618 141 OFFCURVE",
"612 240 CURVE SMOOTH",
"608 298 OFFCURVE",
"615 352 OFFCURVE",
"621 403 CURVE SMOOTH",
"626 443 OFFCURVE",
"631 482 OFFCURVE",
"629 515 CURVE",
"627 519 LINE",
"598 528 OFFCURVE",
"592 527 OFFCURVE",
"544 491 CURVE SMOOTH",
"475 441 OFFCURVE",
"408 363 OFFCURVE",
"347 265 CURVE SMOOTH",
"343 258 OFFCURVE",
"340 251 OFFCURVE",
"337 245 CURVE SMOOTH",
"331 235 OFFCURVE",
"328 228 OFFCURVE",
"322 223 CURVE",
"343 402 OFFCURVE",
"322 614 OFFCURVE",
"131 594 CURVE SMOOTH",
"47 585 OFFCURVE",
"-35 496 OFFCURVE",
"9 396 CURVE SMOOTH",
"20 374 OFFCURVE",
"118 273 OFFCURVE",
"141 333 CURVE SMOOTH",
"146 348 OFFCURVE",
"136 360 OFFCURVE",
"110 374 CURVE SMOOTH",
"82 391 OFFCURVE",
"66 407 OFFCURVE",
"60 426 CURVE SMOOTH",
"32 502 OFFCURVE",
"115 566 OFFCURVE",
"197 534 CURVE SMOOTH",
"324 484 OFFCURVE",
"267 176 OFFCURVE",
"229 64 CURVE SMOOTH",
"227 57 OFFCURVE",
"225 52 OFFCURVE",
"219 41 CURVE SMOOTH",
"201 6 OFFCURVE",
"198 -11 OFFCURVE",
"210 -32 CURVE",
"215 -35 LINE",
"250 -40 OFFCURVE",
"261 -8 OFFCURVE",
"268 11 CURVE",
"330 144 OFFCURVE",
"392 246 OFFCURVE",
"470 343 CURVE SMOOTH",
"498 378 OFFCURVE",
"526 414 OFFCURVE",
"566 433 CURVE",
"533 162 OFFCURVE",
"588 -4 OFFCURVE",
"723 -42 CURVE"
);
}
);
vertWidth = 1000;
width = 1037;
}
);
note = cid00088;
unicode = 0077;
},
{
color = 3;
glyphname = x;
lastChange = "2020-12-24 23:28:07 +0000";
layers = (
{
hints = (
{
horizontal = 1;
place = "{0, 47}";
type = Stem;
},
{
horizontal = 1;
place = "{402, 52}";
type = Stem;
},
{
place = "{96, 450}";
type = Stem;
},
{
horizontal = 1;
place = "{-3, 57}";
type = Stem;
}
);
layerId = "38E14F89-90D8-48C8-A96B-0BF2B2C9AEC9";
paths = (
{
closed = 1;
nodes = (
"231 -17 OFFCURVE",
"278 54 OFFCURVE",
"322 121 CURVE SMOOTH",
"347 160 OFFCURVE",
"371 197 OFFCURVE",
"402 222 CURVE",
"418 104 OFFCURVE",
"500 -22 OFFCURVE",
"609 -26 CURVE SMOOTH",
"647 -28 OFFCURVE",
"686 -14 OFFCURVE",
"726 17 CURVE SMOOTH",
"747 33 OFFCURVE",
"804 66 OFFCURVE",
"763 104 CURVE SMOOTH",
"762 105 LINE",
"749 107 OFFCURVE",
"733 97 OFFCURVE",
"702 68 CURVE SMOOTH",
"673 40 OFFCURVE",
"645 18 OFFCURVE",
"596 25 CURVE SMOOTH",
"549 31 OFFCURVE",
"509 73 OFFCURVE",
"482 148 CURVE SMOOTH",
"466 190 OFFCURVE",
"445 251 OFFCURVE",
"452 285 CURVE SMOOTH",
"456 307 OFFCURVE",
"499 351 OFFCURVE",
"520 374 CURVE SMOOTH",
"593 454 OFFCURVE",
"702 560 OFFCURVE",
"803 581 CURVE SMOOTH",
"808 582 OFFCURVE",
"814 583 OFFCURVE",
"820 584 CURVE SMOOTH",
"843 588 OFFCURVE",
"868 591 OFFCURVE",
"875 616 CURVE",
"875 618 LINE",
"870 636 OFFCURVE",
"848 642 OFFCURVE",
"815 637 CURVE",
"692 627 OFFCURVE",
"574 508 OFFCURVE",
"511 439 CURVE SMOOTH",
"508 436 OFFCURVE",
"504 431 OFFCURVE",
"499 425 CURVE SMOOTH",
"483 407 OFFCURVE",
"459 379 OFFCURVE",
"439 365 CURVE",
"438 370 OFFCURVE",
"437 375 OFFCURVE",
"435 380 CURVE",
"434 389 OFFCURVE",
"432 397 OFFCURVE",
"430 406 CURVE SMOOTH",
"411 496 OFFCURVE",
"390 591 OFFCURVE",
"282 598 CURVE SMOOTH",
"241 600 OFFCURVE",
"190 580 OFFCURVE",
"157 548 CURVE SMOOTH",
"151 541 OFFCURVE",
"70 431 OFFCURVE",
"127 419 CURVE SMOOTH",
"153 414 OFFCURVE",
"159 436 OFFCURVE",
"164 454 CURVE SMOOTH",
"165 457 OFFCURVE",
"167 462 OFFCURVE",
"169 466 CURVE SMOOTH",
"171 473 OFFCURVE",
"173 476 OFFCURVE",
"175 480 CURVE SMOOTH",
"208 541 OFFCURVE",
"297 569 OFFCURVE",
"339 507 CURVE SMOOTH",
"361 475 OFFCURVE",
"398 340 OFFCURVE",
"390 303 CURVE SMOOTH",
"386 284 OFFCURVE",
"364 260 OFFCURVE",
"338 230 CURVE SMOOTH",
"304 191 OFFCURVE",
"290 175 OFFCURVE",
"261 132 CURVE SMOOTH",
"228 81 OFFCURVE",
"198 33 OFFCURVE",
"144 25 CURVE SMOOTH",
"120 21 OFFCURVE",
"104 28 OFFCURVE",
"89 35 CURVE SMOOTH",
"85 37 OFFCURVE",
"81 38 OFFCURVE",
"78 40 CURVE",
"48 51 OFFCURVE",
"25 51 OFFCURVE",
"15 40 CURVE",
"14 37 LINE",
"19 -31 OFFCURVE",
"100 -35 OFFCURVE",
"146 -29 CURVE SMOOTH"
);
}
);
vertWidth = 1000;
width = 805;
}
);
note = cid00089;
unicode = 0078;
},
{
color = 3;
glyphname = y;
lastChange = "2020-12-24 23:28:07 +0000";
layers = (
{
hints = (
{
horizontal = 1;
place = "{-161, 101}";
type = Stem;
},
{
horizontal = 1;
place = "{402, 49}";
type = Stem;
},
{
place = "{79, 490}";
type = Stem;
}
);
layerId = "38E14F89-90D8-48C8-A96B-0BF2B2C9AEC9";
paths = (
{
closed = 1;
nodes = (
"583 -104 OFFCURVE",
"594 31 OFFCURVE",
"613 153 CURVE SMOOTH",
"620 204 OFFCURVE",
"628 250 OFFCURVE",
"636 295 CURVE SMOOTH",
"638 311 OFFCURVE",
"641 327 OFFCURVE",
"644 343 CURVE SMOOTH",
"652 389 OFFCURVE",
"660 436 OFFCURVE",
"668 486 CURVE SMOOTH",
"671 504 OFFCURVE",
"674 521 OFFCURVE",
"677 538 CURVE SMOOTH",
"687 584 OFFCURVE",
"697 632 OFFCURVE",
"680 671 CURVE SMOOTH",
"673 686 OFFCURVE",
"645 676 OFFCURVE",
"640 656 CURVE SMOOTH",
"628 609 OFFCURVE",
"622 562 OFFCURVE",
"617 516 CURVE SMOOTH",
"610 461 OFFCURVE",
"603 406 OFFCURVE",
"586 353 CURVE SMOOTH",
"555 255 OFFCURVE",
"484 191 OFFCURVE",
"394 181 CURVE SMOOTH",
"310 171 OFFCURVE",
"268 216 OFFCURVE",
"278 305 CURVE SMOOTH",
"281 337 OFFCURVE",
"293 374 OFFCURVE",
"304 412 CURVE SMOOTH",
"331 500 OFFCURVE",
"361 596 OFFCURVE",
"295 647 CURVE SMOOTH",
"229 698 OFFCURVE",
"148 683 OFFCURVE",
"88 610 CURVE SMOOTH",
"38 549 OFFCURVE",
"17 458 OFFCURVE",
"63 399 CURVE SMOOTH",
"106 344 OFFCURVE",
"168 332 OFFCURVE",
"191 377 CURVE",
"190 382 LINE",
"178 391 OFFCURVE",
"164 398 OFFCURVE",
"146 407 CURVE SMOOTH",
"120 421 OFFCURVE",
"103 429 OFFCURVE",
"95 456 CURVE SMOOTH",
"79 510 OFFCURVE",
"121 594 OFFCURVE",
"174 612 CURVE SMOOTH",
"216 627 OFFCURVE",
"252 622 OFFCURVE",
"269 596 CURVE SMOOTH",
"292 561 OFFCURVE",
"271 496 OFFCURVE",
"259 448 CURVE SMOOTH",
"255 428 OFFCURVE",
"250 411 OFFCURVE",
"245 394 CURVE SMOOTH",
"235 360 OFFCURVE",
"226 326 OFFCURVE",
"224 293 CURVE SMOOTH",
"210 117 OFFCURVE",
"393 95 OFFCURVE",
"505 166 CURVE SMOOTH",
"511 170 OFFCURVE",
"520 178 OFFCURVE",
"529 186 CURVE SMOOTH",
"540 196 OFFCURVE",
"552 206 OFFCURVE",
"562 212 CURVE",
"557 188 OFFCURVE",
"555 162 OFFCURVE",
"552 135 CURVE SMOOTH",
"546 87 OFFCURVE",
"540 39 OFFCURVE",
"523 6 CURVE",
"494 -67 OFFCURVE",
"371 -80 OFFCURVE",
"356 -11 CURVE SMOOTH",
"353 -1 OFFCURVE",
"356 11 OFFCURVE",
"358 23 CURVE SMOOTH",
"362 41 OFFCURVE",
"366 64 OFFCURVE",
"343 70 CURVE SMOOTH",
"296 81 OFFCURVE",
"290 -4 OFFCURVE",
"301 -28 CURVE SMOOTH",
"326 -80 OFFCURVE",
"368 -105 OFFCURVE",
"428 -105 CURVE SMOOTH"
);
}
);
vertWidth = 1000;
width = 746;
}
);
note = cid00090;
unicode = 0079;
},
{
color = 3;
glyphname = z;
lastChange = "2021-01-02 15:09:44 +0000";
layers = (
{
hints = (
{
horizontal = 1;
place = "{6, 48}";
type = Stem;
},
{
horizontal = 1;
place = "{412, 40}";
type = Stem;
},
{
place = "{130, 36}";
type = Stem;
}
);
layerId = "38E14F89-90D8-48C8-A96B-0BF2B2C9AEC9";
paths = (
{
closed = 1;
nodes = (
"585 26 OFFCURVE",
"624 24 OFFCURVE",
"660 30 CURVE SMOOTH",
"729 40 OFFCURVE",
"773 105 OFFCURVE",
"771 163 CURVE SMOOTH",
"770 207 OFFCURVE",
"743 247 OFFCURVE",
"681 256 CURVE SMOOTH",
"633 262 OFFCURVE",
"532 253 OFFCURVE",
"543 212 CURVE SMOOTH",
"547 195 OFFCURVE",
"571 193 OFFCURVE",
"638 198 CURVE SMOOTH",
"684 202 OFFCURVE",
"725 200 OFFCURVE",
"722 154 CURVE SMOOTH",
"720 123 OFFCURVE",
"688 87 OFFCURVE",
"652 83 CURVE SMOOTH",
"580 75 OFFCURVE",
"495 78 OFFCURVE",
"409 82 CURVE SMOOTH",
"351 86 OFFCURVE",
"293 88 OFFCURVE",
"238 86 CURVE",
"292 153 OFFCURVE",
"340 227 OFFCURVE",
"389 302 CURVE SMOOTH",
"426 358 OFFCURVE",
"491 454 OFFCURVE",
"513 484 CURVE SMOOTH",
"536 517 OFFCURVE",
"570 564 OFFCURVE",
"608 575 CURVE SMOOTH",
"612 576 OFFCURVE",
"625 576 OFFCURVE",
"643 576 CURVE SMOOTH",
"683 575 OFFCURVE",
"749 573 OFFCURVE",
"746 606 CURVE SMOOTH",
"744 636 OFFCURVE",
"707 632 OFFCURVE",
"666 632 CURVE SMOOTH",
"644 632 OFFCURVE",
"557 626 OFFCURVE",
"527 626 CURVE SMOOTH",
"450 626 OFFCURVE",
"356 630 OFFCURVE",
"309 632 CURVE SMOOTH",
"202 633 OFFCURVE",
"75 635 OFFCURVE",
"61 554 CURVE SMOOTH",
"53 503 OFFCURVE",
"85 461 OFFCURVE",
"139 450 CURVE SMOOTH",
"167 443 OFFCURVE",
"261 441 OFFCURVE",
"258 478 CURVE SMOOTH",
"256 506 OFFCURVE",
"220 503 OFFCURVE",
"197 501 CURVE SMOOTH",
"187 500 OFFCURVE",
"179 499 OFFCURVE",
"173 500 CURVE SMOOTH",
"98 506 OFFCURVE",
"101 570 OFFCURVE",
"176 578 CURVE SMOOTH",
"253 586 OFFCURVE",
"352 581 OFFCURVE",
"444 576 CURVE SMOOTH",
"468 574 OFFCURVE",
"492 573 OFFCURVE",
"514 572 CURVE",
"465 513 OFFCURVE",
"420 444 OFFCURVE",
"376 375 CURVE SMOOTH",
"369 364 OFFCURVE",
"362 353 OFFCURVE",
"354 341 CURVE SMOOTH",
"320 290 OFFCURVE",
"286 239 OFFCURVE",
"250 191 CURVE SMOOTH",
"221 153 OFFCURVE",
"178 97 OFFCURVE",
"139 86 CURVE SMOOTH",
"129 83 OFFCURVE",
"114 84 OFFCURVE",
"97 85 CURVE SMOOTH",
"62 86 OFFCURVE",
"19 88 OFFCURVE",
"7 54 CURVE",
"19 31 OFFCURVE",
"24 25 OFFCURVE",
"69 29 CURVE SMOOTH",
"197 39 OFFCURVE",
"385 33 OFFCURVE",
"490 30 CURVE SMOOTH",
"508 29 OFFCURVE",
"528 29 OFFCURVE",
"547 28 CURVE SMOOTH"
);
}
);
vertWidth = 1000;
width = 794;
}
);
note = cid00091;
unicode = 007A;
},
{
glyphname = uni4EEE;
layers = (
{
hints = (
{
horizontal = 1;
place = "{193, 17}";
type = Stem;
},
{
horizontal = 1;
place = "{442, 54}";
type = Stem;
},
{
horizontal = 1;
place = "{682, 7}";
type = Stem;
},
{
horizontal = 1;
place = "{725, 67}";
type = Stem;
},
{
place = "{224, 60}";
type = Stem;
},
{
place = "{390, 13}";
type = Stem;
},
{
place = "{472, 79}";
type = Stem;
}
);
layerId = "38E14F89-90D8-48C8-A96B-0BF2B2C9AEC9";
paths = (
{
closed = 1;
nodes = (
"959 39 OFFCURVE",
"930 55 OFFCURVE",
"919 67 CURVE SMOOTH",
"908 78 OFFCURVE",
"903 94 OFFCURVE",
"894 102 CURVE SMOOTH",
"883 111 OFFCURVE",
"866 118 OFFCURVE",
"852 127 CURVE SMOOTH",
"807 156 OFFCURVE",
"755 172 OFFCURVE",
"723 213 CURVE",
"755 281 OFFCURVE",
"760 394 OFFCURVE",
"810 421 CURVE",
"824 422 OFFCURVE",
"840 424 OFFCURVE",
"855 431 CURVE",
"852 445 OFFCURVE",
"844 455 OFFCURVE",
"845 474 CURVE",
"802 500 OFFCURVE",
"734 535 OFFCURVE",
"684 517 CURVE SMOOTH",
"678 515 OFFCURVE",
"678 506 OFFCURVE",
"674 503 CURVE",
"637 496 OFFCURVE",
"583 493 OFFCURVE",
"542 499 CURVE",
"566 550 OFFCURVE",
"535 584 OFFCURVE",
"510 610 CURVE",
"627 634 OFFCURVE",
"740 642 OFFCURVE",
"858 646 CURVE SMOOTH",
"884 647 OFFCURVE",
"896 637 OFFCURVE",
"916 657 CURVE",
"895 701 OFFCURVE",
"839 725 OFFCURVE",
"794 730 CURVE",
"788 726 OFFCURVE",
"787 717 OFFCURVE",
"781 712 CURVE",
"673 703 OFFCURVE",
"507 680 OFFCURVE",
"390 693 CURVE",
"394 613 OFFCURVE",
"501 579 OFFCURVE",
"465 482 CURVE",
"457 485 OFFCURVE",
"449 484 OFFCURVE",
"442 478 CURVE",
"450 471 OFFCURVE",
"453 457 OFFCURVE",
"461 449 CURVE",
"431 277 OFFCURVE",
"367 124 OFFCURVE",
"287 20 CURVE",
"287 158 OFFCURVE",
"280 328 OFFCURVE",
"287 460 CURVE",
"284 468 OFFCURVE",
"275 468 OFFCURVE",
"274 478 CURVE",
"277 501 OFFCURVE",
"299 537 OFFCURVE",
"310 557 CURVE SMOOTH",
"320 574 OFFCURVE",
"330 581 OFFCURVE",
"336 592 CURVE SMOOTH",
"356 628 OFFCURVE",
"357 665 OFFCURVE",
"378 682 CURVE SMOOTH",
"379 683 OFFCURVE",
"380 680 OFFCURVE",
"381 682 CURVE SMOOTH",
"382 683 OFFCURVE",
"402 717 OFFCURVE",
"403 725 CURVE SMOOTH",
"411 785 OFFCURVE",
"314 799 OFFCURVE",
"258 789 CURVE",
"265 760 OFFCURVE",
"285 746 OFFCURVE",
"300 725 CURVE",
"269 662 OFFCURVE",
"243 593 OFFCURVE",
"210 532 CURVE",
"224 531 OFFCURVE",
"215 554 OFFCURVE",
"229 553 CURVE",
"223 538 OFFCURVE",
"214 512 OFFCURVE",
"207 528 CURVE",
"190 497 OFFCURVE",
"169 469 OFFCURVE",
"161 428 CURVE",
"132 380 OFFCURVE",
"95 341 OFFCURVE",
"71 288 CURVE",
"52 264 OFFCURVE",
"26 248 OFFCURVE",
"19 210 CURVE",
"68 157 OFFCURVE",
"108 239 OFFCURVE",
"142 292 CURVE SMOOTH",
"169 334 OFFCURVE",
"194 374 OFFCURVE",
"219 396 CURVE",
"232 266 OFFCURVE",
"221 131 OFFCURVE",
"200 20 CURVE",
"222 -16 OFFCURVE",
"244 -52 OFFCURVE",
"290 -62 CURVE",
"299 -40 OFFCURVE",
"286 -16 OFFCURVE",
"297 13 CURVE",
"299 5 OFFCURVE",
"326 0 OFFCURVE",
"336 2 CURVE",
"433 66 OFFCURVE",
"469 216 OFFCURVE",
"513 349 CURVE",
"545 296 OFFCURVE",
"588 255 OFFCURVE",
"613 195 CURVE",
"574 96 OFFCURVE",
"483 53 OFFCURVE",
"387 16 CURVE",
"410 11 OFFCURVE",
"411 -11 OFFCURVE",
"429 -16 CURVE SMOOTH",
"454 -23 OFFCURVE",
"490 -13 OFFCURVE",
"513 -5 CURVE SMOOTH",
"572 16 OFFCURVE",
"623 93 OFFCURVE",
"661 120 CURVE",
"708 91 OFFCURVE",
"707 12 OFFCURVE",
"765 -16 CURVE SMOOTH",
"808 -37 OFFCURVE",
"941 -50 OFFCURVE",
"952 6 CURVE SMOOTH"
);
},
{
closed = 1;
nodes = (
"695 378 OFFCURVE",
"674 331 OFFCURVE",
"655 278 CURVE",
"628 291 OFFCURVE",
"617 320 OFFCURVE",
"597 342 CURVE SMOOTH",
"575 366 OFFCURVE",
"535 378 OFFCURVE",
"526 417 CURVE",
"574 434 OFFCURVE",
"643 442 OFFCURVE",
"697 442 CURVE"
);
},
{
closed = 1;
nodes = (
"609 69 OFFCURVE",
"598 68 OFFCURVE",
"594 59 CURVE",
"591 62 OFFCURVE",
"601 80 OFFCURVE",
"610 81 CURVE"
);
}
);
vertWidth = 1000;
width = 1000;
}
);
note = cid01342;
unicode = 4EEE;
},
{
glyphname = uni4F51;
layers = (
{
hints = (
{
horizontal = 1;
place = "{23, 55}";
type = Stem;
},
{
horizontal = 1;
place = "{273, 52}";
type = Stem;
},
{
horizontal = 1;
place = "{482, 65}";
type = Stem;
},
{
place = "{235, 51}";
type = Stem;
},
{
place = "{580, 94}";
type = Stem;
},
{
place = "{762, 95.91}";
type = Stem;
},
{
place = "{949, 17}";
type = Stem;
},
{
horizontal = 1;
place = "{460, 73}";
type = Stem;
},
{
place = "{297, 12}";
type = Stem;
},
{
place = "{262, 96}";
type = Stem;
},
{
place = "{493, 78}";
type = Stem;
}
);
layerId = "38E14F89-90D8-48C8-A96B-0BF2B2C9AEC9";
paths = (
{
closed = 1;
nodes = (
"919 547 OFFCURVE",
"866 558 OFFCURVE",
"816 570 CURVE",
"808 564 OFFCURVE",
"800 558 OFFCURVE",
"791 553 CURVE",
"738 558 OFFCURVE",
"690 538 OFFCURVE",
"631 547 CURVE",
"645 599 OFFCURVE",
"658 653 OFFCURVE",
"674 696 CURVE",
"672 747 OFFCURVE",
"612 775 OFFCURVE",
"566 790 CURVE",
"565 781 OFFCURVE",
"554 787 OFFCURVE",
"556 780 CURVE",
"604 721 OFFCURVE",
"571 594 OFFCURVE",
"540 533 CURVE",
"461 535 OFFCURVE",
"395 503 OFFCURVE",
"309 514 CURVE",
"311 501 OFFCURVE",
"295 506 OFFCURVE",
"297 493 CURVE",
"309 487 OFFCURVE",
"317 484 OFFCURVE",
"312 471 CURVE",
"338 456 OFFCURVE",
"368 444 OFFCURVE",
"402 438 CURVE",
"433 450 OFFCURVE",
"475 467 OFFCURVE",
"516 457 CURVE",
"492 416 OFFCURVE",
"482 358 OFFCURVE",
"444 332 CURVE",
"441 326 OFFCURVE",
"450 327 OFFCURVE",
"448 322 CURVE SMOOTH",
"429 277 OFFCURVE",
"381 244 OFFCURVE",
"358 193 CURVE",
"331 176 OFFCURVE",
"310 153 OFFCURVE",
"281 138 CURVE",
"282 161 OFFCURVE",
"288 312 OFFCURVE",
"300 375 CURVE",
"288 388 OFFCURVE",
"293 403 OFFCURVE",
"287 418 CURVE SMOOTH",
"278 439 OFFCURVE",
"264 442 OFFCURVE",
"269 460 CURVE SMOOTH",
"283 512 OFFCURVE",
"347 623 OFFCURVE",
"358 685 CURVE SMOOTH",
"362 709 OFFCURVE",
"347 717 OFFCURVE",
"342 738 CURVE",
"316 755 OFFCURVE",
"283 763 OFFCURVE",
"259 783 CURVE",
"247 779 OFFCURVE",
"227 775 OFFCURVE",
"235 761 CURVE",
"279 714 OFFCURVE",
"261 672 OFFCURVE",
"238 606 CURVE SMOOTH",
"218 549 OFFCURVE",
"199 507 OFFCURVE",
"185 460 CURVE",
"141 395 OFFCURVE",
"103 312 OFFCURVE",
"76 279 CURVE SMOOTH",
"56 255 OFFCURVE",
"29 234 OFFCURVE",
"15 220 CURVE",
"38 214 OFFCURVE",
"71 215 OFFCURVE",
"91 222 CURVE",
"106 246 OFFCURVE",
"136 252 OFFCURVE",
"154 292 CURVE",
"192 299 OFFCURVE",
"208 345 OFFCURVE",
"232 382 CURVE",
"242 273 OFFCURVE",
"227 103 OFFCURVE",
"198 16 CURVE",
"224 -5 OFFCURVE",
"227 -49 OFFCURVE",
"272 -50 CURVE",
"290 15 OFFCURVE",
"288 58 OFFCURVE",
"282 131 CURVE",
"301 154 OFFCURVE",
"321 145 OFFCURVE",
"346 148 CURVE SMOOTH",
"410 157 OFFCURVE",
"451 211 OFFCURVE",
"485 243 CURVE",
"491 176 OFFCURVE",
"506 82 OFFCURVE",
"470 39 CURVE",
"505 18 OFFCURVE",
"525 -18 OFFCURVE",
"571 -27 CURVE",
"572 -16 OFFCURVE",
"571 -4 OFFCURVE",
"571 9 CURVE",
"612 33 OFFCURVE",
"695 20 OFFCURVE",
"763 20 CURVE SMOOTH",
"810 20 OFFCURVE",
"850 26 OFFCURVE",
"865 56 CURVE",
"860 67 OFFCURVE",
"840 62 OFFCURVE",
"840 78 CURVE",
"866 139 OFFCURVE",
"853 236 OFFCURVE",
"902 273 CURVE SMOOTH",
"915 282 OFFCURVE",
"928 278 OFFCURVE",
"942 292 CURVE",
"938 313 OFFCURVE",
"910 320 OFFCURVE",
"892 325 CURVE SMOOTH",
"855 336 OFFCURVE",
"814 338 OFFCURVE",
"788 352 CURVE",
"718 317 OFFCURVE",
"623 330 OFFCURVE",
"532 325 CURVE",
"551 371 OFFCURVE",
"576 411 OFFCURVE",
"593 460 CURVE",
"702 494 OFFCURVE",
"835 479 OFFCURVE",
"949 477 CURVE",
"956 492 OFFCURVE",
"976 499 OFFCURVE",
"960 520 CURVE"
);
},
{
closed = 1;
nodes = (
"761 243 OFFCURVE",
"763 146 OFFCURVE",
"735 89 CURVE",
"679 82 OFFCURVE",
"631 80 OFFCURVE",
"574 78 CURVE",
"559 130 OFFCURVE",
"565 193 OFFCURVE",
"553 253 CURVE",
"592 273 OFFCURVE",
"681 272 OFFCURVE",
"762 273 CURVE"
);
}
);
vertWidth = 1000;
width = 1000;
}
);
note = cid03854;
unicode = 4F51;
},
{
glyphname = uni4F53;
layers = (
{
hints = (
{
horizontal = 1;
place = "{153, 59}";
type = Stem;
},
{
place = "{214, 46}";
type = Stem;
},
{
place = "{569, 71}";
type = Stem;
},
{
horizontal = 1;
place = "{93, 26}";
type = Stem;
},
{
place = "{564, 79}";
type = Stem;
},
{
place = "{230, 33}";
type = Stem;
},
{
place = "{571.31, 73.69}";
type = Stem;
},
{
horizontal = 1;
place = "{150, 72}";
type = Stem;
}
);
layerId = "38E14F89-90D8-48C8-A96B-0BF2B2C9AEC9";
paths = (
{
closed = 1;
nodes = (
"977 193 OFFCURVE",
"958 220 OFFCURVE",
"935 244 CURVE",
"812 286 OFFCURVE",
"728 378 OFFCURVE",
"647 477 CURVE",
"680 483 OFFCURVE",
"723 489 OFFCURVE",
"766 492 CURVE SMOOTH",
"803 494 OFFCURVE",
"849 485 OFFCURVE",
"870 516 CURVE",
"841 541 OFFCURVE",
"800 569 OFFCURVE",
"756 565 CURVE SMOOTH",
"745 564 OFFCURVE",
"734 554 OFFCURVE",
"722 551 CURVE SMOOTH",
"696 545 OFFCURVE",
"669 547 OFFCURVE",
"643 544 CURVE",
"647 591 OFFCURVE",
"646 625 OFFCURVE",
"661 664 CURVE",
"642 724 OFFCURVE",
"591 748 OFFCURVE",
"543 776 CURVE",
"532 762 OFFCURVE",
"514 773 OFFCURVE",
"512 758 CURVE",
"540 705 OFFCURVE",
"574 613 OFFCURVE",
"564 536 CURVE",
"476 522 OFFCURVE",
"403 545 OFFCURVE",
"341 527 CURVE",
"350 500 OFFCURVE",
"385 486 OFFCURVE",
"386 461 CURVE",
"405 463 OFFCURVE",
"409 446 OFFCURVE",
"427 444 CURVE SMOOTH",
"457 441 OFFCURVE",
"494 480 OFFCURVE",
"537 472 CURVE",
"454 338 OFFCURVE",
"373 219 OFFCURVE",
"260 119 CURVE",
"267 186 OFFCURVE",
"266 280 OFFCURVE",
"267 329 CURVE SMOOTH",
"268 373 OFFCURVE",
"264 440 OFFCURVE",
"257 469 CURVE",
"293 544 OFFCURVE",
"350 596 OFFCURVE",
"383 674 CURVE",
"373 722 OFFCURVE",
"338 742 OFFCURVE",
"301 753 CURVE",
"296 750 OFFCURVE",
"296 743 OFFCURVE",
"288 743 CURVE",
"278 754 OFFCURVE",
"259 754 OFFCURVE",
"241 755 CURVE",
"250 719 OFFCURVE",
"266 708 OFFCURVE",
"280 683 CURVE",
"272 610 OFFCURVE",
"234 567 OFFCURVE",
"203 518 CURVE",
"196 515 OFFCURVE",
"192 510 OFFCURVE",
"181 512 CURVE",
"177 502 OFFCURVE",
"182 500 OFFCURVE",
"181 485 CURVE",
"124 402 OFFCURVE",
"80 339 OFFCURVE",
"4 266 CURVE",
"23 261 OFFCURVE",
"31 243 OFFCURVE",
"52 240 CURVE",
"111 298 OFFCURVE",
"155 344 OFFCURVE",
"207 399 CURVE",
"208 379 OFFCURVE",
"204 352 OFFCURVE",
"214 342 CURVE",
"212 288 OFFCURVE",
"210 225 OFFCURVE",
"206 172 CURVE SMOOTH",
"203 128 OFFCURVE",
"199 72 OFFCURVE",
"173 55 CURVE",
"182 10 OFFCURVE",
"209 -14 OFFCURVE",
"230 -47 CURVE",
"244 -45 OFFCURVE",
"251 -35 OFFCURVE",
"262 -30 CURVE",
"268 4 OFFCURVE",
"256 54 OFFCURVE",
"263 100 CURVE",
"291 88 OFFCURVE",
"312 92 OFFCURVE",
"331 104 CURVE SMOOTH",
"359 122 OFFCURVE",
"381 157 OFFCURVE",
"414 181 CURVE",
"425 162 OFFCURVE",
"441 140 OFFCURVE",
"471 132 CURVE",
"475 134 OFFCURVE",
"471 144 OFFCURVE",
"477 145 CURVE SMOOTH",
"498 147 OFFCURVE",
"535 154 OFFCURVE",
"572 153 CURVE",
"572 126 OFFCURVE",
"578 53 OFFCURVE",
"555 33 CURVE",
"581 -7 OFFCURVE",
"559 -66 OFFCURVE",
"625 -69 CURVE",
"659 -49 OFFCURVE",
"638 104 OFFCURVE",
"641 150 CURVE",
"696 164 OFFCURVE",
"768 137 OFFCURVE",
"798 169 CURVE",
"817 146 OFFCURVE",
"840 115 OFFCURVE",
"868 110 CURVE",
"924 83 OFFCURVE",
"943 98 OFFCURVE",
"990 118 CURVE",
"983 133 OFFCURVE",
"1003 145 OFFCURVE",
"996 165 CURVE"
);
},
{
closed = 1;
nodes = (
"754 203 OFFCURVE",
"706 236 OFFCURVE",
"640 217 CURVE",
"635 279 OFFCURVE",
"631 334 OFFCURVE",
"635 390 CURVE",
"667 352 OFFCURVE",
"735 268 OFFCURVE",
"753 222 CURVE",
"776 204 OFFCURVE",
"785 179 OFFCURVE",
"785 179 CURVE"
);
},
{
closed = 1;
nodes = (
"527 209 OFFCURVE",
"479 207 OFFCURVE",
"435 211 CURVE",
"476 262 OFFCURVE",
"527 318 OFFCURVE",
"569 367 CURVE",
"575 314 OFFCURVE",
"572 243 OFFCURVE",
"571 213 CURVE"
);
}
);
vertWidth = 1000;
width = 1000;
}
);
note = cid02862;
unicode = 4F53;
},
{
glyphname = uni540D;
layers = (
{
hints = (
{
horizontal = 1;
place = "{-1, 61}";
type = Stem;
},
{
horizontal = 1;
place = "{260, 69}";
type = Stem;
},
{
horizontal = 1;
place = "{411, 9}";
type = Stem;
},
{
horizontal = 1;
place = "{659, 91}";
type = Stem;
},
{
place = "{324, 77}";
type = Stem;
},
{
place = "{683, 208}";
type = Stem;
},
{
horizontal = 1;
place = "{278, 14}";
type = Stem;
},
{
horizontal = 1;
place = "{227, 56}";
type = Stem;
}
);
layerId = "38E14F89-90D8-48C8-A96B-0BF2B2C9AEC9";
paths = (
{
closed = 1;
nodes = (
"813 305 OFFCURVE",
"755 363 OFFCURVE",
"687 347 CURVE SMOOTH",
"668 343 OFFCURVE",
"655 330 OFFCURVE",
"634 329 CURVE SMOOTH",
"584 327 OFFCURVE",
"531 335 OFFCURVE",
"470 322 CURVE",
"470 322 OFFCURVE",
"509 376 OFFCURVE",
"531 387 CURVE",
"532 394 OFFCURVE",
"527 395 OFFCURVE",
"527 401 CURVE",
"534 402 OFFCURVE",
"535 398 OFFCURVE",
"541 398 CURVE",
"560 440 OFFCURVE",
"585 489 OFFCURVE",
"609 518 CURVE SMOOTH",
"616 527 OFFCURVE",
"614 543 OFFCURVE",
"620 554 CURVE SMOOTH",
"633 578 OFFCURVE",
"671 614 OFFCURVE",
"694 623 CURVE SMOOTH",
"717 632 OFFCURVE",
"745 622 OFFCURVE",
"758 641 CURVE SMOOTH",
"762 648 OFFCURVE",
"762 658 OFFCURVE",
"758 666 CURVE",
"710 700 OFFCURVE",
"639 730 OFFCURVE",
"570 743 CURVE",
"542 703 OFFCURVE",
"471 729 OFFCURVE",
"424 710 CURVE",
"383 746 OFFCURVE",
"347 747 OFFCURVE",
"292 750 CURVE",
"295 720 OFFCURVE",
"321 707 OFFCURVE",
"333 691 CURVE",
"322 674 OFFCURVE",
"310 645 OFFCURVE",
"296 623 CURVE SMOOTH",
"245 545 OFFCURVE",
"165 484 OFFCURVE",
"111 420 CURVE",
"146 405 OFFCURVE",
"174 409 OFFCURVE",
"198 423 CURVE SMOOTH",
"234 443 OFFCURVE",
"263 484 OFFCURVE",
"292 510 CURVE",
"328 463 OFFCURVE",
"357 410 OFFCURVE",
"417 387 CURVE",
"400 364 OFFCURVE",
"383 331 OFFCURVE",
"353 311 CURVE SMOOTH",
"335 299 OFFCURVE",
"314 291 OFFCURVE",
"285 292 CURVE",
"282 280 OFFCURVE",
"298 287 OFFCURVE",
"299 278 CURVE",
"284 273 OFFCURVE",
"277 291 OFFCURVE",
"271 278 CURVE",
"274 266 OFFCURVE",
"283 244 OFFCURVE",
"289 234 CURVE",
"272 216 OFFCURVE",
"246 189 OFFCURVE",
"228 184 CURVE",
"221 191 OFFCURVE",
"205 163 OFFCURVE",
"200 147 CURVE",
"147 131 OFFCURVE",
"100 77 OFFCURVE",
"32 64 CURVE",
"32 64 OFFCURVE",
"62 53 OFFCURVE",
"88 52 CURVE SMOOTH",
"118 51 OFFCURVE",
"146 58 OFFCURVE",
"171 75 CURVE",
"171 75 OFFCURVE",
"166 69 OFFCURVE",
"171 67 CURVE",
"183 85 OFFCURVE",
"242 92 OFFCURVE",
"242 118 CURVE",
"273 116 OFFCURVE",
"294 154 OFFCURVE",
"324 165 CURVE",
"338 113 OFFCURVE",
"320 46 OFFCURVE",
"331 13 CURVE SMOOTH",
"341 -18 OFFCURVE",
"387 -40 OFFCURVE",
"417 -34 CURVE",
"417 -5 LINE",
"508 4 OFFCURVE",
"630 -7 OFFCURVE",
"737 -5 CURVE SMOOTH",
"758 -5 OFFCURVE",
"776 -2 OFFCURVE",
"790 13 CURVE",
"784 21 OFFCURVE",
"773 27 OFFCURVE",
"765 35 CURVE",
"785 96 OFFCURVE",
"778 177 OFFCURVE",
"819 209 CURVE SMOOTH",
"841 226 OFFCURVE",
"865 234 OFFCURVE",
"879 246 CURVE SMOOTH",
"892 257 OFFCURVE",
"897 271 OFFCURVE",
"883 296 CURVE"
);
},
{
closed = 1;
nodes = (
"261 224 OFFCURVE",
"239 204 OFFCURVE",
"242 198 CURVE",
"255 208 OFFCURVE",
"273 227 OFFCURVE",
"273 227 CURVE"
);
},
{
closed = 1;
nodes = (
"540 584 OFFCURVE",
"493 513 OFFCURVE",
"456 449 CURVE",
"424 493 OFFCURVE",
"390 523 OFFCURVE",
"321 543 CURVE",
"340 567 OFFCURVE",
"384 617 OFFCURVE",
"410 659 CURVE",
"449 658 OFFCURVE",
"509 656 OFFCURVE",
"548 666 CURVE"
);
},
{
closed = 1;
nodes = (
"692 211 OFFCURVE",
"669 143 OFFCURVE",
"673 71 CURVE",
"588 62 OFFCURVE",
"519 61 OFFCURVE",
"410 60 CURVE",
"410 134 OFFCURVE",
"384 218 OFFCURVE",
"420 260 CURVE",
"508 270 OFFCURVE",
"618 276 OFFCURVE",
"680 278 CURVE"
);
}
);
vertWidth = 1000;
width = 1000;
}
);
note = cid03786;
unicode = 540D;
},
{
glyphname = uni5909;
layers = (
{
hints = (
{
horizontal = 1;
place = "{-59, 49}";
type = Stem;
},
{
horizontal = 1;
place = "{274, 42}";
type = Stem;
},
{
horizontal = 1;
place = "{609, 66}";
type = Stem;
},
{
horizontal = 1;
place = "{776, 25}";
type = Stem;
},
{
place = "{385, 25}";
type = Stem;
},
{
place = "{485, 61}";
type = Stem;
},
{
horizontal = 1;
place = "{602, 69}";
type = Stem;
},
{
place = "{388, 7}";
type = Stem;
}
);
layerId = "38E14F89-90D8-48C8-A96B-0BF2B2C9AEC9";
paths = (
{
closed = 1;
nodes = (
"868 400 OFFCURVE",
"849 415 OFFCURVE",
"844 443 CURVE",
"787 466 OFFCURVE",
"751 528 OFFCURVE",
"687 534 CURVE",
"681 511 OFFCURVE",
"720 488 OFFCURVE",
"706 457 CURVE",
"731 433 OFFCURVE",
"757 376 OFFCURVE",
"790 352 CURVE SMOOTH",
"812 336 OFFCURVE",
"836 334 OFFCURVE",
"866 365 CURVE"
);
},
{
closed = 1;
nodes = (
"886 25 OFFCURVE",
"847 58 OFFCURVE",
"798 82 CURVE SMOOTH",
"734 114 OFFCURVE",
"653 130 OFFCURVE",
"605 162 CURVE",
"623 230 OFFCURVE",
"681 239 OFFCURVE",
"732 278 CURVE",
"709 313 OFFCURVE",
"667 332 OFFCURVE",
"619 344 CURVE",
"640 433 OFFCURVE",
"629 525 OFFCURVE",
"642 604 CURVE",
"699 617 OFFCURVE",
"763 601 OFFCURVE",
"815 602 CURVE SMOOTH",
"846 603 OFFCURVE",
"874 609 OFFCURVE",
"893 632 CURVE",
"864 670 OFFCURVE",
"800 674 OFFCURVE",
"747 688 CURVE",
"685 671 OFFCURVE",
"601 674 OFFCURVE",
"533 678 CURVE",
"556 725 OFFCURVE",
"547 759 OFFCURVE",
"524 779 CURVE SMOOTH",
"489 810 OFFCURVE",
"420 809 OFFCURVE",
"380 776 CURVE",
"395 756 OFFCURVE",
"449 743 OFFCURVE",
"481 727 CURVE",
"476 710 OFFCURVE",
"485 689 OFFCURVE",
"485 671 CURVE",
"394 670 OFFCURVE",
"314 659 OFFCURVE",
"223 657 CURVE",
"211 659 OFFCURVE",
"213 647 OFFCURVE",
"204 646 CURVE",
"186 658 OFFCURVE",
"159 656 OFFCURVE",
"133 667 CURVE",
"129 657 OFFCURVE",
"117 663 OFFCURVE",
"118 653 CURVE",
"137 643 OFFCURVE",
"150 623 OFFCURVE",
"163 605 CURVE SMOOTH",
"177 585 OFFCURVE",
"191 567 OFFCURVE",
"212 565 CURVE SMOOTH",
"228 564 OFFCURVE",
"239 579 OFFCURVE",
"253 583 CURVE SMOOTH",
"285 592 OFFCURVE",
"320 584 OFFCURVE",
"354 594 CURVE",
"405 528 OFFCURVE",
"386 394 OFFCURVE",
"350 327 CURVE",
"354 322 OFFCURVE",
"368 325 OFFCURVE",
"373 316 CURVE",
"350 307 OFFCURVE",
"319 326 OFFCURVE",
"294 302 CURVE",
"312 292 OFFCURVE",
"332 281 OFFCURVE",
"343 267 CURVE",
"286 173 OFFCURVE",
"208 71 OFFCURVE",
"107 7 CURVE",
"125 1 OFFCURVE",
"141 -2 OFFCURVE",
"155 -2 CURVE SMOOTH",
"204 -1 OFFCURVE",
"232 36 OFFCURVE",
"264 70 CURVE SMOOTH",
"308 117 OFFCURVE",
"361 175 OFFCURVE",
"399 218 CURVE",
"428 192 OFFCURVE",
"456 166 OFFCURVE",
"481 137 CURVE",
"422 75 OFFCURVE",
"350 9 OFFCURVE",
"264 -17 CURVE",
"254 -17 OFFCURVE",
"267 -10 OFFCURVE",
"257 -10 CURVE SMOOTH",
"234 -10 OFFCURVE",
"208 -17 OFFCURVE",
"208 -17 CURVE",
"239 -22 OFFCURVE",
"258 -38 OFFCURVE",
"275 -56 CURVE",
"331 -69 OFFCURVE",
"362 -37 OFFCURVE",
"395 -28 CURVE",
"401 -35 OFFCURVE",
"380 -30 OFFCURVE",
"391 -38 CURVE",
"450 -6 OFFCURVE",
"498 31 OFFCURVE",
"548 78 CURVE",
"606 41 OFFCURVE",
"680 -11 OFFCURVE",
"733 -52 CURVE",
"798 -60 OFFCURVE",
"857 -67 OFFCURVE",
"894 -31 CURVE"
);
},
{
closed = 1;
nodes = (
"298 434 OFFCURVE",
"288 460 OFFCURVE",
"277 483 CURVE SMOOTH",
"270 498 OFFCURVE",
"260 523 OFFCURVE",
"260 523 CURVE",
"240 466 OFFCURVE",
"181 446 OFFCURVE",
"152 397 CURVE",
"181 374 OFFCURVE",
"167 311 OFFCURVE",
"208 309 CURVE SMOOTH",
"232 308 OFFCURVE",
"289 366 OFFCURVE",
"294 404 CURVE SMOOTH"
);
},
{
closed = 1;
nodes = (
"553 328 OFFCURVE",
"545 331 OFFCURVE",
"545 316 CURVE",
"517 322 OFFCURVE",
"478 312 OFFCURVE",
"440 316 CURVE",
"430 320 OFFCURVE",
"427 332 OFFCURVE",
"410 330 CURVE",
"424 361 OFFCURVE",
"454 391 OFFCURVE",
"459 439 CURVE SMOOTH",
"463 475 OFFCURVE",
"457 511 OFFCURVE",
"459 544 CURVE",
"461 553 OFFCURVE",
"464 560 OFFCURVE",
"470 565 CURVE",
"464 578 OFFCURVE",
"447 581 OFFCURVE",
"444 597 CURVE",
"477 598 OFFCURVE",
"516 609 OFFCURVE",
"541 597 CURVE",
"561 516 OFFCURVE",
"548 440 OFFCURVE",
"556 344 CURVE"
);
},
{
closed = 1;
nodes = (
"554 257 OFFCURVE",
"534 225 OFFCURVE",
"522 204 CURVE",
"490 218 OFFCURVE",
"449 225 OFFCURVE",
"432 253 CURVE",
"450 255 OFFCURVE",
"456 264 OFFCURVE",
"462 274 CURVE",
"495 273 OFFCURVE",
"533 277 OFFCURVE",
"552 278 CURVE"
);
}
);
vertWidth = 1000;
width = 1000;
}
);
note = cid03617;
unicode = 5909;
},
{
glyphname = uni5B57;
layers = (
{
hints = (
{
horizontal = 1;
place = "{252, 60}";
type = Stem;
},
{
horizontal = 1;
place = "{497, 43}";
type = Stem;
},
{
horizontal = 1;
place = "{647, 33}";
type = Stem;
},
{
horizontal = 1;
place = "{773, 27}";
type = Stem;
},
{
place = "{504, 62}";
type = Stem;
},
{
horizontal = 1;
place = "{248, 59}";
type = Stem;
},
{
horizontal = 1;
place = "{198, 94}";
type = Stem;
}
);
layerId = "38E14F89-90D8-48C8-A96B-0BF2B2C9AEC9";
paths = (
{
closed = 1;
nodes = (
"926 555 OFFCURVE",
"907 611 OFFCURVE",
"896 628 CURVE SMOOTH",
"889 639 OFFCURVE",
"872 643 OFFCURVE",
"865 654 CURVE SMOOTH",
"861 660 OFFCURVE",
"866 666 OFFCURVE",
"861 671 CURVE SMOOTH",
"838 693 OFFCURVE",
"781 707 OFFCURVE",
"754 701 CURVE SMOOTH",
"740 698 OFFCURVE",
"737 678 OFFCURVE",
"718 685 CURVE",
"677 690 OFFCURVE",
"581 671 OFFCURVE",
"519 685 CURVE",
"530 709 OFFCURVE",
"520 732 OFFCURVE",
"541 747 CURVE",
"519 810 OFFCURVE",
"416 816 OFFCURVE",
"371 773 CURVE",
"389 742 OFFCURVE",
"436 735 OFFCURVE",
"463 706 CURVE",
"464 678 LINE",
"391 667 OFFCURVE",
"278 673 OFFCURVE",
"176 652 CURVE",
"153 658 OFFCURVE",
"123 652 OFFCURVE",
"114 635 CURVE",
"113 628 OFFCURVE",
"122 627 OFFCURVE",
"115 621 CURVE",
"144 602 OFFCURVE",
"150 574 OFFCURVE",
"145 546 CURVE SMOOTH",
"138 507 OFFCURVE",
"108 466 OFFCURVE",
"83 445 CURVE",
"109 404 OFFCURVE",
"138 358 OFFCURVE",
"197 345 CURVE",
"210 364 OFFCURVE",
"187 380 OFFCURVE",
"185 397 CURVE SMOOTH",
"182 426 OFFCURVE",
"202 491 OFFCURVE",
"215 528 CURVE SMOOTH",
"221 544 OFFCURVE",
"238 566 OFFCURVE",
"240 571 CURVE SMOOTH",
"244 584 OFFCURVE",
"238 594 OFFCURVE",
"242 599 CURVE SMOOTH",
"247 606 OFFCURVE",
"273 617 OFFCURVE",
"284 619 CURVE SMOOTH",
"329 628 OFFCURVE",
"417 621 OFFCURVE",
"469 635 CURVE",
"473 629 OFFCURVE",
"479 622 OFFCURVE",
"486 618 CURVE",
"493 623 OFFCURVE",
"496 634 OFFCURVE",
"505 637 CURVE",
"556 634 OFFCURVE",
"613 643 OFFCURVE",
"665 647 CURVE SMOOTH",
"720 651 OFFCURVE",
"769 650 OFFCURVE",
"797 623 CURVE",
"785 574 OFFCURVE",
"756 542 OFFCURVE",
"736 501 CURVE",
"754 482 OFFCURVE",
"781 473 OFFCURVE",
"798 452 CURVE",
"832 447 OFFCURVE",
"862 493 OFFCURVE",
"888 515 CURVE SMOOTH",
"901 526 OFFCURVE",
"917 529 OFFCURVE",
"920 538 CURVE SMOOTH"
);
},
{
closed = 1;
nodes = (
"920 275 OFFCURVE",
"901 291 OFFCURVE",
"874 308 CURVE",
"871 301 LINE",
"865 303 OFFCURVE",
"862 316 OFFCURVE",
"857 318 CURVE SMOOTH",
"829 330 OFFCURVE",
"768 337 OFFCURVE",
"744 330 CURVE",
"738 326 OFFCURVE",
"736 317 OFFCURVE",
"731 312 CURVE",
"676 308 OFFCURVE",
"619 317 OFFCURVE",
"569 315 CURVE",
"563 333 OFFCURVE",
"552 344 OFFCURVE",
"541 355 CURVE",
"613 387 OFFCURVE",
"665 439 OFFCURVE",
"724 483 CURVE",
"722 549 OFFCURVE",
"670 553 OFFCURVE",
"617 572 CURVE",
"603 571 OFFCURVE",
"602 557 OFFCURVE",
"591 553 CURVE",
"482 547 OFFCURVE",
"366 523 OFFCURVE",
"263 559 CURVE",
"285 518 OFFCURVE",
"289 462 OFFCURVE",
"337 461 CURVE SMOOTH",
"351 461 OFFCURVE",
"367 476 OFFCURVE",
"383 480 CURVE SMOOTH",
"443 495 OFFCURVE",
"519 489 OFFCURVE",
"591 497 CURVE",
"562 455 OFFCURVE",
"527 419 OFFCURVE",
"483 391 CURVE",
"455 396 OFFCURVE",
"435 423 OFFCURVE",
"412 429 CURVE SMOOTH",
"405 431 OFFCURVE",
"401 427 OFFCURVE",
"392 428 CURVE",
"410 374 OFFCURVE",
"472 372 OFFCURVE",
"480 307 CURVE",
"429 304 OFFCURVE",
"368 294 OFFCURVE",
"319 292 CURVE SMOOTH",
"283 291 OFFCURVE",
"231 280 OFFCURVE",
"206 283 CURVE SMOOTH",
"175 287 OFFCURVE",
"128 312 OFFCURVE",
"86 302 CURVE",
"90 292 OFFCURVE",
"88 290 OFFCURVE",
"84 281 CURVE",
"122 255 OFFCURVE",
"138 200 OFFCURVE",
"190 198 CURVE SMOOTH",
"209 197 OFFCURVE",
"234 212 OFFCURVE",
"262 219 CURVE SMOOTH",
"342 239 OFFCURVE",
"441 247 OFFCURVE",
"496 248 CURVE",
"504 199 OFFCURVE",
"510 141 OFFCURVE",
"497 97 CURVE SMOOTH",
"488 69 OFFCURVE",
"472 46 OFFCURVE",
"443 36 CURVE SMOOTH",
"401 21 OFFCURVE",
"346 41 OFFCURVE",
"327 30 CURVE",
"317 33 OFFCURVE",
"305 34 OFFCURVE",
"300 31 CURVE",
"333 -12 OFFCURVE",
"380 -47 OFFCURVE",
"429 -61 CURVE",
"437 -56 OFFCURVE",
"427 -49 OFFCURVE",
"436 -45 CURVE",
"448 -55 OFFCURVE",
"433 -57 OFFCURVE",
"437 -66 CURVE",
"469 -66 OFFCURVE",
"478 -71 OFFCURVE",
"501 -73 CURVE",
"536 -48 OFFCURVE",
"556 -8 OFFCURVE",
"565 40 CURVE SMOOTH",
"577 100 OFFCURVE",
"573 172 OFFCURVE",
"566 237 CURVE",
"574 240 OFFCURVE",
"574 249 OFFCURVE",
"582 252 CURVE",
"688 257 OFFCURVE",
"772 252 OFFCURVE",
"854 241 CURVE SMOOTH",
"878 238 OFFCURVE",
"905 236 OFFCURVE",
"923 248 CURVE"
);
}
);
vertWidth = 1000;
width = 1000;
}
);
note = cid02248;
unicode = 5B57;
},
{
glyphname = uni706F;
layers = (
{
hints = (
{
horizontal = 1;
place = "{-43, 103}";
type = Stem;
},
{
horizontal = 1;
place = "{595, 79}";
type = Stem;
},
{
place = "{715, 66}";
type = Stem;
},
{
horizontal = 1;
place = "{588, 71}";
type = Stem;
},
{
horizontal = 1;
place = "{542, 113}";
type = Stem;
},
{
horizontal = 1;
place = "{449, 121}";
type = Stem;
},
{
place = "{319, 142}";
type = Stem;
},
{
place = "{63.5, 11.5}";
type = Stem;
},
{
place = "{150, 61}";
type = Stem;
},
{
place = "{405, 31}";
type = Stem;
},
{
place = "{92, 14}";
type = Stem;
}
);
layerId = "38E14F89-90D8-48C8-A96B-0BF2B2C9AEC9";
paths = (
{
closed = 1;
nodes = (
"977 636 OFFCURVE",
"937 662 OFFCURVE",
"900 671 CURVE SMOOTH",
"873 678 OFFCURVE",
"847 676 OFFCURVE",
"830 659 CURVE",
"719 652 OFFCURVE",
"590 648 OFFCURVE",
"510 638 CURVE",
"466 648 OFFCURVE",
"412 664 OFFCURVE",
"374 649 CURVE",
"406 599 OFFCURVE",
"433 549 OFFCURVE",
"488 542 CURVE",
"548 576 OFFCURVE",
"588 580 OFFCURVE",
"672 588 CURVE",
"716 447 OFFCURVE",
"726 272 OFFCURVE",
"703 98 CURVE",
"669 37 OFFCURVE",
"574 67 OFFCURVE",
"523 67 CURVE",
"523 67 OFFCURVE",
"544 54 OFFCURVE",
"548 31 CURVE",
"614 -5 OFFCURVE",
"688 -58 OFFCURVE",
"766 -39 CURVE",
"801 41 OFFCURVE",
"808 159 OFFCURVE",
"792 281 CURVE SMOOTH",
"785 333 OFFCURVE",
"772 423 OFFCURVE",
"790 460 CURVE",
"769 490 OFFCURVE",
"805 556 OFFCURVE",
"773 595 CURVE",
"873 606 OFFCURVE",
"943 582 OFFCURVE",
"999 613 CURVE"
);
},
{
closed = 1;
nodes = (
"467 474 OFFCURVE",
"464 501 OFFCURVE",
"449 523 CURVE SMOOTH",
"427 556 OFFCURVE",
"378 578 OFFCURVE",
"338 567 CURVE",
"341 545 OFFCURVE",
"344 523 OFFCURVE",
"350 498 CURVE",
"340 480 OFFCURVE",
"324 454 OFFCURVE",
"324 438 CURVE",
"324 438 OFFCURVE",
"317 443 OFFCURVE",
"314 434 CURVE",
"323 431 OFFCURVE",
"318 425 OFFCURVE",
"314 423 CURVE",
"306 428 OFFCURVE",
"299 407 OFFCURVE",
"298 397 CURVE",
"313 386 OFFCURVE",
"324 371 OFFCURVE",
"347 369 CURVE",
"381 395 OFFCURVE",
"400 449 OFFCURVE",
"449 449 CURVE"
);
},
{
closed = 1;
nodes = (
"429 215 OFFCURVE",
"369 299 OFFCURVE",
"278 349 CURVE",
"291 443 OFFCURVE",
"283 579 OFFCURVE",
"300 661 CURVE",
"262 709 OFFCURVE",
"223 756 OFFCURVE",
"151 766 CURVE",
"146 758 OFFCURVE",
"153 738 OFFCURVE",
"159 730 CURVE",
"160 723 OFFCURVE",
"155 722 OFFCURVE",
"156 715 CURVE",
"191 669 OFFCURVE",
"198 593 OFFCURVE",
"206 541 CURVE",
"217 503 OFFCURVE",
"222 466 OFFCURVE",
"222 430 CURVE SMOOTH",
"223 326 OFFCURVE",
"185 234 OFFCURVE",
"147 165 CURVE",
"159 141 OFFCURVE",
"136 142 OFFCURVE",
"121 117 CURVE SMOOTH",
"105 89 OFFCURVE",
"91 58 OFFCURVE",
"63 53 CURVE",
"64 42 LINE",
"49 50 OFFCURVE",
"39 30 OFFCURVE",
"22 33 CURVE",
"26 4 OFFCURVE",
"53 12 OFFCURVE",
"58 -10 CURVE",
"83 -4 OFFCURVE",
"106 13 OFFCURVE",
"106 32 CURVE",
"106 32 OFFCURVE",
"107 24 OFFCURVE",
"113 25 CURVE",
"134 66 OFFCURVE",
"179 87 OFFCURVE",
"206 142 CURVE",
"206 142 OFFCURVE",
"212 137 OFFCURVE",
"214 145 CURVE",
"204 161 OFFCURVE",
"220 159 OFFCURVE",
"224 168 CURVE",
"207 176 OFFCURVE",
"228 180 OFFCURVE",
"230 186 CURVE",
"223 194 OFFCURVE",
"236 196 OFFCURVE",
"237 201 CURVE SMOOTH",
"242 242 OFFCURVE",
"265 270 OFFCURVE",
"276 312 CURVE",
"305 268 OFFCURVE",
"315 205 OFFCURVE",
"332 149 CURVE SMOOTH",
"347 102 OFFCURVE",
"366 61 OFFCURVE",
"405 41 CURVE",
"416 58 OFFCURVE",
"437 46 OFFCURVE",
"436 72 CURVE SMOOTH"
);
},
{
closed = 1;
nodes = (
"192 465 OFFCURVE",
"121 523 OFFCURVE",
"57 507 CURVE",
"77 440 OFFCURVE",
"101 377 OFFCURVE",
"159 352 CURVE",
"181 369 OFFCURVE",
"191 389 OFFCURVE",
"191 409 CURVE SMOOTH"
);
},
{
closed = 1;
nodes = (
"100 15 OFFCURVE",
"82 8 OFFCURVE",
"79 2 CURVE",
"65 13 OFFCURVE",
"91 12 OFFCURVE",
"92 20 CURVE"
);
}
);
vertWidth = 1000;
width = 1000;
}
);
note = cid03182;
unicode = 706F;
},
{
color = 3;
glyphname = zero;
lastChange = "2021-01-02 15:09:44 +0000";
layers = (
{
hints = (
{
horizontal = 1;
place = "{-14, 51}";
type = Stem;
},
{
horizontal = 1;
place = "{641, 36}";
type = Stem;
},
{
place = "{114, 83}";
type = Stem;
},
{
place = "{472, 91}";
type = Stem;
}
);
layerId = "38E14F89-90D8-48C8-A96B-0BF2B2C9AEC9";
paths = (
{
closed = 1;
nodes = (
"256 -43 OFFCURVE",
"403 -40 OFFCURVE",
"493 38 CURVE SMOOTH",
"629 155 OFFCURVE",
"685 496 OFFCURVE",
"534 622 CURVE SMOOTH",
"521 633 OFFCURVE",
"482 655 OFFCURVE",
"451 659 CURVE SMOOTH",
"380 669 OFFCURVE",
"324 652 OFFCURVE",
"316 602 CURVE",
"339 585 OFFCURVE",
"363 592 OFFCURVE",
"387 598 CURVE SMOOTH",
"407 604 OFFCURVE",
"428 610 OFFCURVE",
"453 605 CURVE SMOOTH",
"494 597 OFFCURVE",
"522 555 OFFCURVE",
"535 530 CURVE SMOOTH",
"620 366 OFFCURVE",
"537 120 OFFCURVE",
"419 55 CURVE SMOOTH",
"320 1 OFFCURVE",
"221 44 OFFCURVE",
"180 103 CURVE SMOOTH",
"105 209 OFFCURVE",
"106 372 OFFCURVE",
"159 498 CURVE SMOOTH",
"200 595 OFFCURVE",
"272 669 OFFCURVE",
"364 678 CURVE SMOOTH",
"377 679 OFFCURVE",
"389 677 OFFCURVE",
"402 675 CURVE SMOOTH",
"429 671 OFFCURVE",
"457 667 OFFCURVE",
"474 701 CURVE",
"474 706 LINE",
"442 739 OFFCURVE",
"395 735 OFFCURVE",
"364 733 CURVE SMOOTH",
"243 724 OFFCURVE",
"151 627 OFFCURVE",
"103 505 CURVE SMOOTH",
"39 343 OFFCURVE",
"52 137 OFFCURVE",
"173 30 CURVE SMOOTH"
);
}
);
vertWidth = 1000;
width = 690;
}
);
note = cid00017;
unicode = 0030;
},
{
color = 3;
glyphname = one;
lastChange = "2021-01-02 15:09:44 +0000";
layers = (
{
hints = (
{
horizontal = 1;
place = "{2, 21}";
type = Stem;
},
{
horizontal = 1;
place = "{647, 8}";
type = Stem;
},
{
place = "{243, 75}";
type = Stem;
}
);
layerId = "38E14F89-90D8-48C8-A96B-0BF2B2C9AEC9";
paths = (
{
closed = 1;
nodes = (
"331 -36 LINE",
"333 192 OFFCURVE",
"334 473 OFFCURVE",
"411 627 CURVE SMOOTH",
"416 636 OFFCURVE",
"423 645 OFFCURVE",
"430 654 CURVE SMOOTH",
"446 675 OFFCURVE",
"464 698 OFFCURVE",
"457 728 CURVE",
"454 731 LINE",
"428 745 OFFCURVE",
"421 730 OFFCURVE",
"412 722 CURVE SMOOTH",
"346 658 OFFCURVE",
"270 580 OFFCURVE",
"192 527 CURVE SMOOTH",
"187 523 OFFCURVE",
"180 520 OFFCURVE",
"173 516 CURVE SMOOTH",
"150 502 OFFCURVE",
"121 486 OFFCURVE",
"121 453 CURVE",
"123 449 LINE",
"156 427 OFFCURVE",
"188 453 OFFCURVE",
"214 473 CURVE SMOOTH",
"220 478 OFFCURVE",
"225 482 OFFCURVE",
"231 486 CURVE SMOOTH",
"241 493 OFFCURVE",
"251 501 OFFCURVE",
"260 509 CURVE SMOOTH",
"280 524 OFFCURVE",
"298 539 OFFCURVE",
"319 547 CURVE",
"291 417 OFFCURVE",
"275 248 OFFCURVE",
"280 82 CURVE SMOOTH",
"280 75 OFFCURVE",
"280 67 OFFCURVE",
"280 59 CURVE SMOOTH",
"279 15 OFFCURVE",
"277 -49 OFFCURVE",
"327 -41 CURVE"
);
}
);
vertWidth = 1000;
width = 600;
}
);
note = cid00018;
unicode = 0031;
},
{
color = 3;
glyphname = two;
lastChange = "2021-01-02 15:09:44 +0000";
layers = (
{
hints = (
{
horizontal = 1;
place = "{2, 75}";
type = Stem;
},
{
horizontal = 1;
place = "{626, 44}";
type = Stem;
},
{
place = "{528, 19}";
type = Stem;
},
{
place = "{443, 87}";
type = Stem;
}
);
layerId = "38E14F89-90D8-48C8-A96B-0BF2B2C9AEC9";
paths = (
{
closed = 1;
nodes = (
"641 -13 LINE",
"645 20 OFFCURVE",
"612 32 OFFCURVE",
"589 41 CURVE",
"584 42 OFFCURVE",
"580 44 OFFCURVE",
"576 46 CURVE SMOOTH",
"498 81 OFFCURVE",
"403 103 OFFCURVE",
"311 118 CURVE",
"326 136 OFFCURVE",
"342 153 OFFCURVE",
"358 170 CURVE SMOOTH",
"395 210 OFFCURVE",
"433 251 OFFCURVE",
"464 299 CURVE SMOOTH",
"510 369 OFFCURVE",
"560 453 OFFCURVE",
"567 547 CURVE SMOOTH",
"586 795 OFFCURVE",
"265 756 OFFCURVE",
"162 644 CURVE SMOOTH",
"95 570 OFFCURVE",
"109 418 OFFCURVE",
"228 407 CURVE SMOOTH",
"255 405 OFFCURVE",
"332 406 OFFCURVE",
"318 462 CURVE",
"316 465 LINE",
"298 478 OFFCURVE",
"282 473 OFFCURVE",
"268 468 CURVE SMOOTH",
"258 464 OFFCURVE",
"248 461 OFFCURVE",
"237 462 CURVE SMOOTH",
"192 467 OFFCURVE",
"167 504 OFFCURVE",
"176 554 CURVE SMOOTH",
"195 683 OFFCURVE",
"497 743 OFFCURVE",
"512 583 CURVE SMOOTH",
"518 528 OFFCURVE",
"489 465 OFFCURVE",
"472 427 CURVE SMOOTH",
"416 305 OFFCURVE",
"302 155 OFFCURVE",
"189 103 CURVE SMOOTH",
"175 96 OFFCURVE",
"160 91 OFFCURVE",
"145 87 CURVE SMOOTH",
"103 75 OFFCURVE",
"62 63 OFFCURVE",
"51 1 CURVE",
"54 -5 LINE",
"100 -22 OFFCURVE",
"133 0 OFFCURVE",
"165 22 CURVE SMOOTH",
"185 35 OFFCURVE",
"204 47 OFFCURVE",
"225 52 CURVE SMOOTH",
"317 76 OFFCURVE",
"420 42 OFFCURVE",
"487 20 CURVE SMOOTH",
"501 16 OFFCURVE",
"515 9 OFFCURVE",
"529 3 CURVE SMOOTH",
"564 -13 OFFCURVE",
"602 -30 OFFCURVE",
"638 -17 CURVE"
);
}
);
vertWidth = 1000;
width = 700;
}
);
note = cid00019;
unicode = 0032;
},
{
color = 3;
glyphname = three;
lastChange = "2021-01-02 15:09:44 +0000";
layers = (
{
hints = (
{
horizontal = 1;
place = "{-11, 44}";
type = Stem;
},
{
horizontal = 1;
place = "{625, 47}";
type = Stem;
},
{
place = "{451, 83}";
type = Stem;
},
{
place = "{438, 79}";
type = Stem;
}
);
layerId = "38E14F89-90D8-48C8-A96B-0BF2B2C9AEC9";
paths = (
{
closed = 1;
nodes = (
"481 -12 OFFCURVE",
"587 75 OFFCURVE",
"598 180 CURVE SMOOTH",
"606 272 OFFCURVE",
"548 369 OFFCURVE",
"461 409 CURVE",
"618 501 OFFCURVE",
"554 712 OFFCURVE",
"381 732 CURVE SMOOTH",
"275 743 OFFCURVE",
"139 688 OFFCURVE",
"143 588 CURVE SMOOTH",
"144 546 OFFCURVE",
"170 520 OFFCURVE",
"202 530 CURVE",
"205 532 LINE",
"217 550 OFFCURVE",
"212 561 OFFCURVE",
"207 572 CURVE SMOOTH",
"203 581 OFFCURVE",
"199 589 OFFCURVE",
"202 603 CURVE SMOOTH",
"207 635 OFFCURVE",
"262 671 OFFCURVE",
"316 677 CURVE SMOOTH",
"381 685 OFFCURVE",
"448 662 OFFCURVE",
"478 622 CURVE SMOOTH",
"554 523 OFFCURVE",
"430 439 OFFCURVE",
"332 434 CURVE SMOOTH",
"315 433 OFFCURVE",
"296 436 OFFCURVE",
"276 438 CURVE SMOOTH",
"232 445 OFFCURVE",
"184 451 OFFCURVE",
"152 415 CURVE",
"151 410 LINE",
"169 363 OFFCURVE",
"232 370 OFFCURVE",
"284 376 CURVE SMOOTH",
"303 378 OFFCURVE",
"321 380 OFFCURVE",
"336 379 CURVE SMOOTH",
"449 373 OFFCURVE",
"557 305 OFFCURVE",
"543 185 CURVE SMOOTH",
"530 78 OFFCURVE",
"394 14 OFFCURVE",
"271 30 CURVE SMOOTH",
"199 39 OFFCURVE",
"148 84 OFFCURVE",
"153 134 CURVE SMOOTH",
"156 164 OFFCURVE",
"175 173 OFFCURVE",
"196 184 CURVE SMOOTH",
"217 195 OFFCURVE",
"242 208 OFFCURVE",
"247 244 CURVE",
"243 250 LINE",
"180 264 OFFCURVE",
"106 209 OFFCURVE",
"98 144 CURVE SMOOTH",
"83 13 OFFCURVE",
"233 -36 OFFCURVE",
"348 -25 CURVE SMOOTH"
);
}
);
vertWidth = 1000;
width = 700;
}
);
note = cid00020;
unicode = 0033;
},
{
color = 3;
glyphname = four;
lastChange = "2020-12-24 23:28:07 +0000";
layers = (
{
hints = (
{
horizontal = 1;
place = "{2, 45.34}";
type = Stem;
},
{
horizontal = 1;
place = "{177, 58}";
type = Stem;
},
{
horizontal = 1;
place = "{681, -20}";
target = down;
type = TopGhost;
},
{
place = "{382, 79}";
type = Stem;
},
{
place = "{384, 80}";
type = Stem;
}
);
layerId = "38E14F89-90D8-48C8-A96B-0BF2B2C9AEC9";
paths = (
{
closed = 1;
nodes = (
"461 -47 LINE",
"480 -23 OFFCURVE",
"477 21 OFFCURVE",
"475 64 CURVE SMOOTH",
"473 104 OFFCURVE",
"470 143 OFFCURVE",
"485 165 CURVE",
"517 171 OFFCURVE",
"556 165 OFFCURVE",
"594 160 CURVE SMOOTH",
"629 154 OFFCURVE",
"662 149 OFFCURVE",
"687 155 CURVE",
"691 160 LINE",
"694 215 OFFCURVE",
"630 216 OFFCURVE",
"571 218 CURVE SMOOTH",
"537 218 OFFCURVE",
"504 219 OFFCURVE",
"483 229 CURVE",
"481 311 OFFCURVE",
"490 397 OFFCURVE",
"503 482 CURVE SMOOTH",
"506 502 OFFCURVE",
"511 523 OFFCURVE",
"516 543 CURVE SMOOTH",
"530 605 OFFCURVE",
"545 668 OFFCURVE",
"515 718 CURVE",
"511 720 LINE",
"439 713 OFFCURVE",
"375 648 OFFCURVE",
"328 601 CURVE SMOOTH",
"237 512 OFFCURVE",
"173 417 OFFCURVE",
"111 310 CURVE SMOOTH",
"78 255 OFFCURVE",
"38 198 OFFCURVE",
"36 136 CURVE",
"41 131 LINE",
"87 128 OFFCURVE",
"142 137 OFFCURVE",
"199 147 CURVE SMOOTH",
"273 159 OFFCURVE",
"350 172 OFFCURVE",
"420 160 CURVE",
"420 130 OFFCURVE",
"420 87 OFFCURVE",
"420 46 CURVE SMOOTH",
"420 39 OFFCURVE",
"420 32 OFFCURVE",
"419 24 CURVE SMOOTH",
"417 -10 OFFCURVE",
"414 -55 OFFCURVE",
"458 -49 CURVE"
);
},
{
closed = 1;
nodes = (
"190 372 OFFCURVE",
"305 519 OFFCURVE",
"466 641 CURVE",
"470 597 OFFCURVE",
"462 550 OFFCURVE",
"453 500 CURVE SMOOTH",
"450 481 OFFCURVE",
"447 462 OFFCURVE",
"444 443 CURVE SMOOTH",
"438 397 OFFCURVE",
"434 350 OFFCURVE",
"429 304 CURVE SMOOTH",
"426 278 OFFCURVE",
"423 252 OFFCURVE",
"420 227 CURVE",
"380 222 OFFCURVE",
"340 218 OFFCURVE",
"299 215 CURVE SMOOTH",
"238 209 OFFCURVE",
"177 204 OFFCURVE",
"119 195 CURVE"
);
}
);
vertWidth = 1000;
width = 700;
}
);
note = cid00021;
unicode = 0034;
},
{
color = 3;
glyphname = five;
lastChange = "2021-01-02 15:09:44 +0000";
layers = (
{
hints = (
{
horizontal = 1;
place = "{-13, 38}";
type = Stem;
},
{
horizontal = 1;
place = "{375, 38}";
type = Stem;
},
{
horizontal = 1;
place = "{574, 70}";
type = Stem;
},
{
place = "{127, 92.94}";
type = Stem;
},
{
place = "{476, 80}";
type = Stem;
},
{
place = "{144, 66}";
type = Stem;
},
{
place = "{172, 40}";
type = Stem;
}
);
layerId = "38E14F89-90D8-48C8-A96B-0BF2B2C9AEC9";
paths = (
{
closed = 1;
nodes = (
"441 -44 OFFCURVE",
"576 52 OFFCURVE",
"591 188 CURVE SMOOTH",
"607 334 OFFCURVE",
"530 472 OFFCURVE",
"378 475 CURVE SMOOTH",
"305 476 OFFCURVE",
"268 454 OFFCURVE",
"224 427 CURVE SMOOTH",
"208 417 OFFCURVE",
"191 407 OFFCURVE",
"171 397 CURVE",
"178 483 OFFCURVE",
"186 568 OFFCURVE",
"213 633 CURVE",
"326 618 OFFCURVE",
"601 562 OFFCURVE",
"619 714 CURVE",
"617 719 LINE",
"603 731 OFFCURVE",
"580 731 OFFCURVE",
"573 717 CURVE",
"522 639 OFFCURVE",
"357 667 OFFCURVE",
"243 686 CURVE SMOOTH",
"219 690 OFFCURVE",
"197 694 OFFCURVE",
"179 696 CURVE",
"174 694 LINE",
"150 652 OFFCURVE",
"142 595 OFFCURVE",
"134 537 CURVE SMOOTH",
"132 523 OFFCURVE",
"130 509 OFFCURVE",
"128 496 CURVE SMOOTH",
"126 482 OFFCURVE",
"123 468 OFFCURVE",
"120 454 CURVE SMOOTH",
"109 397 OFFCURVE",
"97 333 OFFCURVE",
"125 288 CURVE",
"130 286 LINE",
"166 294 OFFCURVE",
"186 316 OFFCURVE",
"203 337 CURVE SMOOTH",
"212 347 OFFCURVE",
"220 356 OFFCURVE",
"230 364 CURVE SMOOTH",
"357 468 OFFCURVE",
"565 411 OFFCURVE",
"536 194 CURVE SMOOTH",
"529 145 OFFCURVE",
"497 95 OFFCURVE",
"452 62 CURVE SMOOTH",
"403 26 OFFCURVE",
"213 -36 OFFCURVE",
"211 79 CURVE SMOOTH",
"211 109 OFFCURVE",
"227 122 OFFCURVE",
"246 135 CURVE SMOOTH",
"262 147 OFFCURVE",
"280 161 OFFCURVE",
"281 189 CURVE",
"277 194 LINE",
"217 210 OFFCURVE",
"156 151 OFFCURVE",
"156 79 CURVE SMOOTH",
"156 -9 OFFCURVE",
"242 -45 OFFCURVE",
"312 -45 CURVE SMOOTH"
);
}
);
vertWidth = 1000;
width = 700;
}
);
note = cid00022;
unicode = 0035;
},
{
color = 3;
glyphname = six;
lastChange = "2021-01-02 15:09:44 +0000";
layers = (
{
hints = (
{
horizontal = 1;
place = "{-11, 56}";
type = Stem;
},
{
horizontal = 1;
place = "{381, 50}";
type = Stem;
},
{
horizontal = 1;
place = "{626, 48}";
type = Stem;
},
{
place = "{120, 85}";
type = Stem;
},
{
place = "{486, 81}";
type = Stem;
},
{
place = "{457, 98}";
type = Stem;
},
{
horizontal = 1;
place = "{523, 151}";
type = Stem;
}
);
layerId = "38E14F89-90D8-48C8-A96B-0BF2B2C9AEC9";
paths = (
{
closed = 1;
nodes = (
"399 -60 OFFCURVE",
"477 -22 OFFCURVE",
"534 31 CURVE SMOOTH",
"587 80 OFFCURVE",
"634 175 OFFCURVE",
"630 280 CURVE SMOOTH",
"623 411 OFFCURVE",
"561 490 OFFCURVE",
"457 497 CURVE SMOOTH",
"312 506 OFFCURVE",
"219 384 OFFCURVE",
"232 262 CURVE SMOOTH",
"235 237 OFFCURVE",
"243 179 OFFCURVE",
"286 181 CURVE SMOOTH",
"288 181 LINE",
"310 191 OFFCURVE",
"302 221 OFFCURVE",
"295 249 CURVE SMOOTH",
"291 264 OFFCURVE",
"287 279 OFFCURVE",
"287 292 CURVE SMOOTH",
"290 386 OFFCURVE",
"366 452 OFFCURVE",
"460 442 CURVE SMOOTH",
"615 427 OFFCURVE",
"583 168 OFFCURVE",
"510 87 CURVE SMOOTH",
"481 54 OFFCURVE",
"394 -6 OFFCURVE",
"295 11 CURVE SMOOTH",
"182 30 OFFCURVE",
"140 190 OFFCURVE",
"140 276 CURVE SMOOTH",
"140 391 OFFCURVE",
"192 499 OFFCURVE",
"237 550 CURVE SMOOTH",
"265 582 OFFCURVE",
"279 600 OFFCURVE",
"341 630 CURVE SMOOTH",
"357 638 OFFCURVE",
"374 642 OFFCURVE",
"392 646 CURVE SMOOTH",
"409 650 OFFCURVE",
"427 655 OFFCURVE",
"447 662 CURVE SMOOTH",
"525 695 OFFCURVE",
"445 718 OFFCURVE",
"424 713 CURVE SMOOTH",
"197 663 OFFCURVE",
"67 481 OFFCURVE",
"85 235 CURVE SMOOTH",
"94 118 OFFCURVE",
"165 -26 OFFCURVE",
"285 -43 CURVE SMOOTH"
);
}
);
vertWidth = 1000;
width = 700;
}
);
note = cid00023;
unicode = 0036;
},
{
color = 3;
glyphname = seven;
lastChange = "2021-01-02 15:09:44 +0000";
layers = (
{
hints = (
{
horizontal = 1;
place = "{591, 62}";
type = Stem;
},
{
place = "{101, 473}";
type = Stem;
}
);
layerId = "38E14F89-90D8-48C8-A96B-0BF2B2C9AEC9";
paths = (
{
closed = 1;
nodes = (
"350 -45 OFFCURVE",
"355 -8 OFFCURVE",
"352 73 CURVE SMOOTH",
"351 87 OFFCURVE",
"351 97 OFFCURVE",
"351 103 CURVE SMOOTH",
"362 296 OFFCURVE",
"431 439 OFFCURVE",
"569 552 CURVE SMOOTH",
"572 554 OFFCURVE",
"577 558 OFFCURVE",
"585 563 CURVE SMOOTH",
"658 610 OFFCURVE",
"690 642 OFFCURVE",
"685 667 CURVE SMOOTH",
"679 702 OFFCURVE",
"599 712 OFFCURVE",
"468 704 CURVE SMOOTH",
"370 697 OFFCURVE",
"277 661 OFFCURVE",
"200 601 CURVE SMOOTH",
"193 595 OFFCURVE",
"186 589 OFFCURVE",
"180 584 CURVE SMOOTH",
"166 571 OFFCURVE",
"153 558 OFFCURVE",
"134 551 CURVE",
"134 571 OFFCURVE",
"139 591 OFFCURVE",
"144 611 CURVE SMOOTH",
"152 643 OFFCURVE",
"160 675 OFFCURVE",
"147 705 CURVE",
"142 708 LINE",
"139 708 OFFCURVE",
"136 708 OFFCURVE",
"133 708 CURVE SMOOTH",
"115 708 OFFCURVE",
"106 705 OFFCURVE",
"108 691 CURVE",
"97 652 OFFCURVE",
"87 605 OFFCURVE",
"78 557 CURVE SMOOTH",
"76 546 OFFCURVE",
"73 535 OFFCURVE",
"71 524 CURVE SMOOTH",
"69 513 OFFCURVE",
"66 502 OFFCURVE",
"63 490 CURVE SMOOTH",
"52 444 OFFCURVE",
"39 391 OFFCURVE",
"60 361 CURVE",
"64 359 LINE",
"92 356 OFFCURVE",
"100 381 OFFCURVE",
"105 398 CURVE SMOOTH",
"106 403 OFFCURVE",
"108 407 OFFCURVE",
"109 411 CURVE",
"186 561 OFFCURVE",
"365 685 OFFCURVE",
"593 643 CURVE",
"574 625 OFFCURVE",
"555 608 OFFCURVE",
"536 592 CURVE SMOOTH",
"467 530 OFFCURVE",
"400 470 OFFCURVE",
"357 379 CURVE SMOOTH",
"322 304 OFFCURVE",
"299 184 OFFCURVE",
"296 58 CURVE SMOOTH",
"295 32 OFFCURVE",
"289 -57 OFFCURVE",
"330 -49 CURVE SMOOTH"
);
}
);
vertWidth = 1000;
width = 700;
}
);
note = cid00024;
unicode = 0037;
},
{
color = 3;
glyphname = eight;
lastChange = "2020-12-24 23:28:07 +0000";
layers = (
{
hints = (
{
horizontal = 1;
place = "{-11, 47}";
type = Stem;
},
{
horizontal = 1;
place = "{623, 50}";
type = Stem;
},
{
place = "{105, 72}";
type = Stem;
},
{
place = "{478, 74}";
type = Stem;
},
{
place = "{131, 70}";
type = Stem;
},
{
place = "{464, 68}";
type = Stem;
},
{
horizontal = 1;
place = "{1, 35}";
type = Stem;
}
);
layerId = "38E14F89-90D8-48C8-A96B-0BF2B2C9AEC9";
paths = (
{
closed = 1;
nodes = (
"647 258 OFFCURVE",
"570 310 OFFCURVE",
"498 359 CURVE SMOOTH",
"484 369 OFFCURVE",
"470 379 OFFCURVE",
"456 389 CURVE",
"511 430 OFFCURVE",
"580 480 OFFCURVE",
"588 572 CURVE SMOOTH",
"590 604 OFFCURVE",
"597 670 OFFCURVE",
"547 679 CURVE",
"543 678 LINE",
"521 658 OFFCURVE",
"525 632 OFFCURVE",
"530 610 CURVE SMOOTH",
"532 598 OFFCURVE",
"534 588 OFFCURVE",
"533 577 CURVE SMOOTH",
"526 501 OFFCURVE",
"424 413 OFFCURVE",
"366 410 CURVE SMOOTH",
"330 408 OFFCURVE",
"274 434 OFFCURVE",
"242 450 CURVE SMOOTH",
"191 475 OFFCURVE",
"163 503 OFFCURVE",
"159 533 CURVE SMOOTH",
"151 600 OFFCURVE",
"232 669 OFFCURVE",
"317 669 CURVE SMOOTH",
"374 670 OFFCURVE",
"431 648 OFFCURVE",
"448 619 CURVE",
"451 612 OFFCURVE",
"452 606 OFFCURVE",
"452 599 CURVE SMOOTH",
"452 589 OFFCURVE",
"453 577 OFFCURVE",
"464 565 CURVE",
"469 563 LINE",
"548 573 OFFCURVE",
"500 649 OFFCURVE",
"489 661 CURVE SMOOTH",
"383 782 OFFCURVE",
"122 712 OFFCURVE",
"104 561 CURVE SMOOTH",
"93 463 OFFCURVE",
"160 431 OFFCURVE",
"223 402 CURVE SMOOTH",
"245 391 OFFCURVE",
"266 381 OFFCURVE",
"284 368 CURVE",
"269 357 OFFCURVE",
"252 347 OFFCURVE",
"235 337 CURVE SMOOTH",
"164 295 OFFCURVE",
"90 252 OFFCURVE",
"88 148 CURVE SMOOTH",
"82 -106 OFFCURVE",
"586 -102 OFFCURVE",
"624 127 CURVE SMOOTH"
);
},
{
closed = 1;
nodes = (
"142 217 OFFCURVE",
"220 285 OFFCURVE",
"364 343 CURVE",
"364 343 OFFCURVE",
"364 344 OFFCURVE",
"367 343 CURVE",
"369 343 OFFCURVE",
"369 343 OFFCURVE",
"370 343 CURVE SMOOTH",
"453 356 OFFCURVE",
"559 258 OFFCURVE",
"569 192 CURVE SMOOTH",
"602 -27 OFFCURVE",
"145 -54 OFFCURVE",
"143 144 CURVE SMOOTH"
);
}
);
vertWidth = 1000;
width = 700;
}
);
note = cid00025;
unicode = 0038;
},
{
color = 3;
glyphname = nine;
lastChange = "2021-01-02 15:09:44 +0000";
layers = (
{
hints = (
{
horizontal = 1;
place = "{-12, 37}";
type = Stem;
},
{
horizontal = 1;
place = "{236, 48}";
type = Stem;
},
{
horizontal = 1;
place = "{626, 45}";
type = Stem;
},
{
place = "{125, 96.44}";
type = Stem;
},
{
place = "{458, 84}";
type = Stem;
},
{
place = "{103, 79}";
type = Stem;
}
);
layerId = "38E14F89-90D8-48C8-A96B-0BF2B2C9AEC9";
paths = (
{
closed = 1;
nodes = (
"488 -49 OFFCURVE",
"490 0 OFFCURVE",
"491 41 CURVE SMOOTH",
"491 55 OFFCURVE",
"491 72 OFFCURVE",
"493 83 CURVE SMOOTH",
"504 174 OFFCURVE",
"528 241 OFFCURVE",
"552 310 CURVE SMOOTH",
"562 338 OFFCURVE",
"572 366 OFFCURVE",
"581 397 CURVE SMOOTH",
"584 405 OFFCURVE",
"587 414 OFFCURVE",
"590 424 CURVE SMOOTH",
"607 472 OFFCURVE",
"626 529 OFFCURVE",
"594 561 CURVE",
"588 562 LINE",
"540 538 OFFCURVE",
"534 470 OFFCURVE",
"520 428 CURVE SMOOTH",
"515 410 OFFCURVE",
"510 390 OFFCURVE",
"505 371 CURVE SMOOTH",
"479 271 OFFCURVE",
"446 179 OFFCURVE",
"309 195 CURVE SMOOTH",
"79 222 OFFCURVE",
"106 591 OFFCURVE",
"297 655 CURVE SMOOTH",
"378 682 OFFCURVE",
"461 644 OFFCURVE",
"473 577 CURVE SMOOTH",
"481 535 OFFCURVE",
"465 513 OFFCURVE",
"450 491 CURVE SMOOTH",
"437 472 OFFCURVE",
"424 453 OFFCURVE",
"431 422 CURVE",
"436 418 LINE",
"508 420 OFFCURVE",
"556 534 OFFCURVE",
"522 617 CURVE SMOOTH",
"493 687 OFFCURVE",
"408 728 OFFCURVE",
"315 718 CURVE SMOOTH",
"209 705 OFFCURVE",
"105 585 OFFCURVE",
"89 461 CURVE SMOOTH",
"70 296 OFFCURVE",
"162 113 OFFCURVE",
"372 140 CURVE SMOOTH",
"384 142 OFFCURVE",
"393 146 OFFCURVE",
"402 150 CURVE SMOOTH",
"414 155 OFFCURVE",
"426 160 OFFCURVE",
"447 158 CURVE",
"454 135 OFFCURVE",
"433 80 OFFCURVE",
"428 31 CURVE SMOOTH",
"425 -2 OFFCURVE",
"417 -44 OFFCURVE",
"446 -61 CURVE",
"451 -62 LINE"
);
}
);
vertWidth = 1000;
width = 700;
}
);
note = cid00026;
unicode = 0039;
},
{
color = 3;
glyphname = zero.zero;
lastChange = "2021-05-25 17:39:30 +0000";
layers = (
{
components = (
{
name = zero;
}
);
hints = (
{
horizontal = 1;
place = "{-7, 74}";
type = Stem;
},
{
horizontal = 1;
place = "{683, 74}";
type = Stem;
},
{
place = "{66, 73}";
type = Stem;
},
{
place = "{458, 73}";
type = Stem;
},
{
horizontal = 1;
place = "{0, 21}";
target = up;
type = BottomGhost;
},
{
horizontal = 1;
place = "{15, 21}";
target = up;
type = BottomGhost;
},
{
place = "{113, 487}";
type = Stem;
},
{
place = "{114, 62}";
type = Stem;
}
);
layerId = "38E14F89-90D8-48C8-A96B-0BF2B2C9AEC9";
paths = (
{
closed = 1;
nodes = (
"184 -33 OFFCURVE",
"205 -3 OFFCURVE",
"219 31 CURVE SMOOTH",
"277 172 OFFCURVE",
"479 515 OFFCURVE",
"538 632 CURVE SMOOTH",
"571 696 OFFCURVE",
"563 724 OFFCURVE",
"543 727 CURVE SMOOTH",
"512 732 OFFCURVE",
"500 706 OFFCURVE",
"500 676 CURVE",
"430 542 LINE",
"337 373 OFFCURVE",
"237 190 OFFCURVE",
"172 46 CURVE SMOOTH",
"151 0 OFFCURVE",
"152 -34 OFFCURVE",
"169 -33 CURVE SMOOTH"
);
}
);
vertWidth = 1000;
width = 690;
}
);
leftMetricsKey = zero;
note = cid00230;
rightMetricsKey = zero;
},
{
glyphname = onesuperior;
lastChange = "2021-01-02 15:09:44 +0000";
layers = (
{
hints = (
{
horizontal = 1;
place = "{767, 41}";
type = Stem;
},
{
place = "{186, 40}";
type = Stem;
},
{
horizontal = 1;
place = "{428.2, 12.6}";
type = Stem;
},
{
horizontal = 1;
place = "{815.2, 4.8}";
type = Stem;
},
{
place = "{132.8, 45}";
type = Stem;
},
{
horizontal = 1;
place = "{446.1, 11.55}";
type = Stem;
},
{
horizontal = 1;
place = "{800.85, 4.4}";
type = Stem;
},
{
place = "{168.65, 41.25}";
type = Stem;
}
);
layerId = "38E14F89-90D8-48C8-A96B-0BF2B2C9AEC9";
paths = (
{
closed = 1;
nodes = (
"222 431 LINE",
"223 557 OFFCURVE",
"224 712 OFFCURVE",
"265 796 CURVE",
"268 800 OFFCURVE",
"270 804 OFFCURVE",
"275 810 CURVE SMOOTH",
"284 821 OFFCURVE",
"296 836 OFFCURVE",
"291 856 CURVE",
"281 864 OFFCURVE",
"270 866 OFFCURVE",
"258 854 CURVE",
"222 818 OFFCURVE",
"180 776 OFFCURVE",
"138 747 CURVE SMOOTH",
"136 746 OFFCURVE",
"131 743 OFFCURVE",
"128 741 CURVE",
"115 733 OFFCURVE",
"96 723 OFFCURVE",
"97 701 CURVE",
"99 697 LINE",
"120 681 OFFCURVE",
"141 698 OFFCURVE",
"156 709 CURVE",
"159 712 OFFCURVE",
"162 714 OFFCURVE",
"165 716 CURVE SMOOTH",
"171 720 OFFCURVE",
"177 725 OFFCURVE",
"181 729 CURVE SMOOTH",
"189 735 OFFCURVE",
"196 741 OFFCURVE",
"203 745 CURVE",
"189 675 OFFCURVE",
"181 585 OFFCURVE",
"184 498 CURVE SMOOTH",
"184 494 OFFCURVE",
"184 489 OFFCURVE",
"184 486 CURVE SMOOTH",
"183 461 OFFCURVE",
"182 419 OFFCURVE",
"218 426 CURVE"
);
}
);
vertWidth = 1000;
width = 400;
}
);
note = cid00160;
unicode = 00B9;
},
{
glyphname = twosuperior;
lastChange = "2021-01-02 15:09:44 +0000";
layers = (
{
hints = (
{
horizontal = 1;
place = "{437, 39}";
type = Stem;
},
{
horizontal = 1;
place = "{811, 38}";
type = Stem;
},
{
place = "{83, 40}";
type = Stem;
},
{
place = "{277, 40}";
type = Stem;
},
{
horizontal = 1;
place = "{433.2, 45}";
type = Stem;
},
{
horizontal = 1;
place = "{807.6, 26.4}";
type = Stem;
},
{
place = "{310.8, 11.4}";
type = Stem;
},
{
place = "{259.8, 52.2}";
type = Stem;
},
{
horizontal = 1;
place = "{456.1, 41.25}";
type = Stem;
},
{
horizontal = 1;
place = "{799.3, 24.2}";
type = Stem;
},
{
place = "{298.4, 10.45}";
type = Stem;
},
{
place = "{251.65, 47.85}";
type = Stem;
}
);
layerId = "38E14F89-90D8-48C8-A96B-0BF2B2C9AEC9";
paths = (
{
closed = 1;
nodes = (
"365 446 LINE",
"369 469 OFFCURVE",
"347 477 OFFCURVE",
"333 482 CURVE SMOOTH",
"331 483 OFFCURVE",
"329 484 OFFCURVE",
"327 485 CURVE SMOOTH",
"291 501 OFFCURVE",
"245 514 OFFCURVE",
"189 523 CURVE",
"195 531 OFFCURVE",
"202 538 OFFCURVE",
"209 545 CURVE SMOOTH",
"229 567 OFFCURVE",
"250 590 OFFCURVE",
"267 617 CURVE SMOOTH",
"293 655 OFFCURVE",
"321 703 OFFCURVE",
"325 755 CURVE SMOOTH",
"336 898 OFFCURVE",
"151 876 OFFCURVE",
"93 813 CURVE SMOOTH",
"55 770 OFFCURVE",
"63 680 OFFCURVE",
"133 674 CURVE SMOOTH",
"172 671 OFFCURVE",
"195 685 OFFCURVE",
"188 711 CURVE",
"185 714 LINE SMOOTH",
"173 724 OFFCURVE",
"162 720 OFFCURVE",
"154 717 CURVE SMOOTH",
"147 714 OFFCURVE",
"142 714 OFFCURVE",
"139 714 CURVE SMOOTH",
"117 717 OFFCURVE",
"105 734 OFFCURVE",
"110 759 CURVE SMOOTH",
"120 826 OFFCURVE",
"277 858 OFFCURVE",
"285 775 CURVE SMOOTH",
"288 746 OFFCURVE",
"272 713 OFFCURVE",
"263 692 CURVE SMOOTH",
"232 625 OFFCURVE",
"171 544 OFFCURVE",
"110 516 CURVE SMOOTH",
"104 513 OFFCURVE",
"96 510 OFFCURVE",
"86 508 CURVE SMOOTH",
"63 501 OFFCURVE",
"37 493 OFFCURVE",
"31 455 CURVE",
"34 448 LINE",
"63 437 OFFCURVE",
"84 451 OFFCURVE",
"102 463 CURVE SMOOTH",
"112 470 OFFCURVE",
"122 476 OFFCURVE",
"133 479 CURVE SMOOTH",
"182 492 OFFCURVE",
"237 473 OFFCURVE",
"274 461 CURVE",
"280 460 OFFCURVE",
"285 457 OFFCURVE",
"291 455 CURVE SMOOTH",
"293 454 OFFCURVE",
"295 453 OFFCURVE",
"297 452 CURVE SMOOTH",
"317 443 OFFCURVE",
"340 433 OFFCURVE",
"362 441 CURVE"
);
}
);
vertWidth = 1000;
width = 400;
}
);
note = cid00157;
unicode = 00B2;
},
{
glyphname = threesuperior;
lastChange = "2021-01-02 15:09:44 +0000";
layers = (
{
hints = (
{
horizontal = 1;
place = "{424, 39}";
type = Stem;
},
{
horizontal = 1;
place = "{516, -20}";
target = down;
type = TopGhost;
},
{
horizontal = 1;
place = "{629, 39}";
type = Stem;
},
{
horizontal = 1;
place = "{803, 39}";
type = Stem;
},
{
place = "{84, 39}";
type = Stem;
},
{
place = "{274, 39}";
type = Stem;
},
{
place = "{263, 40}";
type = Stem;
},
{
horizontal = 1;
place = "{427.4, 26.4}";
type = Stem;
},
{
horizontal = 1;
place = "{809, 28.2}";
type = Stem;
},
{
place = "{260.6, 49.8}";
type = Stem;
},
{
place = "{252.8, 47.4}";
type = Stem;
},
{
horizontal = 1;
place = "{452.95, 24.2}";
type = Stem;
},
{
horizontal = 1;
place = "{802.75, 25.85}";
type = Stem;
},
{
place = "{265.05, 45.65}";
type = Stem;
},
{
place = "{257.9, 43.45}";
type = Stem;
}
);
layerId = "38E14F89-90D8-48C8-A96B-0BF2B2C9AEC9";
paths = (
{
closed = 1;
nodes = (
"284 448 OFFCURVE",
"345 497 OFFCURVE",
"351 558 CURVE SMOOTH",
"355 608 OFFCURVE",
"326 660 OFFCURVE",
"281 684 CURVE",
"360 739 OFFCURVE",
"327 855 OFFCURVE",
"227 867 CURVE SMOOTH",
"168 873 OFFCURVE",
"88 841 OFFCURVE",
"91 782 CURVE SMOOTH",
"91 756 OFFCURVE",
"109 739 OFFCURVE",
"130 746 CURVE",
"133 748 LINE",
"142 761 OFFCURVE",
"138 769 OFFCURVE",
"135 776 CURVE SMOOTH",
"133 781 OFFCURVE",
"132 784 OFFCURVE",
"133 790 CURVE SMOOTH",
"135 805 OFFCURVE",
"164 823 OFFCURVE",
"191 826 CURVE SMOOTH",
"226 831 OFFCURVE",
"261 819 OFFCURVE",
"276 798 CURVE SMOOTH",
"315 748 OFFCURVE",
"252 705 OFFCURVE",
"199 703 CURVE",
"193 702 OFFCURVE",
"185 703 OFFCURVE",
"177 704 CURVE SMOOTH",
"174 704 OFFCURVE",
"172 705 OFFCURVE",
"169 705 CURVE",
"145 709 OFFCURVE",
"115 712 OFFCURVE",
"96 690 CURVE",
"95 684 LINE",
"105 653 OFFCURVE",
"145 657 OFFCURVE",
"174 661 CURVE SMOOTH",
"184 662 OFFCURVE",
"194 663 OFFCURVE",
"202 662 CURVE SMOOTH",
"271 659 OFFCURVE",
"317 617 OFFCURVE",
"311 561 CURVE SMOOTH",
"304 509 OFFCURVE",
"237 471 OFFCURVE",
"167 480 CURVE SMOOTH",
"130 485 OFFCURVE",
"104 508 OFFCURVE",
"106 532 CURVE SMOOTH",
"107 546 OFFCURVE",
"115 550 OFFCURVE",
"127 556 CURVE SMOOTH",
"139 562 OFFCURVE",
"156 571 OFFCURVE",
"158 594 CURVE",
"154 601 LINE",
"116 611 OFFCURVE",
"71 578 OFFCURVE",
"66 539 CURVE SMOOTH",
"57 463 OFFCURVE",
"145 434 OFFCURVE",
"209 440 CURVE SMOOTH"
);
}
);
vertWidth = 1000;
width = 400;
}
);
note = cid00158;
unicode = 00B3;
},
{
glyphname = foursuperior;
lastChange = "2021-05-25 21:09:03 +0000";
layers = (
{
background = {
paths = (
{
closed = 1;
nodes = (
"271 431 LINE",
"272 557 OFFCURVE",
"273 712 OFFCURVE",
"314 796 CURVE",
"317 800 OFFCURVE",
"319 804 OFFCURVE",
"324 810 CURVE SMOOTH",
"333 821 OFFCURVE",
"345 836 OFFCURVE",
"340 856 CURVE",
"330 864 OFFCURVE",
"319 866 OFFCURVE",
"307 854 CURVE",
"271 818 OFFCURVE",
"229 776 OFFCURVE",
"187 747 CURVE SMOOTH",
"185 746 OFFCURVE",
"180 743 OFFCURVE",
"177 741 CURVE",
"164 733 OFFCURVE",
"145 723 OFFCURVE",
"146 701 CURVE",
"148 697 LINE",
"169 681 OFFCURVE",
"190 698 OFFCURVE",
"205 709 CURVE",
"208 712 OFFCURVE",
"211 714 OFFCURVE",
"214 716 CURVE SMOOTH",
"220 720 OFFCURVE",
"226 725 OFFCURVE",
"230 729 CURVE SMOOTH",
"238 735 OFFCURVE",
"245 741 OFFCURVE",
"252 745 CURVE",
"238 675 OFFCURVE",
"230 585 OFFCURVE",
"233 498 CURVE SMOOTH",
"233 494 OFFCURVE",
"233 489 OFFCURVE",
"233 486 CURVE SMOOTH",
"232 461 OFFCURVE",
"231 419 OFFCURVE",
"267 426 CURVE"
);
}
);
};
layerId = "38E14F89-90D8-48C8-A96B-0BF2B2C9AEC9";
paths = (
{
closed = 1;
nodes = (
"278 428 LINE",
"290 443 OFFCURVE",
"288 469 OFFCURVE",
"287 493 CURVE SMOOTH",
"286 514 OFFCURVE",
"285 533 OFFCURVE",
"291 544 CURVE",
"307 547 OFFCURVE",
"327 544 OFFCURVE",
"347 541 CURVE SMOOTH",
"367 538 OFFCURVE",
"387 535 OFFCURVE",
"402 539 CURVE",
"406 544 LINE",
"409 581 OFFCURVE",
"368 582 OFFCURVE",
"335 583 CURVE SMOOTH",
"318 583 OFFCURVE",
"302 583 OFFCURVE",
"292 587 CURVE",
"291 631 OFFCURVE",
"296 677 OFFCURVE",
"303 722 CURVE SMOOTH",
"304 733 OFFCURVE",
"307 744 OFFCURVE",
"310 755 CURVE SMOOTH",
"317 790 OFFCURVE",
"326 827 OFFCURVE",
"308 857 CURVE",
"303 859 LINE",
"261 856 OFFCURVE",
"224 818 OFFCURVE",
"198 792 CURVE SMOOTH",
"147 743 OFFCURVE",
"112 690 OFFCURVE",
"78 631 CURVE SMOOTH",
"59 600 OFFCURVE",
"36 567 OFFCURVE",
"36 531 CURVE",
"41 525 LINE",
"68 523 OFFCURVE",
"99 528 OFFCURVE",
"131 534 CURVE SMOOTH",
"170 540 OFFCURVE",
"210 547 OFFCURVE",
"247 542 CURVE",
"247 526 OFFCURVE",
"247 503 OFFCURVE",
"247 483 CURVE SMOOTH",
"247 479 OFFCURVE",
"247 476 OFFCURVE",
"246 472 CURVE",
"245 453 OFFCURVE",
"243 421 OFFCURVE",
"275 426 CURVE"
);
},
{
closed = 1;
nodes = (
"132 661 OFFCURVE",
"191 737 OFFCURVE",
"273 801 CURVE",
"273 780 OFFCURVE",
"270 758 OFFCURVE",
"265 734 CURVE SMOOTH",
"264 724 OFFCURVE",
"262 714 OFFCURVE",
"260 702 CURVE SMOOTH",
"258 686 OFFCURVE",
"256 669 OFFCURVE",
"255 652 CURVE SMOOTH",
"254 643 OFFCURVE",
"253 634 OFFCURVE",
"252 626 CURVE SMOOTH",
"250 613 OFFCURVE",
"249 600 OFFCURVE",
"248 587 CURVE",
"227 585 OFFCURVE",
"206 583 OFFCURVE",
"185 581 CURVE SMOOTH",
"179 581 OFFCURVE",
"172 580 OFFCURVE",
"166 579 CURVE SMOOTH",
"142 577 OFFCURVE",
"118 575 OFFCURVE",
"94 571 CURVE"
);
}
);
width = 415;
}
);
leftMetricsKey = four;
rightMetricsKey = four;
unicode = 2074;
},
{
glyphname = onehalf;
lastChange = "2021-01-02 15:09:44 +0000";
layers = (
{
hints = (
{
horizontal = 1;
place = "{0, 39}";
type = Stem;
},
{
horizontal = 1;
place = "{375, 38}";
type = Stem;
},
{
horizontal = 1;
place = "{681, 41}";
type = Stem;
},
{
place = "{144, 41}";
type = Stem;
},
{
place = "{498, 40}";
type = Stem;
},
{
place = "{693, 39}";
type = Stem;
},
{
horizontal = 1;
place = "{0, 21}";
target = up;
type = BottomGhost;
},
{
horizontal = 1;
place = "{-3, 21}";
target = up;
type = BottomGhost;
},
{
horizontal = 1;
place = "{722, -20}";
target = down;
type = TopGhost;
},
{
horizontal = 1;
place = "{0.2, 45}";
type = Stem;
},
{
horizontal = 1;
place = "{374.6, 26.4}";
type = Stem;
},
{
place = "{753.8, 11.4}";
type = Stem;
},
{
place = "{702.8, 52.2}";
type = Stem;
}
);
layerId = "38E14F89-90D8-48C8-A96B-0BF2B2C9AEC9";
paths = (
{
closed = 1;
nodes = (
"147 30 OFFCURVE",
"173 55 OFFCURVE",
"192 87 CURVE SMOOTH",
"273 218 OFFCURVE",
"522 525 OFFCURVE",
"613 654 CURVE SMOOTH",
"648 703 OFFCURVE",
"658 741 OFFCURVE",
"635 748 CURVE SMOOTH",
"611 756 OFFCURVE",
"585 735 OFFCURVE",
"585 705 CURVE",
"556 661 OFFCURVE",
"511 599 OFFCURVE",
"481 560 CURVE SMOOTH",
"363 407 OFFCURVE",
"237 240 OFFCURVE",
"147 108 CURVE SMOOTH",
"120 67 OFFCURVE",
"115 34 OFFCURVE",
"132 32 CURVE SMOOTH"
);
},
{
closed = 1;
nodes = (
"202 361 LINE",
"203 487 OFFCURVE",
"204 642 OFFCURVE",
"245 726 CURVE",
"248 730 OFFCURVE",
"250 734 OFFCURVE",
"255 740 CURVE SMOOTH",
"264 751 OFFCURVE",
"276 766 OFFCURVE",
"271 786 CURVE",
"261 794 OFFCURVE",
"250 796 OFFCURVE",
"238 784 CURVE SMOOTH",
"202 748 OFFCURVE",
"160 706 OFFCURVE",
"118 677 CURVE SMOOTH",
"116 676 OFFCURVE",
"111 673 OFFCURVE",
"108 671 CURVE SMOOTH",
"95 663 OFFCURVE",
"76 653 OFFCURVE",
"77 631 CURVE",
"79 627 LINE",
"100 611 OFFCURVE",
"121 628 OFFCURVE",
"136 639 CURVE",
"139 642 OFFCURVE",
"142 644 OFFCURVE",
"145 646 CURVE SMOOTH",
"151 650 OFFCURVE",
"157 655 OFFCURVE",
"161 659 CURVE SMOOTH",
"169 665 OFFCURVE",
"176 671 OFFCURVE",
"183 675 CURVE",
"169 605 OFFCURVE",
"161 515 OFFCURVE",
"164 428 CURVE SMOOTH",
"164 424 OFFCURVE",
"164 419 OFFCURVE",
"164 416 CURVE SMOOTH",
"163 391 OFFCURVE",
"162 349 OFFCURVE",
"198 356 CURVE"
);
},
{
closed = 1;
nodes = (
"808 8 LINE",
"812 31 OFFCURVE",
"790 39 OFFCURVE",
"776 44 CURVE SMOOTH",
"774 45 OFFCURVE",
"772 46 OFFCURVE",
"770 47 CURVE SMOOTH",
"734 63 OFFCURVE",
"688 76 OFFCURVE",
"632 85 CURVE",
"638 93 OFFCURVE",
"645 100 OFFCURVE",
"652 107 CURVE SMOOTH",
"672 129 OFFCURVE",
"693 152 OFFCURVE",
"710 179 CURVE SMOOTH",
"736 217 OFFCURVE",
"764 265 OFFCURVE",
"768 317 CURVE SMOOTH",
"779 460 OFFCURVE",
"594 438 OFFCURVE",
"536 375 CURVE SMOOTH",
"498 332 OFFCURVE",
"506 242 OFFCURVE",
"576 236 CURVE SMOOTH",
"615 233 OFFCURVE",
"638 247 OFFCURVE",
"631 273 CURVE",
"628 276 LINE SMOOTH",
"616 286 OFFCURVE",
"605 282 OFFCURVE",
"597 279 CURVE SMOOTH",
"590 276 OFFCURVE",
"585 276 OFFCURVE",
"582 276 CURVE SMOOTH",
"560 279 OFFCURVE",
"548 296 OFFCURVE",
"553 321 CURVE SMOOTH",
"563 388 OFFCURVE",
"720 420 OFFCURVE",
"728 337 CURVE SMOOTH",
"731 308 OFFCURVE",
"715 275 OFFCURVE",
"706 254 CURVE SMOOTH",
"675 187 OFFCURVE",
"614 106 OFFCURVE",
"553 78 CURVE SMOOTH",
"547 75 OFFCURVE",
"539 72 OFFCURVE",
"529 70 CURVE SMOOTH",
"506 63 OFFCURVE",
"480 55 OFFCURVE",
"474 17 CURVE",
"477 10 LINE",
"506 -1 OFFCURVE",
"527 13 OFFCURVE",
"545 25 CURVE SMOOTH",
"555 32 OFFCURVE",
"565 38 OFFCURVE",
"576 41 CURVE SMOOTH",
"625 54 OFFCURVE",
"680 35 OFFCURVE",
"717 23 CURVE",
"723 22 OFFCURVE",
"728 19 OFFCURVE",
"734 17 CURVE SMOOTH",
"736 16 OFFCURVE",
"738 15 OFFCURVE",
"740 14 CURVE SMOOTH",
"760 5 OFFCURVE",
"783 -5 OFFCURVE",
"805 3 CURVE"
);
}
);
vertWidth = 1000;
width = 861;
}
);
note = cid00162;
unicode = 00BD;
},
{
glyphname = onequarter;
lastChange = "2021-01-02 15:09:44 +0000";
layers = (
{
hints = (
{
horizontal = 1;
place = "{1, 21}";
target = up;
type = BottomGhost;
},
{
horizontal = 1;
place = "{107, 37}";
type = Stem;
},
{
horizontal = 1;
place = "{359, 52}";
type = Stem;
},
{
horizontal = 1;
place = "{684, 41}";
type = Stem;
},
{
place = "{148, 40}";
type = Stem;
},
{
place = "{642, 39}";
type = Stem;
},
{
horizontal = 1;
place = "{1, 143}";
type = Stem;
},
{
horizontal = 1;
place = "{46.003, 21}";
target = up;
type = BottomGhost;
},
{
place = "{129.893, 486.333}";
type = Stem;
},
{
place = "{130.892, 61.915}";
type = Stem;
},
{
horizontal = 1;
place = "{358.2, 12.6}";
type = Stem;
},
{
horizontal = 1;
place = "{745.2, 4.8}";
type = Stem;
},
{
place = "{148.8, 45}";
type = Stem;
},
{
horizontal = 1;
place = "{1.2, 27.204}";
type = Stem;
},
{
horizontal = 1;
place = "{106.2, 34.8}";
type = Stem;
},
{
horizontal = 1;
place = "{408.6, -20}";
target = down;
type = TopGhost;
},
{
place = "{623.2, 47.4}";
type = Stem;
},
{
place = "{624.4, 48}";
type = Stem;
},
{
horizontal = 1;
place = "{23.1, 24.937}";
type = Stem;
},
{
horizontal = 1;
place = "{119.35, 31.9}";
type = Stem;
},
{
horizontal = 1;
place = "{396.55, -20}";
target = down;
type = TopGhost;
},
{
place = "{592.1, 43.45}";
type = Stem;
},
{
place = "{593.2, 44}";
type = Stem;
}
);
layerId = "38E14F89-90D8-48C8-A96B-0BF2B2C9AEC9";
paths = (
{
closed = 1;
nodes = (
"127 30 OFFCURVE",
"153 55 OFFCURVE",
"172 87 CURVE SMOOTH",
"253 218 OFFCURVE",
"502 525 OFFCURVE",
"593 654 CURVE SMOOTH",
"628 703 OFFCURVE",
"638 741 OFFCURVE",
"615 748 CURVE SMOOTH",
"591 756 OFFCURVE",
"565 735 OFFCURVE",
"565 705 CURVE",
"536 661 OFFCURVE",
"491 599 OFFCURVE",
"461 560 CURVE SMOOTH",
"343 407 OFFCURVE",
"217 240 OFFCURVE",
"127 108 CURVE SMOOTH",
"100 67 OFFCURVE",
"95 34 OFFCURVE",
"112 32 CURVE SMOOTH"
);
},
{
closed = 1;
nodes = (
"202 361 LINE",
"203 487 OFFCURVE",
"204 642 OFFCURVE",
"245 726 CURVE",
"248 730 OFFCURVE",
"250 734 OFFCURVE",
"255 740 CURVE SMOOTH",
"264 751 OFFCURVE",
"276 766 OFFCURVE",
"271 786 CURVE",
"261 794 OFFCURVE",
"250 796 OFFCURVE",
"238 784 CURVE SMOOTH",
"202 748 OFFCURVE",
"160 706 OFFCURVE",
"118 677 CURVE SMOOTH",
"116 676 OFFCURVE",
"111 673 OFFCURVE",
"108 671 CURVE SMOOTH",
"95 663 OFFCURVE",
"76 653 OFFCURVE",
"77 631 CURVE",
"79 627 LINE",
"100 611 OFFCURVE",
"121 628 OFFCURVE",
"136 639 CURVE",
"139 642 OFFCURVE",
"142 644 OFFCURVE",
"145 646 CURVE SMOOTH",
"151 650 OFFCURVE",
"157 655 OFFCURVE",
"161 659 CURVE SMOOTH",
"169 665 OFFCURVE",
"176 671 OFFCURVE",
"183 675 CURVE",
"169 605 OFFCURVE",
"161 515 OFFCURVE",
"164 428 CURVE SMOOTH",
"164 424 OFFCURVE",
"164 419 OFFCURVE",
"164 416 CURVE SMOOTH",
"163 391 OFFCURVE",
"162 349 OFFCURVE",
"198 356 CURVE"
);
},
{
closed = 1;
nodes = (
"639 -8 LINE",
"651 7 OFFCURVE",
"649 33 OFFCURVE",
"648 57 CURVE SMOOTH",
"647 78 OFFCURVE",
"646 97 OFFCURVE",
"652 108 CURVE",
"668 111 OFFCURVE",
"688 108 OFFCURVE",
"708 105 CURVE SMOOTH",
"728 102 OFFCURVE",
"748 99 OFFCURVE",
"763 103 CURVE",
"767 108 LINE",
"770 145 OFFCURVE",
"729 146 OFFCURVE",
"696 147 CURVE SMOOTH",
"679 147 OFFCURVE",
"663 147 OFFCURVE",
"653 151 CURVE",
"652 195 OFFCURVE",
"657 241 OFFCURVE",
"664 286 CURVE SMOOTH",
"665 297 OFFCURVE",
"668 308 OFFCURVE",
"671 319 CURVE SMOOTH",
"678 354 OFFCURVE",
"687 391 OFFCURVE",
"669 421 CURVE",
"664 423 LINE",
"622 420 OFFCURVE",
"585 382 OFFCURVE",
"559 356 CURVE SMOOTH",
"508 307 OFFCURVE",
"473 254 OFFCURVE",
"439 195 CURVE SMOOTH",
"420 164 OFFCURVE",
"397 131 OFFCURVE",
"397 95 CURVE",
"402 89 LINE",
"429 87 OFFCURVE",
"460 92 OFFCURVE",
"492 98 CURVE SMOOTH",
"531 104 OFFCURVE",
"571 111 OFFCURVE",
"608 106 CURVE",
"608 90 OFFCURVE",
"608 67 OFFCURVE",
"608 47 CURVE SMOOTH",
"608 43 OFFCURVE",
"608 40 OFFCURVE",
"607 36 CURVE",
"606 17 OFFCURVE",
"604 -15 OFFCURVE",
"636 -10 CURVE"
);
},
{
closed = 1;
nodes = (
"493 225 OFFCURVE",
"552 301 OFFCURVE",
"634 365 CURVE",
"634 344 OFFCURVE",
"631 322 OFFCURVE",
"626 298 CURVE SMOOTH",
"625 288 OFFCURVE",
"623 278 OFFCURVE",
"621 266 CURVE SMOOTH",
"619 250 OFFCURVE",
"617 233 OFFCURVE",
"616 216 CURVE SMOOTH",
"615 207 OFFCURVE",
"614 198 OFFCURVE",
"613 190 CURVE SMOOTH",
"611 177 OFFCURVE",
"610 164 OFFCURVE",
"609 151 CURVE",
"588 149 OFFCURVE",
"567 147 OFFCURVE",
"546 145 CURVE SMOOTH",
"540 145 OFFCURVE",
"533 144 OFFCURVE",
"527 143 CURVE SMOOTH",
"503 141 OFFCURVE",
"479 139 OFFCURVE",
"455 135 CURVE"
);
}
);
vertWidth = 1000;
width = 814;
}
);
note = cid00161;
unicode = 00BC;
},
